
                <svg version="1.0" id="align-right" xmlns="http://www.w3.org/2000/svg" width="{{width}}px" height="{{height}}px"
                    viewBox="0 0 448 512">
                    <path d="M440 48H168a8 8 0 0 0-8 8v16a8 8 0 0 0 8 8h272a8 8 0 0 0 8-8V56a8 8 0 0 0-8-8zm0 384H8a8 8 0 0 0-8 8v16a8 8 0 0 0 8 8h432a8 8 0 0 0 8-8v-16a8 8 0 0 0-8-8zm0-128H168a8 8 0 0 0-8 8v16a8 8 0 0 0 8 8h272a8 8 0 0 0 8-8v-16a8 8 0 0 0-8-8zm0-128H8a8 8 0 0 0-8 8v16a8 8 0 0 0 8 8h432a8 8 0 0 0 8-8v-16a8 8 0 0 0-8-8z" />
                </svg>
            