
                <svg version="1.0" id="line-columns" xmlns="http://www.w3.org/2000/svg" width="{{width}}px" height="{{height}}px"
                    viewBox="0 0 512 512">
                    <path d="M496 424H304a16 16 0 0 0-16 16v16a16 16 0 0 0 16 16h192a16 16 0 0 0 16-16v-16a16 16 0 0 0-16-16zm0-128H304a16 16 0 0 0-16 16v16a16 16 0 0 0 16 16h192a16 16 0 0 0 16-16v-16a16 16 0 0 0-16-16zm0-128H304a16 16 0 0 0-16 16v16a16 16 0 0 0 16 16h192a16 16 0 0 0 16-16v-16a16 16 0 0 0-16-16zm0-128H304a16 16 0 0 0-16 16v16a16 16 0 0 0 16 16h192a16 16 0 0 0 16-16V56a16 16 0 0 0-16-16zM208 296H16a16 16 0 0 0-16 16v16a16 16 0 0 0 16 16h192a16 16 0 0 0 16-16v-16a16 16 0 0 0-16-16zm0 128H16a16 16 0 0 0-16 16v16a16 16 0 0 0 16 16h192a16 16 0 0 0 16-16v-16a16 16 0 0 0-16-16zm0-384H16A16 16 0 0 0 0 56v16a16 16 0 0 0 16 16h192a16 16 0 0 0 16-16V56a16 16 0 0 0-16-16zm0 128H16a16 16 0 0 0-16 16v16a16 16 0 0 0 16 16h192a16 16 0 0 0 16-16v-16a16 16 0 0 0-16-16z" />
                </svg>
            