
                <svg version="1.0" id="feather-pointed" xmlns="http://www.w3.org/2000/svg" width="{{width}}px" height="{{height}}px"
                    viewBox="0 0 512 512">
                    <path d="M467 242L352 288H446C439 303 430 317 420 331L288 384H374C314 437 230 464 109 437L41 505C32 514 16 514 7 505C-2 496 -2 480 7 471L260 218C265 211 265 202 259 197C253 190 243 190 237 197L68 365C25 58 367 8 479 0C498 -1 513 14 512 33C509 79 498 162 467 242Z"" />
                </svg>
            