
                <svg version="1.0" id="right-to-bracket" xmlns="http://www.w3.org/2000/svg" width="{{width}}px" height="{{height}}px"
                    viewBox="0 0 512 512">
                    <path d="M416 32H336C327 32 320 39 320 48V80C320 89 327 96 336 96H416C434 96 448 110 448 128V384C448 402 434 416 416 416H336C327 416 320 423 320 432V464C320 473 327 480 336 480H416C469 480 512 437 512 384V128C512 75 469 32 416 32ZM345 239L201 103C194 96 183 94 175 98C166 102 160 110 160 120V192H32C14 192 0 206 0 224V288C0 306 14 320 32 320H160V392C160 402 166 410 175 414C183 418 194 416 201 409L345 273C354 264 354 248 345 239Z" />
                </svg>
            