
                <svg version="1.0" id="truck-ramp-box" xmlns="http://www.w3.org/2000/svg" width="{{width}}px" height="{{height}}px"
                    viewBox="0 0 640 512">
                    <path d="M50 376C53 384 61 389 70 387L286 329C295 327 300 318 298 309L248 124C246 115 237 110 228 112L151 133L176 226L114 242L89 150L12 170C3 173 -2 182 1 190L50 376ZM416 0C381 0 352 29 352 64V356L6 450C2 451 -1 456 0 460L13 506C14 510 19 513 23 512L416 404C419 467 472 516 535 512C595 508 640 454 640 394L640 0H416ZM528 448C502 448 480 426 480 400C480 373 502 352 528 352C555 352 576 373 576 400C576 426 555 448 528 448Z" />
                </svg>
            