
                <svg version="1.0" id="tshirt" xmlns="http://www.w3.org/2000/svg" width="{{width}}px" height="{{height}}px"
                    viewBox="0 0 640 512">
                    <path d="M637 139L594 225C586 241 567 247 551 239L480 201L480 480C480 498 466 512 448 512H192C174 512 160 498 160 480L160 201L89 239C73 247 54 241 46 225L3 139C-5 123 2 104 18 96L203 0C224 28 268 47 320 47C320 47 320 47 320 47S320 47 320 47C372 47 416 28 437 0L622 96C638 104 645 123 637 139Z" />
                </svg>
            