
                <svg version="1.0" id="cicle-check" xmlns="http://www.w3.org/2000/svg" width="{{width}}px" height="{{height}}px"
                    viewBox="0 0 512 512">
                    <path d="M256 16C123 16 16 123 16 256S123 496 256 496S496 389 496 256S389 16 256 16ZM256 448C150 448 64 362 64 256S150 64 256 64S448 150 448 256S362 448 256 448ZM335 175L224 286L177 239C168 230 152 230 143 239S134 264 143 273L207 337C212 342 218 344 224 344S236 342 241 337L369 209C378 200 378 184 369 175S344 166 335 175Z" />
                </svg>
            