
                <svg version="1.0" id="circle-plus" xmlns="http://www.w3.org/2000/svg" width="{{width}}px" height="{{height}}px"
                    viewBox="0 0 512 512">
                    <path d="M256 16C123 16 16 123 16 256S123 496 256 496S496 389 496 256S389 16 256 16ZM256 448C150 448 64 362 64 256S150 64 256 64S448 150 448 256S362 448 256 448ZM352 232H280V160C280 147 269 136 256 136H256C243 136 232 147 232 160V232H160C147 232 136 243 136 256V256C136 269 147 280 160 280H232V352C232 365 243 376 256 376H256C269 376 280 365 280 352V280H352C365 280 376 269 376 256V256C376 243 365 232 352 232Z" />
                </svg>
            