
                <svg version="1.0" id="gem" xmlns="http://www.w3.org/2000/svg" width="{{width}}px" height="{{height}}px"
                    viewBox="0 0 512 512">
                    <path d="M508 196L404 43C399 36 392 32 384 32H128C120 32 113 36 108 43L4 196C-2 206 -1 218 7 226L239 472C243 477 249 480 256 480S269 477 273 472L505 226C513 218 514 206 508 196ZM382 97L447 192H307L382 97ZM256 179L178 80H334L256 179ZM130 97L205 192H65L130 97ZM256 421L85 240H427L256 421Z" />
                </svg>
            