
                <svg version="1.0" id="table-cells" xmlns="http://www.w3.org/2000/svg" width="{{width}}px" height="{{height}}px"
                    viewBox="0 0 448 512">
                    <path d="M448 32H64C29 32 0 61 0 96V416C0 451 29 480 64 480H448C483 480 512 451 512 416V96C512 61 483 32 448 32ZM464 96V168H360V80H448C457 80 464 87 464 96ZM200 296V216H312V296H200ZM312 344V432H200V344H312ZM152 296H48V216H152V296ZM200 168V80H312V168H200ZM360 216H464V296H360V216ZM64 80H152V168H48V96C48 87 55 80 64 80ZM48 416V344H152V432H64C55 432 48 425 48 416ZM448 432H360V344H464V416C464 425 457 432 448 432Z" />
                </svg>
            