
                <svg version="1.0" id="vial" xmlns="http://www.w3.org/2000/svg" width="{{width}}px" height="{{height}}px"
                    viewBox="0 0 512 512">
                    <path d="M505 183L329 7C324 2 318 0 312 0S300 2 295 7C286 16 286 32 295 41L310 56L33 333C-6 371 -12 435 24 476C44 500 73 512 101 512H102C128 512 155 502 175 482L456 202L471 217C476 222 482 224 488 224S500 222 505 217C514 208 514 192 505 183ZM333 256H178L344 90L344 90L422 168L333 256Z" />
                </svg>
            