
                <svg version="1.0" id="feather-pointed" xmlns="http://www.w3.org/2000/svg" width="{{width}}px" height="{{height}}px"
                    viewBox="0 0 512 512">
                    <path d="M479 0C361 9 -10 63 77 412C78 415 79 418 80 420L2 498C-1 501 -1 507 2 510C5 513 11 513 14 510L92 432C94 433 97 434 100 435C136 444 169 448 199 448C460 448 504 138 512 33C513 19 502 -2 479 0ZM199 432C169 432 137 428 104 419L187 336H396C352 392 289 432 199 432ZM283 240H450C439 268 425 295 407 320H203L283 240ZM456 224C456 224 456 224 456 224H299L342 182C345 179 345 173 342 170C339 167 333 167 330 170L93 408C68 311 79 230 125 168C212 48 402 22 480 16C490 16 497 24 496 32C493 71 484 148 456 224Z" />
                </svg>
            