
                <svg version="1.0" id="triangle" xmlns="http://www.w3.org/2000/svg" width="{{width}}px" height="{{height}}px"
                    viewBox="0 0 512 512">
                    <path d="M506 417L293 53C285 39 270 32 256 32S227 39 219 53L6 417C-11 445 10 480 43 480H469C502 480 523 445 506 417ZM493 451C488 459 479 464 469 464H43C33 464 24 459 19 451C15 442 15 433 20 425L233 61C238 53 246 48 256 48C266 48 274 53 279 61L492 425C497 433 497 442 493 451Z" />
                </svg>
            