
                <svg version="1.0" id="angle-double-left" xmlns="http://www.w3.org/2000/svg" width="{{width}}px" height="{{height}}px"
                    viewBox="0 0 448 512">
                    <path d="M224 239l135.61-136a23.78 23.78 0 0 1 33.8 0L416 125.64a23.94 23.94 0 0 1 0 33.89l-96.16 96.37L416 352.27a23.94 23.94 0 0 1 0 33.89L393.53 409a23.78 23.78 0 0 1-33.8 0L224.12 273a23.94 23.94 0 0 1-.1-34z,M32.11 239l135.55-136a23.77 23.77 0 0 1 33.79 0L224 125.74a23.94 23.94 0 0 1 0 33.89L127.89 256l96 96.47a23.94 23.94 0 0 1 0 33.89L201.35 409a23.77 23.77 0 0 1-33.79 0L32 273a24 24 0 0 1 .11-34z" />
                </svg>
            