
                <svg version="1.0" id="arrow-alt-circle-down" xmlns="http://www.w3.org/2000/svg" width="{{width}}px" height="{{height}}px"
                    viewBox="0 0 512 512">
                    <path d="M256 8C119 8 8 119 8 256s111 248 248 248 248-111 248-248S393 8 256 8zm124.41 268.32L264.52 390.48a12.08 12.08 0 0 1-17 0L131.59 276.32c-7.67-7.49-2.22-20.48 8.57-20.48h71.51V140a12.08 12.08 0 0 1 12.1-12h64.56a12.08 12.08 0 0 1 12.1 12v115.84h71.41c10.79 0 16.24 12.89 8.57 20.48z,M223.77 128h64.56a12.08 12.08 0 0 1 12.1 12v115.84h71.41c10.79 0 16.24 12.89 8.57 20.48L264.52 390.48a12.08 12.08 0 0 1-17 0L131.59 276.32c-7.67-7.49-2.22-20.48 8.57-20.48h71.51V140a12.08 12.08 0 0 1 12.1-12z" />
                </svg>
            