
                <svg version="1.0" id="arrow-alt-circle-left" xmlns="http://www.w3.org/2000/svg" width="{{width}}px" height="{{height}}px"
                    viewBox="0 0 512 512">
                    <path d="M256 8C119 8 8 119 8 256s111 248 248 248 248-111 248-248S393 8 256 8zm128 280.33a12.08 12.08 0 0 1-12 12.1H256.16v71.41c0 10.79-12.89 16.24-20.48 8.57L121.52 264.52a12.08 12.08 0 0 1 0-17l114.16-115.93c7.49-7.67 20.48-2.22 20.48 8.57v71.51H372a12.08 12.08 0 0 1 12 12.1z,M384 223.77v64.56a12.08 12.08 0 0 1-12 12.1H256.16v71.41c0 10.79-12.89 16.24-20.48 8.57L121.52 264.52a12.08 12.08 0 0 1 0-17l114.16-115.93c7.49-7.67 20.48-2.22 20.48 8.57v71.51H372a12.08 12.08 0 0 1 12 12.1z" />
                </svg>
            