
                <svg version="1.0" id="arrow-alt-from-top" xmlns="http://www.w3.org/2000/svg" width="{{width}}px" height="{{height}}px"
                    viewBox="0 0 384 512">
                    <path d="M384 56v16a23.94 23.94 0 0 1-24 24H24A23.94 23.94 0 0 1 0 72V56a23.94 23.94 0 0 1 24-24h336a23.94 23.94 0 0 1 24 24z,M151.89 128H232a24 24 0 0 1 24 24v136h88c17.82 0 26.73 21.51 14.12 34.11L205.67 474.37a19.4 19.4 0 0 1-27.34 0L25.91 322.14C13.3 309.54 22.21 288 40 288h87.83V152a24 24 0 0 1 24.06-24z" />
                </svg>
            