
                <svg version="1.0" id="arrow-alt-from-right" xmlns="http://www.w3.org/2000/svg" width="{{width}}px" height="{{height}}px"
                    viewBox="0 0 448 512">
                    <path d="M448 88v336a23.94 23.94 0 0 1-24 24h-16a23.94 23.94 0 0 1-24-24V88a23.94 23.94 0 0 1 24-24h16a23.94 23.94 0 0 1 24 24z,M352 215.89V296a24 24 0 0 1-24 24H192v88c0 17.82-21.51 26.73-34.11 14.12L5.63 269.67a19.4 19.4 0 0 1 0-27.34L157.86 89.91C170.46 77.3 192 86.21 192 104v87.83h136a24 24 0 0 1 24 24.06z" />
                </svg>
            