
                <svg version="1.0" id="arrow-square-right" xmlns="http://www.w3.org/2000/svg" width="{{width}}px" height="{{height}}px"
                    viewBox="0 0 448 512">
                    <path d="M400 32H48A48 48 0 0 0 0 80v352a48 48 0 0 0 48 48h352a48 48 0 0 0 48-48V80a48 48 0 0 0-48-48zm-27.7 241L239.6 405.6a23.9 23.9 0 0 1-33.9 0l-11-10.9a24 24 0 0 1 .4-34.3l75.5-72.4H88a23.94 23.94 0 0 1-24-24v-16a23.94 23.94 0 0 1 24-24h182.6l-75.5-72.4a24.15 24.15 0 0 1-.4-34.4l11-10.9a23.9 23.9 0 0 1 33.9 0l132.7 132.8a23.9 23.9 0 0 1 0 33.9z,M194.7 117.2l11-10.9a23.9 23.9 0 0 1 33.9 0l132.7 132.8a23.9 23.9 0 0 1 0 33.9L239.6 405.6a23.9 23.9 0 0 1-33.9 0l-11-10.9a24 24 0 0 1 .4-34.3l75.5-72.4H88a23.94 23.94 0 0 1-24-24v-16a23.94 23.94 0 0 1 24-24h182.6l-75.5-72.4a24.15 24.15 0 0 1-.4-34.4z" />
                </svg>
            