
                <svg version="1.0" id="arrow-up" xmlns="http://www.w3.org/2000/svg" width="{{width}}px" height="{{height}}px"
                    viewBox="0 0 448 512">
                    <path d="M183 456V169.6l41-41.6 41 41.59V456c0 13.3-11 24-24.63 24h-32.82A24.22 24.22 0 0 1 183 456z,M6.52 233.69c.23-.24.47-.48.71-.71L206.56 39a25 25 0 0 1 34.78 0l199.43 194a23.38 23.38 0 0 1 .7 33.11c-.22.24-.46.47-.7.7L418 288.94a25.13 25.13 0 0 1-35.18-.4L224 127.81 65.2 288.54a24.94 24.94 0 0 1-35.18.4L7.23 266.79a23.38 23.38 0 0 1-.71-33.1z" />
                </svg>
            