
                <svg version="1.0" id="ball-pile" xmlns="http://www.w3.org/2000/svg" width="{{width}}px" height="{{height}}px"
                    viewBox="0 0 576 512">
                    <path d="M176 168a80 80 0 1 0 80 80 80 80 0 0 0-80-80zm224 0a80 80 0 1 0 80 80 80 80 0 0 0-80-80z,M80 352a80 80 0 1 0 80 80 80 80 0 0 0-80-80zM288 0a80 80 0 1 0 80 80 80 80 0 0 0-80-80zm0 352a80 80 0 1 0 80 80 80 80 0 0 0-80-80zm208 0a80 80 0 1 0 80 80 80 80 0 0 0-80-80z" />
                </svg>
            