
                <svg version="1.0" id="band-aid" xmlns="http://www.w3.org/2000/svg" width="{{width}}px" height="{{height}}px"
                    viewBox="0 0 640 512">
                    <path d="M0 160v192a64.05 64.05 0 0 0 64 64h96V96H64a64.05 64.05 0 0 0-64 64zm576-64h-96v320h96a64.05 64.05 0 0 0 64-64V160a64.05 64.05 0 0 0-64-64zM192 416h256V96H192zm176-232a24 24 0 1 1-24 24 23.94 23.94 0 0 1 24-24zm0 96a24 24 0 1 1-24 24 23.94 23.94 0 0 1 24-24zm-96-96a24 24 0 1 1-24 24 23.94 23.94 0 0 1 24-24zm0 96a24 24 0 1 1-24 24 23.94 23.94 0 0 1 24-24z,M160 416h32V96h-32zM448 96v320h32V96z" />
                </svg>
            