
                <svg version="1.0" id="bars" xmlns="http://www.w3.org/2000/svg" width="{{width}}px" height="{{height}}px"
                    viewBox="0 0 448 512">
                    <path d="M16 288h416a16 16 0 0 0 16-16v-32a16 16 0 0 0-16-16H16a16 16 0 0 0-16 16v32a16 16 0 0 0 16 16z,M432 384H16a16 16 0 0 0-16 16v32a16 16 0 0 0 16 16h416a16 16 0 0 0 16-16v-32a16 16 0 0 0-16-16zm0-320H16A16 16 0 0 0 0 80v32a16 16 0 0 0 16 16h416a16 16 0 0 0 16-16V80a16 16 0 0 0-16-16z" />
                </svg>
            