
                <svg version="1.0" id="book-spells" xmlns="http://www.w3.org/2000/svg" width="{{width}}px" height="{{height}}px"
                    viewBox="0 0 448 512">
                    <path d="M96 448c-19.2 0-32-12.8-32-32s16-32 32-32h319.33c-1.93 16.24-1.76 48.38.53 64z,M96 384h328a24 24 0 0 0 24-24V32a32 32 0 0 0-32-32H96A96 96 0 0 0 0 96v320a96 96 0 0 0 96 96h328a24 24 0 0 0 24-24v-16a24 24 0 0 0-24-24H96c-19.2 0-32-12.8-32-32s16-32 32-32zm176-224l26.66 53.33L352 240l-53.34 26.67L272 320l-26.66-53.33L192 240l53.34-26.67zM160 96l16-32 16 32 32 16-32 16-16 32-16-32-32-16z" />
                </svg>
            