
                <svg version="1.0" id="box-tissue" xmlns="http://www.w3.org/2000/svg" width="{{width}}px" height="{{height}}px"
                    viewBox="0 0 512 512">
                    <path d="M384,288,448,96H338.6A70.2,70.2,0,0,1,272,48,70.19,70.19,0,0,0,205.4,0H64l64,288Z,M0,480a32,32,0,0,0,32,32H480a32,32,0,0,0,32-32V416H0ZM480,224H439.06l-21.33,64H432a16,16,0,0,1,0,32H80a16,16,0,0,1,0-32H95.22L81,224H32A32,32,0,0,0,0,256V384H512V256A32,32,0,0,0,480,224Z" />
                </svg>
            