
                <svg version="1.0" id="boxes-alt" xmlns="http://www.w3.org/2000/svg" width="{{width}}px" height="{{height}}px"
                    viewBox="0 0 576 512">
                    <path d="M320 0v88a8 8 0 0 1-8 8h-48a8 8 0 0 1-8-8V0zm160 288v88a8 8 0 0 1-8 8h-48a8 8 0 0 1-8-8v-88zm-320 0v88a8 8 0 0 1-8 8h-48a8 8 0 0 1-8-8v-88z,M176 224h224a16 16 0 0 0 16-16V16a16 16 0 0 0-16-16h-80v88a8 8 0 0 1-8 8h-48a8 8 0 0 1-8-8V0h-80a16 16 0 0 0-16 16v192a16 16 0 0 0 16 16zm384 64h-80v88a8 8 0 0 1-8 8h-48a8 8 0 0 1-8-8v-88h-80a16 16 0 0 0-16 16v192a16 16 0 0 0 16 16h224a16 16 0 0 0 16-16V304a16 16 0 0 0-16-16zm-320 0h-80v88a8 8 0 0 1-8 8h-48a8 8 0 0 1-8-8v-88H16a16 16 0 0 0-16 16v192a16 16 0 0 0 16 16h224a16 16 0 0 0 16-16V304a16 16 0 0 0-16-16z" />
                </svg>
            