
                <svg version="1.0" id="boxes" xmlns="http://www.w3.org/2000/svg" width="{{width}}px" height="{{height}}px"
                    viewBox="0 0 576 512">
                    <path d="M480 288v96l-32-21.3-32 21.3v-96zM320 0v96l-32-21.3L256 96V0zM160 288v96l-32-21.3L96 384v-96z,M560 288h-80v96l-32-21.3-32 21.3v-96h-80a16 16 0 0 0-16 16v192a16 16 0 0 0 16 16h224a16 16 0 0 0 16-16V304a16 16 0 0 0-16-16zm-384-64h224a16 16 0 0 0 16-16V16a16 16 0 0 0-16-16h-80v96l-32-21.3L256 96V0h-80a16 16 0 0 0-16 16v192a16 16 0 0 0 16 16zm64 64h-80v96l-32-21.3L96 384v-96H16a16 16 0 0 0-16 16v192a16 16 0 0 0 16 16h224a16 16 0 0 0 16-16V304a16 16 0 0 0-16-16z" />
                </svg>
            