
                <svg version="1.0" id="caret-square-left" xmlns="http://www.w3.org/2000/svg" width="{{width}}px" height="{{height}}px"
                    viewBox="0 0 448 512">
                    <path d="M400 32H48A48 48 0 0 0 0 80v352a48 48 0 0 0 48 48h352a48 48 0 0 0 48-48V80a48 48 0 0 0-48-48zM288 372.6c0 10.14-14.07 15.21-22.29 8L131.82 264a10.38 10.38 0 0 1 0-16.08l133.89-116.57c8.22-7.16 22.29-2.09 22.29 8.05z,M288 372.6c0 10.14-14.07 15.21-22.29 8L131.82 264a10.38 10.38 0 0 1 0-16.08l133.89-116.57c8.22-7.16 22.29-2.09 22.29 8.05z" />
                </svg>
            