
                <svg version="1.0" id="caret-circle-down" xmlns="http://www.w3.org/2000/svg" width="{{width}}px" height="{{height}}px"
                    viewBox="0 0 512 512">
                    <path d="M256 8C119 8 8 119 8 256s111 248 248 248 248-111 248-248S393 8 256 8zm131.5 220.5l-123 123a12 12 0 0 1-17 0l-123-123A12 12 0 0 1 133 208h246a12 12 0 0 1 8.5 20.5z,M387.5 228.5l-123 123a12 12 0 0 1-17 0l-123-123A12 12 0 0 1 133 208h246a12 12 0 0 1 8.5 20.5z" />
                </svg>
            