
                <svg version="1.0" id="caret-square-up" xmlns="http://www.w3.org/2000/svg" width="{{width}}px" height="{{height}}px"
                    viewBox="0 0 448 512">
                    <path d="M400 32H48A48 48 0 0 0 0 80v352a48 48 0 0 0 48 48h352a48 48 0 0 0 48-48V80a48 48 0 0 0-48-48zm-59.4 288H107.4c-10.14 0-15.21-14.07-8.05-22.29L216 163.82a10.38 10.38 0 0 1 16.08 0l116.57 133.89c7.16 8.22 2.09 22.29-8.05 22.29z,M340.6 320H107.4c-10.14 0-15.21-14.07-8.05-22.29L216 163.82a10.38 10.38 0 0 1 16.08 0l116.57 133.89c7.16 8.22 2.09 22.29-8.05 22.29z" />
                </svg>
            