
                <svg version="1.0" id="chevron-circle-left" xmlns="http://www.w3.org/2000/svg" width="{{width}}px" height="{{height}}px"
                    viewBox="0 0 512 512">
                    <path d="M256 8C119 8 8 119 8 256s111 248 248 248 248-111 248-248S393 8 256 8zm72.5 349.6a23.9 23.9 0 0 1 0 33.9l-17 17a23.9 23.9 0 0 1-33.9 0L142.1 273a24 24 0 0 1 0-34l135.5-135.5a23.9 23.9 0 0 1 33.9 0l17 17a23.9 23.9 0 0 1 0 33.9L226.9 256z,M142.1 239l135.5-135.5a23.9 23.9 0 0 1 33.9 0l17 17a23.9 23.9 0 0 1 0 33.9L226.9 256l101.6 101.6a23.9 23.9 0 0 1 0 33.9l-17 17a23.9 23.9 0 0 1-33.9 0L142.1 273a24 24 0 0 1 0-34z" />
                </svg>
            