
                <svg version="1.0" id="chevron-square-up" xmlns="http://www.w3.org/2000/svg" width="{{width}}px" height="{{height}}px"
                    viewBox="0 0 448 512">
                    <path d="M400 32H48A48 48 0 0 0 0 80v352a48 48 0 0 0 48 48h352a48 48 0 0 0 48-48V80a48 48 0 0 0-48-48zm-23.52 287.51l-17 17a24 24 0 0 1-33.94 0L224 234.91 122.43 336.48a24 24 0 0 1-33.94 0l-17-17a24 24 0 0 1 0-33.94L207 150.06a24 24 0 0 1 33.94 0l135.54 135.51a24 24 0 0 1 0 33.94z,M71.52 285.57L207 150.06a24 24 0 0 1 33.94 0l135.54 135.51a24 24 0 0 1 0 33.94l-17 17a24 24 0 0 1-33.94 0L224 234.91 122.43 336.48a24 24 0 0 1-33.94 0l-17-17a24 24 0 0 1 .03-33.91z" />
                </svg>
            