
                <svg version="1.0" id="chevron-circle-up" xmlns="http://www.w3.org/2000/svg" width="{{width}}px" height="{{height}}px"
                    viewBox="0 0 512 512">
                    <path d="M256 8C119 8 8 119 8 256s111 248 248 248 248-111 248-248S393 8 256 8zm152.5 303.5l-17 17a23.9 23.9 0 0 1-33.9 0L256 226.9 154.4 328.5a23.9 23.9 0 0 1-33.9 0l-17-17a23.9 23.9 0 0 1 0-33.9L239 142.1a24 24 0 0 1 34 0l135.5 135.5a23.9 23.9 0 0 1 0 33.9z,M273 142.1l135.5 135.5a23.9 23.9 0 0 1 0 33.9l-17 17a23.9 23.9 0 0 1-33.9 0L256 226.9 154.4 328.5a23.9 23.9 0 0 1-33.9 0l-17-17a23.9 23.9 0 0 1 0-33.9L239 142.1a24 24 0 0 1 34 0z" />
                </svg>
            