
                <svg version="1.0" id="chevron-double-up" xmlns="http://www.w3.org/2000/svg" width="{{width}}px" height="{{height}}px"
                    viewBox="0 0 448 512">
                    <path d="M435 420.86a24 24 0 0 1 0 33.94l-22.63 22.67a23.93 23.93 0 0 1-33.85 0L224 323.5l-154.5 154a23.93 23.93 0 0 1-33.85 0L13 454.8a24 24 0 0 1 0-33.94l194-194.33a23.93 23.93 0 0 1 33.88 0z,M435 228.86a24 24 0 0 1 0 33.94l-22.63 22.67a23.93 23.93 0 0 1-33.85 0L224 131.5l-154.5 154a23.93 23.93 0 0 1-33.85 0L13 262.8a24 24 0 0 1 0-33.94L207 34.53a23.93 23.93 0 0 1 33.88 0z" />
                </svg>
            