
                <svg version="1.0" id="chevron-circle-down" xmlns="http://www.w3.org/2000/svg" width="{{width}}px" height="{{height}}px"
                    viewBox="0 0 512 512">
                    <path d="M256 8C119 8 8 119 8 256s111 248 248 248 248-111 248-248S393 8 256 8zm152.5 226.4L273 369.9a24 24 0 0 1-34 0L103.5 234.4a23.9 23.9 0 0 1 0-33.9l17-17a23.9 23.9 0 0 1 33.9 0L256 285.1l101.6-101.6a23.9 23.9 0 0 1 33.9 0l17 17a23.9 23.9 0 0 1 0 33.9z,M239 369.9L103.5 234.4a23.9 23.9 0 0 1 0-33.9l17-17a23.9 23.9 0 0 1 33.9 0L256 285.1l101.6-101.6a23.9 23.9 0 0 1 33.9 0l17 17a23.9 23.9 0 0 1 0 33.9L273 369.9a24 24 0 0 1-34 0z" />
                </svg>
            