
                <svg version="1.0" id="clipboard" xmlns="http://www.w3.org/2000/svg" width="{{width}}px" height="{{height}}px"
                    viewBox="0 0 384 512">
                    <path d="M336 63h-80v1a64 64 0 0 1 64 64H64a64 64 0 0 1 64-64v-1H48a48 48 0 0 0-48 48v352a48 48 0 0 0 48 48h288a48 48 0 0 0 48-48V111a48 48 0 0 0-48-48z,M256 64a64 64 0 0 0-128 0 64 64 0 0 0-64 64h256a64 64 0 0 0-64-64zm-64 24a24 24 0 1 1 24-24 23.94 23.94 0 0 1-24 24z" />
                </svg>
            