
                <svg version="1.0" id="comment-alt-times" xmlns="http://www.w3.org/2000/svg" width="{{width}}px" height="{{height}}px"
                    viewBox="0 0 512 512">
                    <path d="M448 0H64A64.06 64.06 0 0 0 0 64v288a64.06 64.06 0 0 0 64 64h96v84a12 12 0 0 0 19.1 9.7L304 416h144a64.06 64.06 0 0 0 64-64V64a64.06 64.06 0 0 0-64-64zM340.9 281.5l-11.3 11.3a16.06 16.06 0 0 1-22.6 0l-51-50.9-50.9 50.9a16.06 16.06 0 0 1-22.6 0l-11.3-11.3a16.06 16.06 0 0 1 0-22.6l50.9-50.9-50.9-50.9a16.06 16.06 0 0 1 0-22.6l11.3-11.3a16.06 16.06 0 0 1 22.6 0l50.9 50.9 50.9-50.9a16.06 16.06 0 0 1 22.6 0l11.3 11.3a16.06 16.06 0 0 1 0 22.6L289.9 208l51 50.9a16.06 16.06 0 0 1 0 22.6z,M340.9 281.5l-11.3 11.3a16.06 16.06 0 0 1-22.6 0l-51-50.9-50.9 50.9a16.06 16.06 0 0 1-22.6 0l-11.3-11.3a16.06 16.06 0 0 1 0-22.6l50.9-50.9-50.9-50.9a16.06 16.06 0 0 1 0-22.6l11.3-11.3a16.06 16.06 0 0 1 22.6 0l50.9 50.9 50.9-50.9a16.06 16.06 0 0 1 22.6 0l11.3 11.3a16.06 16.06 0 0 1 0 22.6L289.9 208l51 50.9a16.06 16.06 0 0 1 0 22.6z" />
                </svg>
            