
                <svg version="1.0" id="comment-alt-minus" xmlns="http://www.w3.org/2000/svg" width="{{width}}px" height="{{height}}px"
                    viewBox="0 0 512 512">
                    <path d="M448 0H64A64.06 64.06 0 0 0 0 64v288a64.06 64.06 0 0 0 64 64h96v84a12 12 0 0 0 19.1 9.7L304 416h144a64.06 64.06 0 0 0 64-64V64a64.06 64.06 0 0 0-64-64zm-80 216a16 16 0 0 1-16 16H160a16 16 0 0 1-16-16v-16a16 16 0 0 1 16-16h192a16 16 0 0 1 16 16z,M144 200a16 16 0 0 1 16-16h192a16 16 0 0 1 16 16v16a16 16 0 0 1-16 16H160a16 16 0 0 1-16-16z" />
                </svg>
            