
                <svg version="1.0" id="comment-alt-check" xmlns="http://www.w3.org/2000/svg" width="{{width}}px" height="{{height}}px"
                    viewBox="0 0 512 512">
                    <path d="M448 0H64A64.06 64.06 0 0 0 0 64v288a64.06 64.06 0 0 0 64 64h96v84a12 12 0 0 0 19.1 9.7L304 416h144a64.06 64.06 0 0 0 64-64V64a64.06 64.06 0 0 0-64-64zm-77.9 163.8l-131 130a11 11 0 0 1-15.6-.1l-75.7-76.3a11 11 0 0 1 .1-15.6l26-25.8a11 11 0 0 1 15.6.1l42.1 42.5 97.2-96.4a11 11 0 0 1 15.6.1l25.8 26a11 11 0 0 1-.1 15.5z,M370.1 163.8l-131 130a11 11 0 0 1-15.6-.1l-75.7-76.3a11 11 0 0 1 .1-15.6l26-25.8a11 11 0 0 1 15.6.1l42.1 42.5 97.2-96.4a11 11 0 0 1 15.6.1l25.8 26a11 11 0 0 1-.1 15.5z" />
                </svg>
            