
                <svg version="1.0" id="compress" xmlns="http://www.w3.org/2000/svg" width="{{width}}px" height="{{height}}px"
                    viewBox="0 0 448 512">
                    <path d="M436 128h-84V44a12 12 0 0 0-12-12h-40a12 12 0 0 0-12 12v124a23.94 23.94 0 0 0 24 24h124a12 12 0 0 0 12-12v-40a12 12 0 0 0-12-12zM136 320H12a12 12 0 0 0-12 12v40a12 12 0 0 0 12 12h84v84a12 12 0 0 0 12 12h40a12 12 0 0 0 12-12V344a23.94 23.94 0 0 0-24-24z,M436 320H312a23.94 23.94 0 0 0-24 24v124a12 12 0 0 0 12 12h40a12 12 0 0 0 12-12v-84h84a12 12 0 0 0 12-12v-40a12 12 0 0 0-12-12zM148 32h-40a12 12 0 0 0-12 12v84H12a12 12 0 0 0-12 12v40a12 12 0 0 0 12 12h124a23.94 23.94 0 0 0 24-24V44a12 12 0 0 0-12-12z" />
                </svg>
            