
                <svg version="1.0" id="conveyor-belt-alt" xmlns="http://www.w3.org/2000/svg" width="{{width}}px" height="{{height}}px"
                    viewBox="0 0 640 512">
                    <path d="M304 0H80a16 16 0 0 0-16 16v224a16 16 0 0 0 16 16h224a16 16 0 0 0 16-16V16a16 16 0 0 0-16-16zm256 64H400a16 16 0 0 0-16 16v160a16 16 0 0 0 16 16h160a16 16 0 0 0 16-16V80a16 16 0 0 0-16-16z,M544 320H96a96 96 0 0 0 0 192h448a96 96 0 0 0 0-192zM128 448a32 32 0 1 1 32-32 32 32 0 0 1-32 32zm192 0a32 32 0 1 1 32-32 32 32 0 0 1-32 32zm192 0a32 32 0 1 1 32-32 32 32 0 0 1-32 32z" />
                </svg>
            