
                <svg version="1.0" id="crop-alt" xmlns="http://www.w3.org/2000/svg" width="{{width}}px" height="{{height}}px"
                    viewBox="0 0 512 512">
                    <path d="M160 24a24 24 0 0 0-24-24H88a24 24 0 0 0-24 24v392a32 32 0 0 0 32 32h224v-96H160zm328 328h-40v96h40a24 24 0 0 0 24-24v-48a24 24 0 0 0-24-24z,M416 64H192v96h160v328a24 24 0 0 0 24 24h48a24 24 0 0 0 24-24V96a32 32 0 0 0-32-32zM0 88v48a24 24 0 0 0 24 24h40V64H24A24 24 0 0 0 0 88z" />
                </svg>
            