
                <svg version="1.0" id="dice-four" xmlns="http://www.w3.org/2000/svg" width="{{width}}px" height="{{height}}px"
                    viewBox="0 0 448 512">
                    <path d="M384 32H64A64 64 0 0 0 0 96v320a64 64 0 0 0 64 64h320a64 64 0 0 0 64-64V96a64 64 0 0 0-64-64zM128 384a32 32 0 1 1 32-32 32 32 0 0 1-32 32zm0-192a32 32 0 1 1 32-32 32 32 0 0 1-32 32zm192 192a32 32 0 1 1 32-32 32 32 0 0 1-32 32zm0-192a32 32 0 1 1 32-32 32 32 0 0 1-32 32z,M128 320a32 32 0 1 0 32 32 32 32 0 0 0-32-32zm0-192a32 32 0 1 0 32 32 32 32 0 0 0-32-32zm192 192a32 32 0 1 0 32 32 32 32 0 0 0-32-32zm0-128a32 32 0 1 0-32-32 32 32 0 0 0 32 32z" />
                </svg>
            