
                <svg version="1.0" id="dolly-empty" xmlns="http://www.w3.org/2000/svg" width="{{width}}px" height="{{height}}px"
                    viewBox="0 0 576 512">
                    <path d="M256 320a96 96 0 1 0 96 96 96 96 0 0 0-96-96zm0 128a32 32 0 1 1 32-32 32 32 0 0 1-32 32z,M128 0H16A16 16 0 0 0 0 16v32a16 16 0 0 0 16 16h88.9l81.49 244.57a127.23 127.23 0 0 1 60.81-20.26L158.4 21.9A32 32 0 0 0 128 0zm447.2 326.4L565 296a16 16 0 0 0-20.2-10.1l-181.38 60.49a127.12 127.12 0 0 1 20.27 60.76L565 346.6a16 16 0 0 0 10.2-20.2z" />
                </svg>
            