
                <svg version="1.0" id="dolly-flatbed" xmlns="http://www.w3.org/2000/svg" width="{{width}}px" height="{{height}}px"
                    viewBox="0 0 640 512">
                    <path d="M450.74 448a48 48 0 1 0 90.52 0zm-288 0a48 48 0 1 0 90.52 0zM592 32H448v128l-48-32-48 32V32H208a16 16 0 0 0-16 16v256a16 16 0 0 0 16 16h384a16 16 0 0 0 16-16V48a16 16 0 0 0-16-16z,M448 160V32h-96v128l48-32zm176 224H128V16a16 16 0 0 0-16-16H16A16 16 0 0 0 0 16v32a16 16 0 0 0 16 16h48v368a16 16 0 0 0 16 16h544a16 16 0 0 0 16-16v-32a16 16 0 0 0-16-16z" />
                </svg>
            