
                <svg version="1.0" id="dumbbell" xmlns="http://www.w3.org/2000/svg" width="{{width}}px" height="{{height}}px"
                    viewBox="0 0 640 512">
                    <path d="M32 288H16a16 16 0 0 1-16-16v-32a16 16 0 0 1 16-16h16zm352-64H256v64h128zm240 0h-16v64h16a16 16 0 0 0 16-16v-32a16 16 0 0 0-16-16z,M232 32h-48a23.94 23.94 0 0 0-24 24v400a23.94 23.94 0 0 0 24 24h48a23.94 23.94 0 0 0 24-24V56a23.94 23.94 0 0 0-24-24zm224 0h-48a23.94 23.94 0 0 0-24 24v400a23.94 23.94 0 0 0 24 24h48a23.94 23.94 0 0 0 24-24V56a23.94 23.94 0 0 0-24-24zm128 64h-48a23.94 23.94 0 0 0-24 24v272a23.94 23.94 0 0 0 24 24h48a23.94 23.94 0 0 0 24-24V120a23.94 23.94 0 0 0-24-24zm-480 0H56a23.94 23.94 0 0 0-24 24v272a23.94 23.94 0 0 0 24 24h48a23.94 23.94 0 0 0 24-24V120a23.94 23.94 0 0 0-24-24z" />
                </svg>
            