
                <svg version="1.0" id="ear" xmlns="http://www.w3.org/2000/svg" width="{{width}}px" height="{{height}}px"
                    viewBox="0 0 384 512">
                    <path d="M192 0C86 0 0 86 0 192v176a144 144 0 0 0 288 0v-9.9c57.33-33.21 96-95.1 96-166.1C384 86 298 0 192 0zm128 200a8 8 0 0 1-8 8h-16a8 8 0 0 1-8-8v-8a96 96 0 0 0-192 0 32 32 0 0 0 32 32h32a64 64 0 0 1 0 128h-8a8 8 0 0 1-8-8v-16a8 8 0 0 1 8-8h8a32 32 0 0 0 0-64h-32a64.06 64.06 0 0 1-64-64 128 128 0 0 1 256 0z,M320 200a8 8 0 0 1-8 8h-16a8 8 0 0 1-8-8v-8a96 96 0 0 0-192 0 32 32 0 0 0 32 32h32a64 64 0 0 1 0 128h-8a8 8 0 0 1-8-8v-16a8 8 0 0 1 8-8h8a32 32 0 0 0 0-64h-32a64.06 64.06 0 0 1-64-64 128 128 0 0 1 256 0z" />
                </svg>
            