
                <svg version="1.0" id="expand-wide" xmlns="http://www.w3.org/2000/svg" width="{{width}}px" height="{{height}}px"
                    viewBox="0 0 512 512">
                    <path d="M148 64H24A23.94 23.94 0 0 0 0 88v124a12 12 0 0 0 12 12h40a12 12 0 0 0 12-12v-84h84a12 12 0 0 0 12-12V76a12 12 0 0 0-12-12zm352 224h-40a12 12 0 0 0-12 12v84h-84a12 12 0 0 0-12 12v40a12 12 0 0 0 12 12h124a23.94 23.94 0 0 0 24-24V300a12 12 0 0 0-12-12z,M148 384H64v-84a12 12 0 0 0-12-12H12a12 12 0 0 0-12 12v124a23.94 23.94 0 0 0 24 24h124a12 12 0 0 0 12-12v-40a12 12 0 0 0-12-12zM488 64H364a12 12 0 0 0-12 12v40a12 12 0 0 0 12 12h84v84a12 12 0 0 0 12 12h40a12 12 0 0 0 12-12V88a23.94 23.94 0 0 0-24-24z" />
                </svg>
            