
                <svg version="1.0" id="film-canister" xmlns="http://www.w3.org/2000/svg" width="{{width}}px" height="{{height}}px"
                    viewBox="0 0 576 512">
                    <path d="M320 448H32V96h288z,M544 128H320v288h160a32 32 0 0 0 32-32v-32a32 32 0 0 1 32-32 32 32 0 0 0 32-32V160a32 32 0 0 0-32-32zM440 360a16 16 0 0 1-16 16h-16a16 16 0 0 1-16-16v-16a16 16 0 0 1 16-16h16a16 16 0 0 1 16 16zm0-160a16 16 0 0 1-16 16h-16a16 16 0 0 1-16-16v-16a16 16 0 0 1 16-16h16a16 16 0 0 1 16 16zm96 0a16 16 0 0 1-16 16h-16a16 16 0 0 1-16-16v-16a16 16 0 0 1 16-16h16a16 16 0 0 1 16 16zM16 96h320a16 16 0 0 0 16-16V48a16 16 0 0 0-16-16h-80V16a16 16 0 0 0-16-16H112a16 16 0 0 0-16 16v16H16A16 16 0 0 0 0 48v32a16 16 0 0 0 16 16zm320 352H16a16 16 0 0 0-16 16v32a16 16 0 0 0 16 16h320a16 16 0 0 0 16-16v-32a16 16 0 0 0-16-16z" />
                </svg>
            