
                <svg version="1.0" id="flushed" xmlns="http://www.w3.org/2000/svg" width="{{width}}px" height="{{height}}px"
                    viewBox="0 0 496 512">
                    <path d="M248,8C111,8,0,119,0,256S111,504,248,504,496,393,496,256,385,8,248,8ZM80,224a72,72,0,1,1,72,72,72,72,0,0,1-72-72ZM312,400H184c-21.2,0-21.2-32,0-32H312C333.2,368,333.2,400,312,400Zm32-104a72,72,0,1,1,72-72,72,72,0,0,1-72,72Z,M152,200a23.94,23.94,0,1,0,.12,0Zm192,0a23.94,23.94,0,1,0,.12,0Z" />
                </svg>
            