
                <svg version="1.0" id="folder-minus" xmlns="http://www.w3.org/2000/svg" width="{{width}}px" height="{{height}}px"
                    viewBox="0 0 512 512">
                    <path d="M464 128H272l-64-64H48a48 48 0 0 0-48 48v288a48 48 0 0 0 48 48h416a48 48 0 0 0 48-48V176a48 48 0 0 0-48-48zm-96 168a16 16 0 0 1-16 16H160a16 16 0 0 1-16-16v-16a16 16 0 0 1 16-16h192a16 16 0 0 1 16 16z,M368 280v16a16 16 0 0 1-16 16H160a16 16 0 0 1-16-16v-16a16 16 0 0 1 16-16h192a16 16 0 0 1 16 16z" />
                </svg>
            