
                <svg version="1.0" id="folder-download" xmlns="http://www.w3.org/2000/svg" width="{{width}}px" height="{{height}}px"
                    viewBox="0 0 512 512">
                    <path d="M464,127.08H272l-64-64H48a48,48,0,0,0-48,48v288a48,48,0,0,0,48,48H464a48,48,0,0,0,48-48v-224A48,48,0,0,0,464,127.08ZM364.44,282.44,268,378.14a17.05,17.05,0,0,1-24,0l-96.42-95.7a16,16,0,0,1,11.25-27.34H224v-48a16,16,0,0,1,16-16h32a16,16,0,0,1,16,16v48h65.18A16,16,0,0,1,364.44,282.44Z,M364.44,282.44,268,378.14a17.05,17.05,0,0,1-24,0l-96.42-95.7a16,16,0,0,1,11.25-27.34H224v-48a16,16,0,0,1,16-16h32a16,16,0,0,1,16,16v48h65.18A16,16,0,0,1,364.44,282.44Z" />
                </svg>
            