
                <svg version="1.0" id="grip-vertical" xmlns="http://www.w3.org/2000/svg" width="{{width}}px" height="{{height}}px"
                    viewBox="0 0 320 512">
                    <path d="M288 352h-64a32 32 0 0 0-32 32v64a32 32 0 0 0 32 32h64a32 32 0 0 0 32-32v-64a32 32 0 0 0-32-32zm0-320h-64a32 32 0 0 0-32 32v64a32 32 0 0 0 32 32h64a32 32 0 0 0 32-32V64a32 32 0 0 0-32-32zm0 160h-64a32 32 0 0 0-32 32v64a32 32 0 0 0 32 32h64a32 32 0 0 0 32-32v-64a32 32 0 0 0-32-32z,M96 352H32a32 32 0 0 0-32 32v64a32 32 0 0 0 32 32h64a32 32 0 0 0 32-32v-64a32 32 0 0 0-32-32zm0-160H32a32 32 0 0 0-32 32v64a32 32 0 0 0 32 32h64a32 32 0 0 0 32-32v-64a32 32 0 0 0-32-32zm0-160H32A32 32 0 0 0 0 64v64a32 32 0 0 0 32 32h64a32 32 0 0 0 32-32V64a32 32 0 0 0-32-32z" />
                </svg>
            