
                <svg version="1.0" id="h-square" xmlns="http://www.w3.org/2000/svg" width="{{width}}px" height="{{height}}px"
                    viewBox="0 0 448 512">
                    <path d="M400 32H48A48 48 0 0 0 0 80v352a48 48 0 0 0 48 48h352a48 48 0 0 0 48-48V80a48 48 0 0 0-48-48zm-48 336a16 16 0 0 1-16 16h-32a16 16 0 0 1-16-16v-80H160v80a16 16 0 0 1-16 16h-32a16 16 0 0 1-16-16V144a16 16 0 0 1 16-16h32a16 16 0 0 1 16 16v80h128v-80a16 16 0 0 1 16-16h32a16 16 0 0 1 16 16z,M352 368a16 16 0 0 1-16 16h-32a16 16 0 0 1-16-16v-80H160v80a16 16 0 0 1-16 16h-32a16 16 0 0 1-16-16V144a16 16 0 0 1 16-16h32a16 16 0 0 1 16 16v80h128v-80a16 16 0 0 1 16-16h32a16 16 0 0 1 16 16z" />
                </svg>
            