
                <svg version="1.0" id="hand-scissors" xmlns="http://www.w3.org/2000/svg" width="{{width}}px" height="{{height}}px"
                    viewBox="0 0 512 512">
                    <path d="M512 168v240a40 40 0 0 1-30.84 38.94l-136 32A40.36 40.36 0 0 1 336 480h-80a40 40 0 0 1 0-80v-8h-32a40 40 0 0 1 0-80h32v-8H48a48 48 0 0 1 0-96h208v-13.57L78.45 124.69a48 48 0 1 1 35.1-89.35l190.34 74.76L328.77 79a40 40 0 0 1 51.08-9.74l112 64A40 40 0 0 1 512 168z," />
                </svg>
            