
                <svg version="1.0" id="hospital-symbol" xmlns="http://www.w3.org/2000/svg" width="{{width}}px" height="{{height}}px"
                    viewBox="0 0 512 512">
                    <path d="M256 0C114.6 0 0 114.6 0 256s114.6 256 256 256 256-114.6 256-256S397.4 0 256 0zm112 376a8 8 0 0 1-8 8h-48a8 8 0 0 1-8-8v-88h-96v88a8 8 0 0 1-8 8h-48a8 8 0 0 1-8-8V136a8 8 0 0 1 8-8h48a8 8 0 0 1 8 8v88h96v-88a8 8 0 0 1 8-8h48a8 8 0 0 1 8 8z,M368 376a8 8 0 0 1-8 8h-48a8 8 0 0 1-8-8v-88h-96v88a8 8 0 0 1-8 8h-48a8 8 0 0 1-8-8V136a8 8 0 0 1 8-8h48a8 8 0 0 1 8 8v88h96v-88a8 8 0 0 1 8-8h48a8 8 0 0 1 8 8z" />
                </svg>
            