
                <svg version="1.0" id="image" xmlns="http://www.w3.org/2000/svg" width="{{width}}px" height="{{height}}px"
                    viewBox="0 0 512 512">
                    <path d="M448 384H64v-48l71.51-71.52a12 12 0 0 1 17 0L208 320l135.51-135.52a12 12 0 0 1 17 0L448 272z,M464 64H48a48 48 0 0 0-48 48v288a48 48 0 0 0 48 48h416a48 48 0 0 0 48-48V112a48 48 0 0 0-48-48zm-352 56a56 56 0 1 1-56 56 56 56 0 0 1 56-56zm336 264H64v-48l71.51-71.52a12 12 0 0 1 17 0L208 320l135.51-135.52a12 12 0 0 1 17 0L448 272z" />
                </svg>
            