
                <svg version="1.0" id="inventory" xmlns="http://www.w3.org/2000/svg" width="{{width}}px" height="{{height}}px"
                    viewBox="0 0 640 512">
                    <path d="M624 0h-32a16 16 0 0 0-16 16v144H64V16A16 16 0 0 0 48 0H16A16 16 0 0 0 0 16v496h64v-32h512v32h64V16a16 16 0 0 0-16-16zm-48 416H64V224h512z,M208 256h-96a16 16 0 0 0-16 16v96a16 16 0 0 0 16 16h96a16 16 0 0 0 16-16v-96a16 16 0 0 0-16-16zM464 0h-96a16 16 0 0 0-16 16v96a16 16 0 0 0 16 16h96a16 16 0 0 0 16-16V16a16 16 0 0 0-16-16zm-96 256h-96a16 16 0 0 0-16 16v96a16 16 0 0 0 16 16h96a16 16 0 0 0 16-16v-96a16 16 0 0 0-16-16z" />
                </svg>
            