
                <svg version="1.0" id="landmark-alt" xmlns="http://www.w3.org/2000/svg" width="{{width}}px" height="{{height}}px"
                    viewBox="0 0 512 512">
                    <path d="M0 496v-32a16 16 0 0 1 16-16h16v-16a16 16 0 0 1 16-16h16V288h64v128h96V288h64v128h96V288h64v128h16a16 16 0 0 1 16 16v16h16a16 16 0 0 1 16 16v32a16 16 0 0 1-16 16H16a16 16 0 0 1-16-16z,M288 16v18.9A191.88 191.88 0 0 1 445.1 192H464a16 16 0 0 1 16 16v32a16 16 0 0 1-16 16H48a16 16 0 0 1-16-16v-32a16 16 0 0 1 16-16h18.9A191.88 191.88 0 0 1 224 34.9V16a16 16 0 0 1 16-16h32a16 16 0 0 1 16 16z" />
                </svg>
            