
                <svg version="1.0" id="list-alt" xmlns="http://www.w3.org/2000/svg" width="{{width}}px" height="{{height}}px"
                    viewBox="0 0 512 512">
                    <path d="M464 32H48A48 48 0 0 0 0 80v352a48 48 0 0 0 48 48h416a48 48 0 0 0 48-48V80a48 48 0 0 0-48-48zM128 392a40 40 0 1 1 40-40 40 40 0 0 1-40 40zm0-96a40 40 0 1 1 40-40 40 40 0 0 1-40 40zm0-96a40 40 0 1 1 40-40 40 40 0 0 1-40 40zm288 168a12 12 0 0 1-12 12H204a12 12 0 0 1-12-12v-32a12 12 0 0 1 12-12h200a12 12 0 0 1 12 12zm0-96a12 12 0 0 1-12 12H204a12 12 0 0 1-12-12v-32a12 12 0 0 1 12-12h200a12 12 0 0 1 12 12zm0-96a12 12 0 0 1-12 12H204a12 12 0 0 1-12-12v-32a12 12 0 0 1 12-12h200a12 12 0 0 1 12 12z,M128 200a40 40 0 1 0-40-40 40 40 0 0 0 40 40zm0 16a40 40 0 1 0 40 40 40 40 0 0 0-40-40zm0 96a40 40 0 1 0 40 40 40 40 0 0 0-40-40z" />
                </svg>
            