
                <svg version="1.0" id="long-arrow-up" xmlns="http://www.w3.org/2000/svg" width="{{width}}px" height="{{height}}px"
                    viewBox="0 0 320 512">
                    <path d="M196 160.11V456a24 24 0 0 1-24 24h-24a24 24 0 0 1-24-24V160.11l36-35.66z,M7 174.58L142.52 39l.06-.06a25.23 25.23 0 0 1 34.84 0l.06.06L313 174.58a24 24 0 0 1 0 33.94l-17 17a24 24 0 0 1-33.94 0L160 124.45 58 225.52a24 24 0 0 1-33.94 0l-17-17A24 24 0 0 1 7 174.58z" />
                </svg>
            