
                <svg version="1.0" id="long-arrow-left" xmlns="http://www.w3.org/2000/svg" width="{{width}}px" height="{{height}}px"
                    viewBox="0 0 448 512">
                    <path d="M128.09 220H424a24 24 0 0 1 24 24v24a24 24 0 0 1-24 24H128.09l-35.66-36z,M142.56 409L7 273.5v-.06a25.23 25.23 0 0 1 0-34.84l.06-.06 135.5-135.49a24 24 0 0 1 33.94 0l17 17a24 24 0 0 1 0 33.94L92.43 256 193.5 358a24 24 0 0 1 0 33.94l-17 17a24 24 0 0 1-33.94.06z" />
                </svg>
            