
                <svg version="1.0" id="map-signs" xmlns="http://www.w3.org/2000/svg" width="{{width}}px" height="{{height}}px"
                    viewBox="0 0 512 512">
                    <path d="M224 496a16 16 0 0 0 16 16h32a15.88 15.88 0 0 0 5.71-1.07l.52-.19.1-.05a16.08 16.08 0 0 0 5-3.38A15.91 15.91 0 0 0 288 496V384h-64zM272 0h-32a16 16 0 0 0-16 16v16h64V16a16 16 0 0 0-16-16zm-48 224h64v-32h-64z,M456 224H70.63A32 32 0 0 0 48 233.37L4.69 276.69a16 16 0 0 0 0 22.63L48 342.63A32 32 0 0 0 70.63 352H456a24 24 0 0 0 24-24v-80a24 24 0 0 0-24-24zm51.31-139.31L464 41.37A32 32 0 0 0 441.37 32H56a24 24 0 0 0-24 24v80a24 24 0 0 0 24 24h385.37a32 32 0 0 0 22.63-9.37l43.31-43.31a16 16 0 0 0 0-22.63z" />
                </svg>
            