
                <svg version="1.0" id="map-marker-check" xmlns="http://www.w3.org/2000/svg" width="{{width}}px" height="{{height}}px"
                    viewBox="0 0 384 512">
                    <path d="M192 0C86.4 0 0 86.4 0 192c0 76.8 25.6 99.2 172.8 310.4a24 24 0 0 0 38.4 0C358.4 291.2 384 268.8 384 192 384 86.4 297.6 0 192 0zm114.08 163.83l-131 130a11 11 0 0 1-15.55-.06l-75.76-76.34a11 11 0 0 1 .06-15.56l26-25.82a11 11 0 0 1 15.56.06l42.15 42.49 97.2-96.42a11 11 0 0 1 15.55.06l25.82 26a11 11 0 0 1-.03 15.59z,M306.08 163.83l-131 130a11 11 0 0 1-15.55-.06l-75.76-76.34a11 11 0 0 1 .06-15.56l26-25.82a11 11 0 0 1 15.56.06l42.15 42.49 97.2-96.42a11 11 0 0 1 15.55.06l25.82 26a11 11 0 0 1-.03 15.59z" />
                </svg>
            