
                <svg version="1.0" id="mobile-android-alt" xmlns="http://www.w3.org/2000/svg" width="{{width}}px" height="{{height}}px"
                    viewBox="0 0 320 512">
                    <path d="M272 0H48A48 48 0 0 0 0 48v416a48 48 0 0 0 48 48h224a48 48 0 0 0 48-48V48a48 48 0 0 0-48-48zm-64 452a12 12 0 0 1-12 12h-72a12 12 0 0 1-12-12v-8a12 12 0 0 1 12-12h72a12 12 0 0 1 12 12zm64-80a12 12 0 0 1-12 12H60a12 12 0 0 1-12-12V60a12 12 0 0 1 12-12h200a12 12 0 0 1 12 12z,M272 372a12 12 0 0 1-12 12H60a12 12 0 0 1-12-12V60a12 12 0 0 1 12-12h200a12 12 0 0 1 12 12z" />
                </svg>
            