
                <svg version="1.0" id="network-wired" xmlns="http://www.w3.org/2000/svg" width="{{width}}px" height="{{height}}px"
                    viewBox="0 0 640 512">
                    <path d="M624 232H344v-40h-48v40H16a16 16 0 0 0-16 16v16a16 16 0 0 0 16 16h104v40h48v-40h304v40h48v-40h104a16 16 0 0 0 16-16v-16a16 16 0 0 0-16-16z,M224 192h192a32 32 0 0 0 32-32V32a32 32 0 0 0-32-32H224a32 32 0 0 0-32 32v128a32 32 0 0 0 32 32zm32-128h128v64H256zm320 256H416a32 32 0 0 0-32 32v128a32 32 0 0 0 32 32h160a32 32 0 0 0 32-32V352a32 32 0 0 0-32-32zm-32 128h-96v-64h96zM224 320H64a32 32 0 0 0-32 32v128a32 32 0 0 0 32 32h160a32 32 0 0 0 32-32V352a32 32 0 0 0-32-32zm-32 128H96v-64h96z" />
                </svg>
            