
                <svg version="1.0" id="not-equal" xmlns="http://www.w3.org/2000/svg" width="{{width}}px" height="{{height}}px"
                    viewBox="0 0 448 512">
                    <path d="M35.59 466.83a16 16 0 0 0 3 22.42L64 508.75a16 16 0 0 0 22.43-3L168.52 400h-81zM162 304h81l74.51-96h-81zM441 22.78L415.61 3.29a16 16 0 0 0-22.43 3L311.11 112h81L444 45.21a16 16 0 0 0-3-22.43z,M416 304H32a32 32 0 0 0-32 32v32a32 32 0 0 0 32 32h384a32 32 0 0 0 32-32v-32a32 32 0 0 0-32-32zm0-192H32a32 32 0 0 0-32 32v32a32 32 0 0 0 32 32h384a32 32 0 0 0 32-32v-32a32 32 0 0 0-32-32z" />
                </svg>
            