
                <svg version="1.0" id="pallet-alt" xmlns="http://www.w3.org/2000/svg" width="{{width}}px" height="{{height}}px"
                    viewBox="0 0 640 512">
                    <path d="M560 64H400a16 16 0 0 0-16 16v160a16 16 0 0 0 16 16h160a16 16 0 0 0 16-16V80a16 16 0 0 0-16-16zM304 0H80a16 16 0 0 0-16 16v224a16 16 0 0 0 16 16h224a16 16 0 0 0 16-16V16a16 16 0 0 0-16-16z,M624 384a16 16 0 0 0 16-16v-32a16 16 0 0 0-16-16H16a16 16 0 0 0-16 16v32a16 16 0 0 0 16 16h48v64H16a16 16 0 0 0-16 16v32a16 16 0 0 0 16 16h608a16 16 0 0 0 16-16v-32a16 16 0 0 0-16-16h-48v-64zm-336 64H128v-64h160zm224 0H352v-64h160z" />
                </svg>
            