
                <svg version="1.0" id="parking" xmlns="http://www.w3.org/2000/svg" width="{{width}}px" height="{{height}}px"
                    viewBox="0 0 448 512">
                    <path d="M272 224a32.09 32.09 0 0 1-32 32h-48v-64h48a32.09 32.09 0 0 1 32 32zM448 80v352a48 48 0 0 1-48 48H48a48 48 0 0 1-48-48V80a48 48 0 0 1 48-48h352a48 48 0 0 1 48 48zM336 224a96.15 96.15 0 0 0-96-96h-96a16 16 0 0 0-16 16v224a16 16 0 0 0 16 16h32a16 16 0 0 0 16-16v-48h48a96.15 96.15 0 0 0 96-96z,M240 128h-96a16 16 0 0 0-16 16v224a16 16 0 0 0 16 16h32a16 16 0 0 0 16-16v-48h48a96 96 0 0 0 0-192zm0 128h-48v-64h48a32 32 0 0 1 0 64z" />
                </svg>
            