
                <svg version="1.0" id="piano-keyboard" xmlns="http://www.w3.org/2000/svg" width="{{width}}px" height="{{height}}px"
                    viewBox="0 0 576 512">
                    <path d="M576 224v192a32 32 0 0 1-32 32H32a32 32 0 0 1-32-32V224h48v176h480V224z,M576 96v128H464v80a16 16 0 0 1-16 16h-32a16 16 0 0 1-16-16v-80h-80v80a16 16 0 0 1-16 16h-32a16 16 0 0 1-16-16v-80h-80v80a16 16 0 0 1-16 16h-32a16 16 0 0 1-16-16v-80H0V96a32 32 0 0 1 32-32h512a32 32 0 0 1 32 32z" />
                </svg>
            