
                <svg version="1.0" id="project-diagram" xmlns="http://www.w3.org/2000/svg" width="{{width}}px" height="{{height}}px"
                    viewBox="0 0 640 512">
                    <path d="M416 128H164.65l91.63 160H256a63.79 63.79 0 0 0-55.12 32L54.78 64H416z,M384 320H256a32 32 0 0 0-32 32v128a32 32 0 0 0 32 32h128a32 32 0 0 0 32-32V352a32 32 0 0 0-32-32zM160 0H32A32 32 0 0 0 0 32v128a32 32 0 0 0 32 32h128a32 32 0 0 0 32-32V32a32 32 0 0 0-32-32zm448 0H480a32 32 0 0 0-32 32v128a32 32 0 0 0 32 32h128a32 32 0 0 0 32-32V32a32 32 0 0 0-32-32z" />
                </svg>
            