
                <svg version="1.0" id="quote-left" xmlns="http://www.w3.org/2000/svg" width="{{width}}px" height="{{height}}px"
                    viewBox="0 0 512 512">
                    <path d="M464 256h-80v-64a64.06 64.06 0 0 1 64-64h8a23.94 23.94 0 0 0 24-23.88V56a23.94 23.94 0 0 0-23.88-24H448a160 160 0 0 0-160 160v240a48 48 0 0 0 48 48h128a48 48 0 0 0 48-48V304a48 48 0 0 0-48-48z,M176 256H96v-64a64.06 64.06 0 0 1 64-64h8a23.94 23.94 0 0 0 24-23.88V56a23.94 23.94 0 0 0-23.88-24H160A160 160 0 0 0 0 192v240a48 48 0 0 0 48 48h128a48 48 0 0 0 48-48V304a48 48 0 0 0-48-48z" />
                </svg>
            