
                <svg version="1.0" id="rectangle-portrait" xmlns="http://www.w3.org/2000/svg" width="{{width}}px" height="{{height}}px"
                    viewBox="0 0 384 512">
                    <path d="M336 0H48A48 48 0 0 0 0 48v416a48 48 0 0 0 48 48h288a48 48 0 0 0 48-48V48a48 48 0 0 0-48-48zm-16 432a16 16 0 0 1-16 16H80a16 16 0 0 1-16-16V80a16 16 0 0 1 16-16h224a16 16 0 0 1 16 16z,M64 432V80a16 16 0 0 1 16-16h224a16 16 0 0 1 16 16v352a16 16 0 0 1-16 16H80a16 16 0 0 1-16-16z" />
                </svg>
            