
                <svg version="1.0" id="rectangle-wide" xmlns="http://www.w3.org/2000/svg" width="{{width}}px" height="{{height}}px"
                    viewBox="0 0 640 512">
                    <path d="M592 96H48a48 48 0 0 0-48 48v224a48 48 0 0 0 48 48h544a48 48 0 0 0 48-48V144a48 48 0 0 0-48-48zm-16 240a16 16 0 0 1-16 16H80a16 16 0 0 1-16-16V176a16 16 0 0 1 16-16h480a16 16 0 0 1 16 16z,M64 336V176a16 16 0 0 1 16-16h480a16 16 0 0 1 16 16v160a16 16 0 0 1-16 16H80a16 16 0 0 1-16-16z" />
                </svg>
            