
                <svg version="1.0" id="ruler-vertical" xmlns="http://www.w3.org/2000/svg" width="{{width}}px" height="{{height}}px"
                    viewBox="0 0 256 512">
                    <path d="M160 104v16a8 8 0 0 0 8 8h88v64h-88a8 8 0 0 0-8 8v16a8 8 0 0 0 8 8h88v64h-88a8 8 0 0 0-8 8v16a8 8 0 0 0 8 8h88v64h-88a8 8 0 0 0-8 8v16a8 8 0 0 0 8 8h88v64a32 32 0 0 1-32 32H32a32 32 0 0 1-32-32V32A32 32 0 0 1 32 0h192a32 32 0 0 1 32 32v64h-88a8 8 0 0 0-8 8z,M160 296v16a8 8 0 0 0 8 8h88v-32h-88a8 8 0 0 0-8 8zm0 96v16a8 8 0 0 0 8 8h88v-32h-88a8 8 0 0 0-8 8zm0-192v16a8 8 0 0 0 8 8h88v-32h-88a8 8 0 0 0-8 8zm8-104a8 8 0 0 0-8 8v16a8 8 0 0 0 8 8h88V96z" />
                </svg>
            