
                <svg version="1.0" id="share-alt" xmlns="http://www.w3.org/2000/svg" width="{{width}}px" height="{{height}}px"
                    viewBox="0 0 448 512">
                    <path d="M155.79 180.9l102.49-64.06a95.93 95.93 0 0 0 33.93 54.26l-102.49 64.06a95.93 95.93 0 0 0-33.93-54.26zm136.42 160l-102.49-64.06a95.93 95.93 0 0 1-33.93 54.26l102.49 64.06a95.93 95.93 0 0 1 33.93-54.26z,M96 160a96 96 0 1 0 96 96 96 96 0 0 0-96-96zm256 32a96 96 0 1 0-96-96 96 96 0 0 0 96 96zm0 128a96 96 0 1 0 96 96 96 96 0 0 0-96-96z" />
                </svg>
            