
                <svg version="1.0" id="signal-alt-2" xmlns="http://www.w3.org/2000/svg" width="{{width}}px" height="{{height}}px"
                    viewBox="0 0 640 512">
                    <path d="M576 0h-32a32 32 0 0 0-32 32v448a32 32 0 0 0 32 32h32a32 32 0 0 0 32-32V32a32 32 0 0 0-32-32zM416 128h-32a32 32 0 0 0-32 32v320a32 32 0 0 0 32 32h32a32 32 0 0 0 32-32V160a32 32 0 0 0-32-32z,M96 384H64a32 32 0 0 0-32 32v64a32 32 0 0 0 32 32h32a32 32 0 0 0 32-32v-64a32 32 0 0 0-32-32zm160-128h-32a32 32 0 0 0-32 32v192a32 32 0 0 0 32 32h32a32 32 0 0 0 32-32V288a32 32 0 0 0-32-32z" />
                </svg>
            