
                <svg version="1.0" id="signal-2" xmlns="http://www.w3.org/2000/svg" width="{{width}}px" height="{{height}}px"
                    viewBox="0 0 640 512">
                    <path d="M344 192h-48a16 16 0 0 0-16 16v288a16 16 0 0 0 16 16h48a16 16 0 0 0 16-16V208a16 16 0 0 0-16-16zm128-96h-48a16 16 0 0 0-16 16v384a16 16 0 0 0 16 16h48a16 16 0 0 0 16-16V112a16 16 0 0 0-16-16zM600 0h-48a16 16 0 0 0-16 16v480a16 16 0 0 0 16 16h48a16 16 0 0 0 16-16V16a16 16 0 0 0-16-16z,M88 384H40a16 16 0 0 0-16 16v96a16 16 0 0 0 16 16h48a16 16 0 0 0 16-16v-96a16 16 0 0 0-16-16zm128-96h-48a16 16 0 0 0-16 16v192a16 16 0 0 0 16 16h48a16 16 0 0 0 16-16V304a16 16 0 0 0-16-16z" />
                </svg>
            