
                <svg version="1.0" id="square-full" xmlns="http://www.w3.org/2000/svg" width="{{width}}px" height="{{height}}px"
                    viewBox="0 0 512 512">
                    <path d="M-1 0v512h512V0zm432 417.33A14.67 14.67 0 0 1 416.33 432H93.67A14.67 14.67 0 0 1 79 417.33V94.67A14.67 14.67 0 0 1 93.67 80h322.66A14.67 14.67 0 0 1 431 94.67z,M431 417.33A14.67 14.67 0 0 1 416.33 432H93.67A14.67 14.67 0 0 1 79 417.33V94.67A14.67 14.67 0 0 1 93.67 80h322.66A14.67 14.67 0 0 1 431 94.67z" />
                </svg>
            