
                <svg version="1.0" id="square" xmlns="http://www.w3.org/2000/svg" width="{{width}}px" height="{{height}}px"
                    viewBox="0 0 448 512">
                    <path d="M400 32H48A48 48 0 0 0 0 80v352a48 48 0 0 0 48 48h352a48 48 0 0 0 48-48V80a48 48 0 0 0-48-48zm-16 368a16 16 0 0 1-16 16H80a16 16 0 0 1-16-16V112a16 16 0 0 1 16-16h288a16 16 0 0 1 16 16z,M64 400V112a16 16 0 0 1 16-16h288a16 16 0 0 1 16 16v288a16 16 0 0 1-16 16H80a16 16 0 0 1-16-16z" />
                </svg>
            