
                <svg version="1.0" id="stop-circle" xmlns="http://www.w3.org/2000/svg" width="{{width}}px" height="{{height}}px"
                    viewBox="0 0 512 512">
                    <path d="M256 8C119 8 8 119 8 256s111 248 248 248 248-111 248-248S393 8 256 8zm96 328a16 16 0 0 1-16 16H176a16 16 0 0 1-16-16V176a16 16 0 0 1 16-16h160a16 16 0 0 1 16 16z,M352 176v160a16 16 0 0 1-16 16H176a16 16 0 0 1-16-16V176a16 16 0 0 1 16-16h160a16 16 0 0 1 16 16z" />
                </svg>
            