
                <svg version="1.0" id="stop" xmlns="http://www.w3.org/2000/svg" width="{{width}}px" height="{{height}}px"
                    viewBox="0 0 448 512">
                    <path d="M400 32H48A48 48 0 0 0 0 80v352a48 48 0 0 0 48 48h352a48 48 0 0 0 48-48V80a48 48 0 0 0-48-48zm-16 352a32 32 0 0 1-32 32H96a32 32 0 0 1-32-32V128a32 32 0 0 1 32-32h256a32 32 0 0 1 32 32z,M64 384V128a32 32 0 0 1 32-32h256a32 32 0 0 1 32 32v256a32 32 0 0 1-32 32H96a32 32 0 0 1-32-32z" />
                </svg>
            