
                <svg version="1.0" id="tachometer-slowest" xmlns="http://www.w3.org/2000/svg" width="{{width}}px" height="{{height}}px"
                    viewBox="0 0 576 512">
                    <path d="M288 32C128.94 32 0 160.94 0 320a286.5 286.5 0 0 0 39.06 144.8c5.61 9.62 16.3 15.2 27.44 15.2h443c11.14 0 21.83-5.58 27.44-15.2A286.5 286.5 0 0 0 576 320c0-159.06-128.94-288-288-288zm55.12 384H232.88a65.78 65.78 0 0 1-6.9-18L92.05 375.67a24 24 0 0 1 7.9-47.34l133.68 22.28A63.77 63.77 0 0 1 343.12 416z,M343.12 416H232.88a65.78 65.78 0 0 1-6.9-18L92.05 375.67a24 24 0 0 1 7.9-47.34l133.68 22.28A63.77 63.77 0 0 1 343.12 416z" />
                </svg>
            