
                <svg version="1.0" id="th-large" xmlns="http://www.w3.org/2000/svg" width="{{width}}px" height="{{height}}px"
                    viewBox="0 0 512 512">
                    <path d="M488 272H296a24 24 0 0 0-24 24v160a24 24 0 0 0 24 24h192a24 24 0 0 0 24-24V296a24 24 0 0 0-24-24zm-272 0H24a24 24 0 0 0-24 24v160a24 24 0 0 0 24 24h192a24 24 0 0 0 24-24V296a24 24 0 0 0-24-24z,M488 32H296a24 24 0 0 0-24 24v160a24 24 0 0 0 24 24h192a24 24 0 0 0 24-24V56a24 24 0 0 0-24-24zm-272 0H24A24 24 0 0 0 0 56v160a24 24 0 0 0 24 24h192a24 24 0 0 0 24-24V56a24 24 0 0 0-24-24z" />
                </svg>
            