
                <svg version="1.0" id="toilet-paper-alt" xmlns="http://www.w3.org/2000/svg" width="{{width}}px" height="{{height}}px"
                    viewBox="0 0 576 512">
                    <path d="M480 0c-53 0-96 86-96 192v172.07c0 53.65-11.88 87.57-24.71 126.05A32 32 0 0 1 328.92 512H16A16 16 0 0 1 .82 490.94C22.19 426.84 32 405.19 32 364.07V192C32 86 75 0 128 0z,M480 0c-53 0-96 86-96 192s43 192 96 192 96-86 96-192S533 0 480 0zm0 256c-17.67 0-32-28.65-32-64s14.33-64 32-64 32 28.65 32 64-14.34 64-32 64z" />
                </svg>
            