
                <svg version="1.0" id="university" xmlns="http://www.w3.org/2000/svg" width="{{width}}px" height="{{height}}px"
                    viewBox="0 0 512 512">
                    <path d="M160,192V384h64V192h64V384h64V192h64V384h36a12,12,0,0,1,12,12v20H48V396a12,12,0,0,1,12-12H96V192Z,M491.06,120.61l-232-88a8,8,0,0,0-6.12,0l-232,88A8,8,0,0,0,16,128v16a8,8,0,0,0,8,8H48v12a12,12,0,0,0,12,12H452a12,12,0,0,0,12-12V152h24a8,8,0,0,0,8-8V128A8,8,0,0,0,491.06,120.61ZM472,432H40a24,24,0,0,0-24,24v16a8,8,0,0,0,8,8H488a8,8,0,0,0,8-8V456A24,24,0,0,0,472,432Z" />
                </svg>
            