
                <svg version="1.0" id="usb-drive" xmlns="http://www.w3.org/2000/svg" width="{{width}}px" height="{{height}}px"
                    viewBox="0 0 640 512">
                    <path d="M624 128H448v256h176a16 16 0 0 0 16-16V144a16 16 0 0 0-16-16zm-40 184a16 16 0 0 1-16 16h-16a16 16 0 0 1-16-16v-16a16 16 0 0 1 16-16h16a16 16 0 0 1 16 16zm0-96a16 16 0 0 1-16 16h-16a16 16 0 0 1-16-16v-16a16 16 0 0 1 16-16h16a16 16 0 0 1 16 16z,M448 112v288a16 16 0 0 1-16 16H64a64 64 0 0 1-64-64V160a64 64 0 0 1 64-64h368a16 16 0 0 1 16 16z" />
                </svg>
            