
                <svg version="1.0" id="vector-square" xmlns="http://www.w3.org/2000/svg" width="{{width}}px" height="{{height}}px"
                    viewBox="0 0 512 512">
                    <path d="M160 480h192v-64H160zM32 352h64V160H32zM160 96h192V32H160zm256 64v192h64V160z,M128 352H32a32 32 0 0 0-32 32v96a32 32 0 0 0 32 32h96a32 32 0 0 0 32-32v-96a32 32 0 0 0-32-32zm-32 96H64v-32h32zm384-96h-96a32 32 0 0 0-32 32v96a32 32 0 0 0 32 32h96a32 32 0 0 0 32-32v-96a32 32 0 0 0-32-32zm-32 96h-32v-32h32zM480 0h-96a32 32 0 0 0-32 32v96a32 32 0 0 0 32 32h96a32 32 0 0 0 32-32V32a32 32 0 0 0-32-32zm-32 96h-32V64h32zM128 0H32A32 32 0 0 0 0 32v96a32 32 0 0 0 32 32h96a32 32 0 0 0 32-32V32a32 32 0 0 0-32-32zM96 96H64V64h32z" />
                </svg>
            