
                <svg version="1.0" id="venus" xmlns="http://www.w3.org/2000/svg" width="{{width}}px" height="{{height}}px"
                    viewBox="0 0 288 512">
                    <path d="M144,256a80,80,0,1,1,80-80A80,80,0,0,1,144,256Z,M288,176A144,144,0,1,0,112,316.4V368H76a12,12,0,0,0-12,12v40a12,12,0,0,0,12,12h36v36a12,12,0,0,0,12,12h40a12,12,0,0,0,12-12V432h36a12,12,0,0,0,12-12V380a12,12,0,0,0-12-12H176V316.4A144,144,0,0,0,288,176ZM144,256a80,80,0,1,1,80-80A80,80,0,0,1,144,256Z" />
                </svg>
            