
                <svg version="1.0" id="video-plus" xmlns="http://www.w3.org/2000/svg" width="{{width}}px" height="{{height}}px"
                    viewBox="0 0 576 512">
                    <path d="M525.6 101.8L416 177.3v157.4l109.6 75.5c21.3 14.6 50.4-.3 50.4-25.8V127.5c0-25.4-29.1-40.4-50.4-25.7zM288 232h-72v-72a16 16 0 0 0-16-16h-16a16 16 0 0 0-16 16v72H96a16 16 0 0 0-16 16v16a16 16 0 0 0 16 16h72v72a16 16 0 0 0 16 16h16a16 16 0 0 0 16-16v-72h72a16 16 0 0 0 16-16v-16a16 16 0 0 0-16-16z,M336.2 64H47.8A47.8 47.8 0 0 0 0 111.8v288.4A47.8 47.8 0 0 0 47.8 448h288.4a47.8 47.8 0 0 0 47.8-47.8V111.8A47.8 47.8 0 0 0 336.2 64zM304 264a16 16 0 0 1-16 16h-72v72a16 16 0 0 1-16 16h-16a16 16 0 0 1-16-16v-72H96a16 16 0 0 1-16-16v-16a16 16 0 0 1 16-16h72v-72a16 16 0 0 1 16-16h16a16 16 0 0 1 16 16v72h72a16 16 0 0 1 16 16z" />
                </svg>
            