
                <svg version="1.0" id="window-restore" xmlns="http://www.w3.org/2000/svg" width="{{width}}px" height="{{height}}px"
                    viewBox="0 0 512 512">
                    <path d="M512 48v288a48 48 0 0 1-48 48h-48V176a80.11 80.11 0 0 0-80-80H128V48a48 48 0 0 1 48-48h288a48 48 0 0 1 48 48z,M336 128H48a48 48 0 0 0-48 48v288a48 48 0 0 0 48 48h288a48 48 0 0 0 48-48V176a48 48 0 0 0-48-48zm-20 128H64v-52a12 12 0 0 1 12-12h228a12 12 0 0 1 12 12z" />
                </svg>
            