<svg version="1.1" xmlns="http://www.w3.org/2000/svg" width="1024" height="1024" viewBox="0 0 11 11">
    <path d="M 0 9.5 A 1 1 0 0 0 3 9.5 A 1 1 0 0 0 0 9.5 M 0 5.5 A 1 1 0 0 0 3 5.5 A 1 1 0 0 0 0 5.5 M 0 1.5 A 1 1 0 0 0 3 1.5 A 1 1 0 0 0 0 1.5 M 4 1.5 A 1 1 0 0 0 7 1.5 A 1 1 0 0 0 4 1.5 M 4 5.5 A 1 1 0 0 0 7 5.5 A 1 1 0 0 0 4 5.5 M 4 9.5 A 1 1 0 0 0 7 9.5 A 1 1 0 0 0 4 9.5 M 8 9.5 A 1 1 0 0 0 11 9.5 A 1 1 0 0 0 8 9.5 M 8 5.5 A 1 1 0 0 0 11 5.5 A 1 1 0 0 0 8 5.5 M 8 1.5 A 1 1 0 0 0 11 1.5 A 1 1 0 0 0 8 1.5" />
</svg>