
                <svg version="1.0" id="alipay" xmlns="http://www.w3.org/2000/svg" width="{{width}}px" height="{{height}}px"
                    viewBox="0 0 448 512">
                    <path d="M377.7,32H70.3C31.4,32,0,63.4,0,102.3v307.5C0,448.6,31.4,480,70.3,480h307.5c38.5,0,69.8-31.1,70.3-69.6 c-46-25.6-110.6-60.3-171.6-88.4c-32.1,44-84.1,81-148.6,81c-70.6,0-93.7-45.3-97-76.4c-4-39,14.9-81.5,99.5-81.5 c35.4,0,79.4,10.2,127.1,25c16.5-30.1,26.5-60.3,26.5-60.3H105.6V193h92.1v-31.2H88.3v-19h109.4V92.3h50.9v50.4h109.4v19H248.6V193 h88.8c0,0-15.2,46.6-38.4,90.9c48.9,16.7,100,36,148.6,52.7V102.3C447.8,63.6,416.4,32,377.7,32z M47.3,323 c1,20.2,10.2,53.7,69.9,53.7c52.1,0,92.6-39.7,117.9-72.9c-44.6-18.7-84.5-31.4-109.4-31.4C58.2,272.4,46.3,305.4,47.3,323z" />
                </svg>
            