
                <svg version="1.0" id="blizzard" xmlns="http://www.w3.org/2000/svg" width="{{width}}px" height="{{height}}px"
                    viewBox="0 0 1112.507 512">
                    <path d="M928.989,0.602c8.473,1.35,14.622-1.875,21.146,0c2.325,0.675,2.849,3.449,5.399,4.349 c4.199,1.35,7.124-0.975,11.923,0c1.145,1.559,2.424,3.015,3.824,4.349c3.674,2.475,11.398,3.599,16.797,6.524 c3.449,1.875,6.374,5.774,9.223,6.524s7.498-1.125,11.398,0c3.899,1.125,3.749,5.174,6.524,6.524c3.899,0.675,8.323-0.9,11.398,0 c3.074,0.9,2.625,3.074,4.874,4.349h15.747c2.474,0,2.025,3.449,3.749,4.349c5.699,1.35,11.623-1.8,17.322,0 c2.699,0.825,7.499,8.548,10.348,10.873c4.071,2.918,7.884,6.179,11.398,9.748c2.649,4.779,4.834,9.801,6.524,14.997 c2.233,7.474,5.515,14.594,9.748,21.146c0,6.674,0,13.197-0.525,20.096c-0.608,6.48-0.783,12.993-0.525,19.496 c1.417,5.372,3.221,10.635,5.399,15.747c1.089,10.26,1.44,20.584,1.05,30.894c1.132,8.869,1.031,17.853-0.3,26.695 c-1.2,4.274-6.224,9.073-7.049,14.097c-0.11,5.793,0.241,11.585,1.05,17.322c-0.213,10.684-4.696,20.838-12.448,28.194 c-1.125,6.224-0.75,13.122-2.175,19.496c-1.558,4.575-2.638,9.3-3.224,14.097c0,5.699,0.75,11.998,1.05,17.921 c1.39,17.686,1.74,35.438,1.05,53.164c-0.45,7.499-3.749,13.947-4.349,20.621c0.205,10.311-0.17,20.625-1.125,30.894 c-0.975,4.799-2.924,9.373-3.824,14.097c-0.9,4.724-1.5,9.973-2.699,14.997c-2.635,8.334-6.421,16.259-11.248,23.545 c-3.224,0-4.349,4.874-7.499,7.049c-7.186,3.251-14.739,5.618-22.495,7.049c-3.674,0.975-7.499,2.025-11.398,3.224 c-3.477,1.659-7.122,2.941-10.873,3.824c-4.124,0-7.499-4.049-10.873-4.874c-10.151,5.943-22.098,8.045-33.668,5.924 c0-2.4,2.325-4.649,3.824-6.524c10.741-13.872,12.439-32.722,4.349-48.29c5.849-3.899,14.997-4.799,18.446-10.873 c0-2.849-4.049-1.35-4.349-3.824c-2.549-7.498-5.849-14.997-9.223-22.495c-1.325-2.227-2.406-4.59-3.224-7.049 c0.005-6.185,0.557-12.358,1.65-18.446c1.8-17.247,3.974-36.743,5.999-54.214c-4.28-6.323-7.922-13.054-10.873-20.096 c-3.551-7.395-6.074-15.241-7.498-23.32c-0.375-3.674,1.275-8.023,0.525-11.923c-0.45-2.549-3.674-4.949-4.349-7.499 c-0.592-4.976-0.768-9.992-0.525-14.997c-0.622-7.486-0.622-15.01,0-22.495c0.375-2.175-2.699-2.849-3.224-4.874 c-1.65-5.999,2.25-17.097,1.65-26.02c-0.375-5.849-3.149-11.248-3.824-16.272c-0.74-13.362-0.74-26.755,0-40.117v-19.721 c-0.615-6.484-0.615-13.012,0-19.496c0.75-2.549,2.699-2.325,3.824-4.874c1.725-11.323-2.4-20.396,0-29.244 c0.6-2.4,3.674-3.674,4.349-5.999c0.93-6.666,0.93-13.43,0-20.096c-0.675-2.624-5.624-6.974-8.698-9.748 c-9.823-9.073-19.646-17.696-28.194-27.07C929.619,1.953,929.157,1.329,928.989,0.602z M1006.448,118.329 c-1.435,8.06-1.435,16.31,0,24.37c0,8.623,0,18.746,0.525,28.194c-0.302,9.401-0.126,18.811,0.525,28.194 c0.45,2.774,2.549,5.399,3.224,8.098c1.095,7.16,2.725,14.229,4.874,21.146c0.975,2.1,2.549,3.299,3.224,5.399 c0,63.437-0.975,125.225-0.525,188.737c5.414-5.521,9.829-11.94,13.047-18.971c1.829-4.007,3.284-8.174,4.349-12.448 c1.2-4.949,0.675-9.598,1.65-14.997c1.65-9.148,9.373-17.322,10.873-26.545c0.611-8.663,0.611-17.357,0-26.02 c0-17.921,0.6-33.668,1.65-50.465c-0.244-8.181,0.486-16.362,2.175-24.37c1.275-3.749,5.474-6.374,7.049-10.273 c1.575-3.899,1.875-12.223,3.824-17.921c1.5-4.424,4.799-7.499,5.399-10.873c0.449-6.141,0.449-12.306,0-18.446 c0.486-6.139,0.486-12.307,0-18.446c-0.45-2.025-2.325-3.299-3.224-5.399c-2.774-6.374-3.224-16.572-5.399-21.146 c-4.124-8.548-15.822-9.673-14.997-20.621c-6.674,1.2-8.698-6.599-14.097-8.098c-6.899-1.95-13.872,0.375-23.32-0.525 C1006.448,116.754,1006.448,117.504,1006.448,118.329z M889.397,190.464c0.45,4.424,1.35,10.123-1.65,12.447 c8.023-2.701,16.883-0.338,22.495,5.999c1.275,1.2,2.549,3.599,4.349,5.399s4.199,2.774,4.874,4.349c1.2,2.699,0,6.599,1.05,8.698 c1.05,2.1,5.774,2.549,8.098,4.349c1.35,5.924,2.025,12.448,3.824,18.971c0.45,1.8,1.8,3.599,2.174,5.399 c2.325,11.098,0,23.62,1.575,34.718c0.825,5.399,3.524,9.973,3.824,14.997c1.425,2.849,4.499-1.575,5.399,1.05 c3.599,19.271,10.198,42.217,4.874,62.387c0.375,2.475,4.574,1.275,5.399,3.224c2.354,4.468,4.166,9.2,5.399,14.097 c0,1.875-2.025,3.974-2.174,5.924c0.385,3.102,0.936,6.18,1.65,9.223c0.191,4.156,0.015,8.322-0.525,12.447 c-0.805,3.758-1.356,7.566-1.65,11.398c0,2.475,1.95,4.799,2.175,7.049c-0.411,5.535-1.493,10.999-3.224,16.272 c-2.999,15.972-5.474,32.768-9.223,47.69c-6.149-2.774-11.773-3.224-16.797-5.999c-4.913-3.509-9.46-7.503-13.572-11.923 c-8.355-9.311-20.606-14.145-33.068-13.047c0.181-7.797,2.021-15.466,5.399-22.496c2.474-6.899,5.024-13.947,7.049-21.671 c3.423-17.857,4.332-36.105,2.699-54.214c-1.079-11.703-3.034-23.308-5.849-34.718c-1.865-10.763-5.354-21.179-10.348-30.894 c-1.25-2.462-3.357-4.382-5.924-5.399c0-11.023,5.474-19.946,3.749-29.994c-1.168-3.623-2.807-7.077-4.874-10.273 c-4.81-9.682-11.224-18.48-18.971-26.02c0.582,6.457-0.944,12.929-4.349,18.446c-1.82,3.071-3.28,6.342-4.349,9.748 c-0.248,8.901,0.481,17.803,2.175,26.545c1.65,17.471,3.374,34.118,5.399,52.04c1.791,8.38,2.695,16.926,2.699,25.495 c0,2.475-2.325,4.124-2.699,6.524c0.975,3.599,3.299,5.099,3.824,9.748c1.131,10.279,0.955,20.659-0.525,30.894 c-1.056,2.849-1.957,5.752-2.699,8.698c0.284,7.114,1.187,14.189,2.699,21.146c0.375,3.449,0.75,7.498,1.05,10.873 c0.675,7.498,1.8,14.022-3.824,16.797c0.916,12.947-0.377,25.955-3.824,38.467c-3.074-3.149-3.224-7.499-4.874-11.398 c-8.031-17.571-20.326-32.856-35.768-44.466c-6.781-3.571-12.854-8.348-17.921-14.097c4.576-17.129,10.211-33.958,16.872-50.39 c1.425-2.999,4.274-5.624,4.874-8.698c1.463-6.529-0.357-13.361-4.874-18.296v-54.739c0-18.821,1.5-37.492,0-54.739 c0-3.974-1.95-7.499-2.699-11.923c-0.75-4.424,0-9.448-1.05-13.572c-1.05-4.124-3.674-6.749-4.349-10.273 c-0.675-3.524,0.375-7.948,0-11.923c-0.375-3.974-2.549-9.823-3.224-14.997c-0.45-2.999,0-5.999-0.525-8.698 s-2.25-5.324-2.699-8.173c-0.45-2.849,0-5.024-0.525-7.498s-0.9-4.724-1.125-7.049c0.382-5.968,0.382-11.954,0-17.921 c-0.75-3.374-4.949-5.099-4.349-9.748c-0.6-1.875-3.074-1.95-3.824-3.749c-0.819-12.634-0.819-25.308,0-37.942 c12.822-10.498,27.744-18.896,37.492-32.543c-3.601-1.786-7.439-3.049-11.398-3.749c-2.1,0-3.149,2.549-5.399,3.224 c-2.449,0.712-5.05,0.712-7.499,0c-4.724-17.172-19.121-24.595-31.494-34.193c-2.731-0.349-5.436-0.875-8.098-1.575 c-1.95-0.525-6.374,0-5.924-3.224s4.949-1.575,7.498-1.65c4.499,0,8.848,0,13.047-0.525c11.773-0.825,25.57,0.9,35.768-0.525 c3.974-0.6,7.124-3.224,10.873-3.224c3.396,0.109,6.574,1.698,8.698,4.349c5.699,0.75,12.597-0.975,18.971,0 c5.726,1.377,11.341,3.182,16.797,5.399c5.271,2.232,10.712,4.038,16.272,5.399c4.124,0.6,8.248,0,11.923,0.525 c11.998,2.924,17.022,13.647,26.545,17.921c4.049,10.498,10.123,21.371,14.997,32.019c4.272,7.59,6.154,16.293,5.399,24.97 c0.045,3.632-0.131,7.262-0.525,10.873c-0.75,3.974-3.674,6.899-4.349,10.873c-0.9,5.849,0.675,11.323,0,17.322 c-2.197,10.898-6.283,21.328-12.072,30.819C917.967,181.032,904.455,189.83,889.397,190.464z M850.33,65.164 c0.525,36.143-0.75,74.985,0,110.078c0,1.875-0.975,5.024,1.05,6.524c4.359,0.916,8.891,0.551,13.047-1.05 c12.373-4.649,13.872-14.997,18.446-28.194c1.257-2.427,2.359-4.932,3.299-7.499c0.6-3.899-0.45-7.498,0.525-11.398 c0.675-2.549,3.299-5.474,3.824-8.173c1.147-7.527,0.583-15.216-1.65-22.495c-4.131-8.222-9.435-15.8-15.747-22.495 c-6.374-7.498-14.022-16.272-21.671-16.797C850.775,63.84,850.307,64.463,850.33,65.164z M232.678,12.525 c3.224,2.924,5.099,7.498,9.223,9.223c2.374-0.432,4.787-0.608,7.199-0.525c6.374,7.498,12.522,14.622,19.571,21.146v19.496 c0.643,6.307,0.643,12.664,0,18.971c-0.75,2.624-4.199,4.199-4.349,6.524c0,5.399,6.449,6.749,8.173,9.748 c-0.975,5.474,1.275,12.597,0,17.397c-0.825,2.924-3.224,2.849-3.749,5.399v62.612c-0.82,6.849-0.82,13.772,0,20.621 c0.975,3.149,6.374,5.174,7.499,7.499c1.348,4.402,2.08,8.97,2.175,13.572c0.688,20.6,0.337,41.222-1.05,61.788 c0.089,4.175-0.263,8.347-1.05,12.448c-0.75,2.175-3.299,3.674-3.824,5.399c-2.4,8.398,1.8,19.421,0,27.145 c0,2.475,3.449,1.95,3.824,4.349c0.845,7.75,0.845,15.57,0,23.32c-1.575,2.4-3.899,2.1-5.399,4.349 c-1.15,1.792-1.892,3.814-2.175,5.924c0,3.899,5.399,5.624,3.749,13.047c-0.525,2.25-1.425,2.849-3.749,5.399 c-1.2,5.174,1.5,11.098,0,16.797c-0.525,2.1-3.674,3.824-4.349,5.999c-1.95,6.524,1.875,17.471,0,24.97 c-0.6,2.475-3.599,3.824-3.749,7.049c-0.15,3.224,5.474,7.498,3.749,13.047c4.874,0,9.823,0.9,14.997,1.05 c4.989,0.737,10.071,0.559,14.997-0.525c2.549-0.975,2.999-3.749,4.874-5.399c2.522-2.221,5.487-3.883,8.698-4.874 c5.121-0.016,10.203,0.899,14.997,2.699c9.898,2.699,25.495,5.774,35.768,0c2.475-1.425,2.774-3.599,5.924-4.874 c8.164-2.018,16.563-2.926,24.97-2.699c35.468-1.575,76.935,0,113.377,0.525v25.495c-0.654,8.311-0.654,16.659,0,24.97 c1.35,7.499,7.499,12.298,9.223,17.921h-41.242c-4.512,0.46-9.06,0.46-13.572,0c-2.475-0.75-2.849-3.149-4.874-4.349 c-7.499,0.375-13.872,0.525-16.272-4.349c-6.374,1.125-7.499-2.624-11.398-4.349h-20.246c-12.073,0-23.02,1.875-26.545-5.399 c-33.143-0.825-66.962-1.05-100.855-1.125c-7.222-6.033-16.805-8.436-26.02-6.524c-3.995,1.722-7.671,4.105-10.873,7.049 c-3.749,2.699-7.498,5.249-10.273,7.499c-2.774,2.25-4.499,5.924-6.524,7.499c-10.798-1.875-27.37-4.799-36.893,0 c-2.924-1.05-3.224-4.649-6.524-5.399c1.35-3.524,4.649-5.099,4.874-9.748c9.471-4.453,18.098-10.517,25.495-17.921 c0.9-5.399-1.2-12.373,0-16.797c0.9-3.299,3.599-3.299,4.349-5.999c0.75-2.699-3.824-3.074-4.349-5.924 c1.725-11.473-2.4-21.371,0-30.369c0.675-2.325,3.674-3.749,4.349-5.924c1.2-4.124-1.125-8.098,0-11.923 c0.675-2.4,2.924-2.699,3.824-4.874c1.2-8.773-4.574-10.573-8.173-14.997v-52.864c0.825-2.1,3.749-2.025,4.349-4.349 c-0.6-7.499-2.774-20.696,0-28.194c0.975-2.624,2.774-3.299,3.824-5.399v-20.621c-0.667-6.857-0.667-13.763,0-20.621 c1.05-4.499,5.474-6.899,5.399-11.398c-0.075-4.499-3.674-7.124-5.399-9.748v-43.866c0.476-4.988,0.476-10.009,0-14.997 c-0.675-2.699-2.624-3.224-3.824-5.474v-15.747c-0.594-5.232-0.594-10.515,0-15.747c1.35-4.424,6.824-4.874,8.098-8.698 c-0.525-10.198,4.424-29.319-4.874-32.019c3.737-5.762,6.287-12.211,7.499-18.971c-0.311-8.994-2.89-17.764-7.499-25.495 c-3.534-0.848-7.165-1.226-10.798-1.125c-2.845-6.476-7.345-12.088-13.047-16.272c-2.894-1.922-5.605-4.105-8.098-6.524 c0-1.35,4.349-4.574,4.874-8.098c0-0.75,0-1.575,0.525-1.65h5.999c2.549,0,1.95,3.824,4.349,4.349L232.678,12.525z M739.727,512 c-0.675-9.748,0.975-17.322,0-24.97c-1.452-6.655-3.459-13.176-5.999-19.496c-0.975-3.149-2.175-6.374-3.224-9.748 c-1.13-3.181-2.033-6.439-2.699-9.748c0.242-4.696,0.242-9.401,0-14.097c-1.725-7.499-14.322-14.097-17.921-22.495 c-1.493-3.029-2.239-6.372-2.175-9.748c0.45-3.149,7.499-10.573,9.223-13.572c6.341-9.14,11.107-19.279,14.097-29.994 c2.212-6.249,3.131-12.882,2.699-19.496c-0.9-4.049-7.499-7.499-11.398-10.273c-9.598-6.299-18.146-10.198-27.669-15.747 c-4.298-3.924-9.927-6.069-15.747-5.999c3.219,9.96,4.318,20.484,3.224,30.894c1.95,1.8,4.649,3.374,7.049,5.399 c2.227,1.954,4.582,3.758,7.049,5.399c-1.275,5.624-5.624,8.098-7.049,13.572c-10.832-0.729-21.694-0.904-32.543-0.525 c-7.448,1.796-14.706,4.307-21.671,7.499c-7.498,2.699-14.997,5.024-21.671,7.499c-4.874-2.549-3.449-11.398-7.498-14.997 c2.165-3.547,4.518-6.976,7.049-10.273c2.699-3.074,6.974-5.174,8.173-8.698c1.2-3.524,0-6.824,1.05-9.748 c2.25-7.498,7.498-10.198,14.997-14.997c0-2.924-5.174-2.924-3.824-5.399c-0.75-7.499,3.224-14.997,3.224-23.32 c0-5.474-2.474-9.973-1.65-14.997c1.029-3.278,3.111-6.125,5.924-8.098c0.9-5.399-1.2-11.323,0-15.747 c0.825-3.074,4.199-3.599,4.349-6.524c-1.575-2.699-3.599-2.624-4.349-5.399c-0.75-2.774,1.05-7.948,1.05-10.873 c0-7.498-2.1-13.047,0.525-18.971c1.575-3.524,4.724-6.224,6.524-9.748c3.081-7.396,4.735-15.309,4.874-23.32 c1.35-2.1,4.049-4.049,4.874-5.924c1.99-8.73,3.269-17.608,3.824-26.545c1.46-7.889,4.195-15.487,8.098-22.495 c1.8-3.149,5.024-5.774,5.399-8.173c0.675-3.974-1.725-7.049-1.125-10.273c0.6-3.224,3.149-4.724,5.399-6.524 c2.664-9.572,6.308-18.844,10.873-27.669c1.5-2.549,4.724-4.574,5.399-7.049c1.35-4.949-1.2-10.048,0-14.997 c1.601-3.442,3.811-6.567,6.524-9.223c2.1-1.8,5.099-1.875,6.524-3.824c1.5-8.923-0.675-29.994,14.097-23.32 c7.498,3.299,6.524,13.797,8.698,22.495c1.588,4.783,3.781,9.344,6.524,13.572c2.475,4.499,7.499,8.623,8.098,11.923 c0.381,4.691,0.381,9.406,0,14.097c1.2,15.522,9.823,31.794,14.997,46.641c2.624,8.248,4.049,16.722,5.924,24.37 c0.975,3.899,2.25,7.499,3.224,11.923c0.595,4.209,1.497,8.37,2.699,12.447c1.05,2.475,4.049,3.974,4.874,5.999 c0.75,5.624-0.975,10.648,0,14.997c0.525,2.475,3.749,4.424,4.349,7.049c0.6,2.624-1.05,4.274-0.525,5.999 c0.525,1.725,3.749,3.374,4.349,5.399c-0.6,5.924,0.825,13.797,0,20.621c0,1.65-0.975,3.374-1.05,4.874 c0.128,11.299,1.409,22.555,3.824,33.593c1.379,7.433,2.281,14.947,2.699,22.496c0.975,22.046,0.9,49.19,0,68.836 c0.07,5.022-0.306,10.041-1.125,14.997c-0.9,3.374-3.824,7.499-5.399,11.923c-4.274,11.848-7.498,26.545-14.997,35.768 c-1.05,7.499,1.425,14.547,0,21.146c-0.525,2.549-2.924,4.799-3.824,7.049c-2.999,7.499-3.224,16.722-8.098,22.495 c-0.825,4.124,1.125,8.323,0,12.448c-0.525,1.875-3.224,3.449-3.749,5.399c-1.575,5.324,1.35,11.248,0,16.272 c-0.75,2.624-3.899,4.574-5.999,5.924C745.051,511.475,743.251,510.125,739.727,512z M707.183,190.989 c-4.199,4.574-5.024,12.373-9.223,15.747c-0.675,0.525-2.849,0.75-2.699,2.699c-1.125,4.724,0,9.148-1.05,14.097 c-1.05,4.949-2.699,8.023-3.224,11.923c-1.725,12.223,2.4,23.62,0,36.368c10.744-1.496,21.672,0.812,30.894,6.524 c4.904,3.831,10.67,6.406,16.797,7.499c0.6-15.747,1.275-34.568,0.525-50.99c0.175-3.072,0.175-6.151,0-9.223 c0-1.5-1.65-3.824-2.175-5.924c-2.399-9.673-1.125-22.495-7.049-26.545s-10.423-1.95-14.097-4.874s-4.349-7.499-8.098-13.572 C708.083,180.641,706.508,184.99,707.183,190.989z M680.114,19.049c1.05,4.124-1.95,7.498-3.224,10.273 c-2.891,9.355-7.521,18.081-13.647,25.72c1.369,6.812,0.419,13.887-2.699,20.096c-2.475,4.049-8.398,6.749-9.223,10.273 c-0.825,3.524,0.9,6.749,0.525,9.748c-0.75,6.299-4.724,7.498-8.698,11.923c-1.063,12.099-3.247,24.073-6.524,35.768 c-2.277,3.835-3.994,7.976-5.099,12.298c0.051,2.183,0.226,4.361,0.525,6.524c0,6.899-0.75,14.172-1.05,21.146 c0.485,5.6,0.309,11.238-0.525,16.797c-0.6,1.875-2.399,3.074-3.224,4.874c-2,6.043-3.628,12.204-4.874,18.446 c-1.305,5.739-3.866,11.117-7.498,15.747v14.097c-2.699,6.749-10.498,9.673-11.923,16.797c-0.683,7.483-0.683,15.013,0,22.495 c0.486,7.491,0.486,15.005,0,22.496c-1.505,5.934-3.511,11.728-5.999,17.322c-2.382,5.634-4.386,11.421-5.999,17.322 c-1.05,7.499,0.6,14.022,0,20.096c-1.275,13.947-8.248,23.17-14.997,34.193c0,10.348-5.849,17.247-6.524,24.97 c3.524,3.149,3.299-3.449,6.524-3.824c5.999,4.649,14.547,0,22.495,0.525c2.924-4.424,1.575-9.598,4.349-13.572 c4.274-6.224,13.347-6.899,20.621-9.748c3.524-1.425,7.498-4.799,12.448-7.049c10.798-5.024,20.921-8.098,24.97-19.571 c3.449,1.35,3.224,4.499,6.524,5.399c5.249,1.575,13.347-1.65,18.446,0c3.899,2.668,6.592,6.762,7.498,11.398 c0,2.624-3.149,5.549-3.824,8.698c-0.397,2.484-0.397,5.015,0,7.499c0.525,3.074,3.074,5.024,3.824,8.698 c0.504,6.314,0.504,12.658,0,18.971c0.628,6.133,0.628,12.314,0,18.446c-0.75,2.699-5.699,5.099-4.349,8.698h-59.988 c-2.475-0.45-1.875-3.899-4.349-4.349c-6.749,0-12.597-3.149-17.921-2.175c-5.324,0.975-9.748,8.623-14.997,9.748 c-12.597,1.575-23.545-0.75-34.718,1.05c-8.098,1.35-14.997,8.248-23.845,7.499c-4.274-3.899-4.199-8.398-3.824-17.322 c-0.334-4.993-0.334-10.004,0-14.997c0.9-3.374,4.874-5.024,5.399-7.499c0.565-3.256,0.334-6.601-0.675-9.748 c1.725-3.599,7.049-4.124,8.698-8.698c1.031-4.314,0.849-8.83-0.525-13.047c1.5-2.774,4.724-3.374,5.399-6.524 c0.675-3.149-1.35-6.899-1.05-10.273c0.3-3.374,2.849-6.149,3.824-9.223c1.116-4.08,1.671-8.293,1.65-12.522 c0.253-6.194-0.302-12.395-1.65-18.446c-0.75-2.699-3.374-5.099-4.349-7.499c-3.327-10.866-4.423-22.293-3.224-33.593 c-0.06-11.476,1.02-22.93,3.224-34.193c1.69-5.523,3.668-10.954,5.924-16.272c5.774-14.997,12.672-31.869,17.921-47.166 c0-3.074-3.449-3.374-3.824-7.498c-0.375-4.124,3.749-7.499,5.399-11.923c0.731-3.931,1.082-7.924,1.05-11.923 c1.461-4.223,3.479-8.232,5.999-11.923c2.891-4.587,4.9-9.673,5.924-14.997c0.525-4.049-0.675-8.473,0-13.047 c1.298-5.24,3.291-10.284,5.924-14.997c4.715-11.66,10.726-22.753,17.921-33.068c1.8-2.325,3.899-3.599,4.349-5.399 c1.125-4.199-0.675-8.248,0-11.398c0.675-3.149,2.924-3.224,3.824-6.524c-5.549-5.699-14.997,0-22.495-2.175 c-3.449-1.2-4.049-5.549-6.524-6.524c-3.193-0.86-6.556-0.86-9.748,0c-2.979,0.356-5.902,1.086-8.698,2.175 c-6.374,3.524-10.123,20.621-11.923,29.994c-2.175,11.173-3.149,27.22-10.273,30.894c-5.324,2.774-9.973-1.125-11.398,5.924 c-2.751-1.868-5.268-4.058-7.498-6.524c1.046-2.81,1.775-5.727,2.175-8.698c0-4.349-2.475-8.773-2.175-12.522 c0.3-3.749,5.024-6.374,5.999-9.748c0.599-6.134,0.599-12.312,0-18.446V14.7c0.447-0.507,1.015-0.893,1.65-1.125h135.873 c2.1,0.825,2.624,3.149,3.824,4.874C676.514,17.924,679.364,17.549,680.114,19.049z M145.921,176.892 c2.387,3.247,5.836,5.555,9.748,6.524c3.374,1.2,10.573,1.35,12.448,3.824c5.699,7.499-6.524,14.997-2.699,20.621 c1.875,2.624,1.95-0.45,4.349,0.525c4.799,3.899,6.974,10.423,11.923,14.097c-2.549,13.347-6.899,34.343-0.525,46.641 c2.4,4.574,6.599,5.474,8.698,9.748c-5.924,23.245,6.524,56.389-1.65,75.96c-1.125,2.699-4.424,5.399-4.874,8.173 c0.023,4.202,0.577,8.384,1.65,12.448c1.894,8.619,1.533,17.581-1.05,26.02c-1.156,4.075-2.61,8.06-4.349,11.923 c-4.562,6.797-8.719,13.858-12.448,21.146c-2.773,9.185-4.582,18.634-5.399,28.194c-11.363,4.864-22.111,11.056-32.019,18.446 c-5.718,3.383-10.409,8.255-13.572,14.097c-11.098,1.95-23.695,2.4-30.894,8.098c-4.124,0-4.949-5.699-9.223-5.999 s-6.074,5.699-9.748,7.049c-3.724,0.923-7.567,1.277-11.398,1.05c-7.811-0.235-15.588-1.138-23.245-2.699 c-4.199,2.699-9.823,0-15.747,0c-1.096-0.121-2.203-0.121-3.299,0c-0.75,0-1.65,1.575-1.65,1.65 c-2.175-0.375-7.498-6.824-8.098-7.499c5.332-1.77,10.382-4.295,14.997-7.499c2.475-12.073,7.498-23.095,8.698-35.243 c0.525-4.949,0-10.123,0-14.997c0.45-10.723,1.575-21.821,1.65-32.543c0-19.196-3.749-38.392-4.874-58.038 c-1.425-25.645,2.025-51.215,1.05-77.534c0.825-2.4,4.874-1.575,5.999-3.824c-0.75-6.824,0.675-13.272-0.525-20.096 c-0.45-2.549-2.774-4.499-3.299-7.049c-0.544-7.223-0.369-14.482,0.525-21.671c0-3.149-0.45-6.524,0-9.223s3.599-5.699,4.349-9.223 c1.571-7.257-0.22-14.835-4.874-20.621v-76.26c-0.89-8.3-0.89-16.67,0-24.97c0.825-2.924,2.774-2.849,4.349-5.399 c-1.2-4.499,0.75-8.098-1.05-10.273c-1.8-2.175-4.424,0-9.223-1.05c-1.65-0.975-0.75-2.924-1.65-4.349 c-2.999-4.949-10.048-8.323-14.097-13.047C3.384,41.746,1.757,39.568,0,37.495c1.2-3.374,0-6.974,0.525-9.748 s3.824-4.499,4.874-6.524c5.774-0.6,12.972,0.825,19.496,0c3.899-0.525,7.498-2.1,11.398-2.699c22.42-3.824,50.84-0.975,76.56-3.224 c9.056-0.92,18.196-0.541,27.145,1.125c2.25,1.05,1.95,3.599,3.224,5.399c2.549,2.61,5.364,4.947,8.398,6.974 c14.172-0.975,20.321,9.073,25.495,18.446c4.257,7.332,7.01,15.438,8.098,23.845c0.525,5.549,0,11.998,1.05,18.446 c1.682,7.387,1.861,15.038,0.525,22.495c-1.34,3.05-2.972,5.963-4.874,8.698C171.716,139.55,160.093,164.22,145.921,176.892z M96.581,78.212c-0.6,2.1-3.374,2.025-3.749,4.349v75.36c3.047-0.86,6.294-0.675,9.223,0.525c4.649-3.224,5.174-9.523,8.098-14.097 c4.199-6.126,11.027-9.929,18.446-10.273c0.375-12.073-1.575-26.545,3.824-33.593c-2.402-4.642-3.71-9.772-3.824-14.997 c1.425-2.175,4.349-2.924,5.999-4.874c-4.799-1.725-6.524,0-10.873-1.65c-4.349-1.65-4.799-6.749-7.498-7.498 c-5.774-1.725-11.848,3.449-18.446,1.65c0-0.75,2.4-2.849,0-2.699C96.966,72.932,96.561,75.565,96.581,78.212z M92.831,247.378 c-0.375,1.725-1.8,2.774-2.175,4.349c-2.325,8.998,2.4,17.247,2.175,25.495c0,6.524-3.974,12.897-3.824,19.496 c-2.774,1.05-4.499,2.624-4.349,5.399c0.15,2.774,3.149,3.299,4.349,5.399v74.31c-3.143,2.7-5.107,6.521-5.474,10.648 c-0.673,10.662-0.673,21.356,0,32.019c-0.064,5.043,0.464,10.077,1.575,14.997c-2.475,4.349-4.874,8.848-7.049,13.572 c12.223,0.675,13.647-9.523,23.32-11.398c5.011-4.696,9.72-9.705,14.097-14.997c1.759-1.485,3.39-3.115,4.874-4.874 c4.949-8.173,1.2-20.771,3.824-32.543c5.185-11.855,8.134-24.566,8.698-37.492c0-2.4-2.849-1.875-3.224-3.824 c5.324-2.924,2.25-8.698,0.525-13.572c-2.368-4.621-3.307-9.841-2.699-14.997c0-1.65,3.599-3.824,4.349-7.049 c1.875-8.323-3.749-10.498-5.399-14.997c-3.599-9.823,2.325-16.722,3.224-26.02c0-1.95-2.325-2.025-2.699-3.824 c5.024-5.924-2.325-14.022-3.749-16.797c1.125,0,3.524,0.675,3.749-0.525c-1.668-1.827-2.786-4.089-3.224-6.524 c0-2.25,2.175-2.175,1.65-4.874c-3.027-5.137-7.31-9.421-12.448-12.448c-7.108-5.47-13.8-11.46-20.021-17.921 c-0.675,14.097,2.4,27.145-0.15,38.992H92.831z M387.747,18.524c40.042-1.65,80.834,0.525,121.476,0 c1.125,6.749-1.425,14.997,0,22.495c0.525,2.624,3.299,5.324,3.824,7.498c0.554,6.312,0.554,12.66,0,18.971v55.339 c-1.05,2.25-3.224,3.449-4.349,6.524c-1.737,6.233-1.554,12.844,0.525,18.971c-13.272,12.223-16.047,34.943-25.495,50.99v18.446 c-11.773,5.399-26.245,12.672-20.096,33.593c-0.9,2.325-4.049,2.999-5.999,4.874c-7.121,9.066-12.787,19.185-16.797,29.994 c-2.325,5.174-4.424,11.098-6.524,16.797c-2.541,5.564-4.526,11.366-5.924,17.322c-0.45,3.224,0.6,6.974,0,10.273 c-1.674,5.113-3.652,10.121-5.924,14.997c-4.649,13.122-8.923,26.095-14.997,38.542c-0.975,2.1-2.849,4.649-2.175,7.049 c4.724,4.049,9.973,0,14.097-2.175c3.925-2.623,8.124-4.811,12.522-6.524c3.599-0.75,6.599,0,9.748-1.05 c2.852-0.354,5.605-1.272,8.098-2.699c3.37-3.475,6.11-7.509,8.098-11.923c6.149-9.598,13.497-20.471,27.145-22.495 c0.987-6.881,4.018-13.307,8.698-18.446c1.875,1.05,1.875,3.899,3.824,4.874c9.373-2.175,8.773-14.172,14.022-20.771h11.923 c-1.117,8.556-0.375,17.252,2.175,25.495c-1.2,2.175-3.824,1.8-5.399,3.824c-0.6,0.825-1.2,3.524-2.175,5.399 c-1.497,2.133-2.59,4.522-3.224,7.049c-2.1,15.972,1.275,41.842,1.05,58.563c-6.712,0.518-12.955,3.64-17.396,8.698h-44.541 c-2.699-0.375-2.175-4.049-4.349-4.874c-3.449,1.275-5.024,0-7.499,0.525c-5.324,1.5-6.599,8.023-10.873,8.698 c-5.774,0.825-10.573-4.049-15.747-6.524h-29.994c-2.175-2.325-5.399-4.424-5.399-7.499c0-3.074,3.899-5.549,5.999-8.173 c1.425-8.773-1.95-17.172,0-24.37c0.6-2.325,3.449-3.824,3.824-5.924c0.975-5.849-5.324-13.872-8.698-16.797 c2.144-2.434,3.48-5.473,3.824-8.698c0-3.224-2.699-5.924-3.299-8.698c-0.824-8.966-0.037-18.006,2.325-26.695 c0.9-5.174,1.2-11.023,2.175-14.997c0.6-2.25,2.549-4.349,3.224-6.524c1.95-6.074,1.35-12.672,3.224-17.921 c3.449-9.523,11.173-15.747,15.747-22.496c2.086-12.919,8.14-24.869,17.322-34.193c2.271-13.173,5.53-26.157,9.748-38.842 c2.036-8.059,7.523-14.809,14.997-18.446c2.999-9.598,10.348-14.997,16.272-21.671c-2.853-8.079-2.853-16.891,0-24.97 c1.5-2.774,4.424-4.049,6.524-6.524c7.499-8.998,13.422-21.521,21.671-28.194v-26.32c-8.098,0-15.897,0-23.845-0.525 c-6.303-0.73-12.669-0.73-18.971,0c-3.781,1.465-7.42,3.272-10.873,5.399c-9.864,4.716-15.669,15.152-14.472,26.02 c-6.633,0.13-12.753,3.598-16.272,9.223c-1.35,11.848,1.875,24.22,0,34.718c-0.818,3.105-2.163,6.047-3.974,8.698 c-1.354,2.792-3.181,5.329-5.399,7.498c-3.981-2.532-5.765-7.422-4.349-11.923c-0.675-2.624-3.374-3.149-4.349-5.399 c-0.666-6.973-1.945-13.873-3.824-20.621c1.875-7.498,5.774-18.521,2.699-26.545c-1.575-4.124-4.499-5.174-7.049-8.173 c1.575-11.923-2.1-25.57,0-36.293c0.825-4.424,5.249-7.124,4.349-11.398C388.422,18.974,388.197,18.674,387.747,18.524z M282.543,19.049c25.403,3.06,51.082,3.06,76.485,0c5.436,3.237,8.256,9.537,7.049,15.747c-8.173,2.624-22.495,10.123-21.671,21.146 c0,3.974,4.574,6.449,4.349,11.398s-4.874,6.224-5.999,10.348c-0.619,7.496-0.443,15.037,0.525,22.495 c1.05,24.67,2.025,52.489,0.525,78.134c0,4.574-1.35,9.073-1.05,12.448c0.455,1.655,1.006,3.283,1.65,4.874 c1.575,6.899,2.924,13.572,4.349,20.621c-3.224,3.599-6.824,5.174-7.499,10.873c-0.21,9.801,0.342,19.604,1.65,29.319 c0,2.924,0,5.774,0.525,8.098c0.525,2.325,1.425,3.599,1.65,5.399c0.621,4.695,0.444,9.461-0.525,14.097 c-1.2,3.299-6.824,6.299-7.499,9.748c-0.055,4.48,0.629,8.939,2.025,13.197c0.975,4.574,0.975,9.373,1.65,13.572 c0.633,2.781,1.537,5.494,2.699,8.098c1.256,2.417,2.334,4.924,3.224,7.499c0.091,5.023-0.285,10.044-1.125,14.997 c0.23,4.724-0.123,9.459-1.05,14.097c-0.975,2.549-5.549,5.174-5.924,8.173c0.225,6.014,1.706,11.915,4.349,17.322 c2.549,4.124,8.473,5.849,13.047,8.698c4.574,2.849,9.298,6.449,12.448,8.698c0.825,4.799,1.125,10.048,2.175,14.997 c-5.099-1.95-14.997-3.749-19.496,0c-9.353-2.546-19.136-3.108-28.719-1.65c-5.868-0.017-11.714,0.714-17.397,2.175 c-4.199,1.65-7.124,7.499-10.273,7.499c-4.574,0-7.499-5.399-9.223-7.049c5.999-7.499,10.573-15.822,19.496-20.096 c1.979-13.454,2.882-27.044,2.699-40.642c-0.236-4.531-0.06-9.073,0.525-13.572c0.75-2.774,3.449-3.824,3.824-6.524 c0.525-4.124-2.924-6.749-3.824-11.398c-0.718-4.809-0.411-9.715,0.9-14.397c0.75-2.549,3.224-4.724,3.824-7.499 c0.609-8.663,0.609-17.357,0-26.02c0-40.867-1.05-84.058-1.05-123.125c-0.683-6.681-0.683-13.415,0-20.096 c0.75-2.549,1.2-2.325,3.824-4.349c0-2.25-3.374-1.35-3.824-3.224c-1.5-22.495-3.149-51.815-4.349-77.01 c0.058-3.458-0.32-6.909-1.125-10.273c-2.699-7.498-14.022-3.824-16.797-11.398c-1.817,0.182-3.651,0.004-5.399-0.525 c-2.173-2.52-4.529-4.876-7.049-7.049C278.601,24.078,280.416,21.432,282.543,19.049z" />
                </svg>
            