
                <svg version="1.0" id="burgundy" xmlns="http://www.w3.org/2000/svg" width="{{width}}px" height="{{height}}px"
                    viewBox="0 0 775 1008">
                    <path d="M7 465v-68q0-6-5.5-19.5t1.5-22 7.5-14.5-.5-14-1-12v-44q-2 0-5 1 3-9 11.5-17t4.5-30q0-3 7-11 23-23 23-43l-3 1q22-42 25-48 11-23 43-50 4-3 14-11 17-15 73-38l-14 3q-1 0-1-1v-2h8q10-2 30-1t49.5-9T323 3q81-10 127 3t69.5 34 57 33.5T629 109q2 3 5 6 10 7 11.5 9t18 25.5T684 178q11 15 31 45 30 45 50 74l-7-3-1 3q15 28 17 32 4 9 1 31.5t-4.5 26.5-2 8-.5 9.5V416q0 12-2 19.5t-6 24.5q-7 34-15 44t-15 20q-15 21-24.5 24.5T694 565q-5 41-7 50-8 40-21 67.5T644 716q-5 3-20 20-19 23-28 32.5T584 805q-11 96-15.5 126T548 998q-7 17-21 4-46-43-95-63-68-27-175-3-116 26-206 1-12-4-25-10.5t0-19.5q48-44 62.5-83.5T133 770q9-4-.5-12t-24-23-19-22.5T83 698q-7-20-12-29-15-25-5-53 5-13-3-17-1-1 0-5.5t-5-19-12.5-23-7-13.5-.5-12q1-13-9-16-2-1-1-5t-1.5-9.5T18 484Q7 473 7 465zm428 278q-23 2-32 10.5T392 774t-2 14q0 8-5 11t-3 9q3 12 0 15-11 7-5 21 7 17 30 10 17-5 25-1 44 22 89-13 42-32 56-50 67-85 74-187 0-8 6-136 2-53-14-102.5t-13-101-35-96-96.5-30.5-97.5 15.5-63 5.5q-28 5-25 42 2 25-8 47.5T294.5 278t-.5 62q0 9 11 12 50 15 93 30 23 8 20 27.5t1.5 54.5.5 53q-8 39 14 53 7 5 6.5 8t-12 8.5-14 7-2.5 6.5q0 2 5 3.5t10 1 11-1.5 13.5-2 11.5-2q21-2 53.5 26.5T556 661q15 14 5.5 29T538 708q-15 3-35.5-12.5T450 686q-11 1-24.5-1t-18 10-1.5 23 9 11 14-16h1l2 3 3 27zm148 51q-4 4-27.5 23.5T520 847q-29 26-65 27-16 0-30 2.5t-2 15.5q1 1 3 2.5t5.5 5 24 23.5 29 28.5T506 974t20 21q13 13 20-4 15-33 16.5-43t9.5-70.5 11-83.5zM288 425l-1 1q2 2 6.5 5.5t5.5 4.5q-1 1-4 1.5t-6 1.5q13 6 18 8-10 6-11 6-27 3-35 22l-3 3q-11 8-5 20 16 28 24.5 40t15.5 12q9 0 26.5-24t33.5-73q4-10-.5-15.5t-23-3T291 425h-3zM523 76l-2 2q-37-33-60-32 36 15 80 63 2-19-16.5-43.5T490 39q13 14 33 37zm149 165q-27-74-49-80 12 12 25 40.5t24 39.5zm-16 355l3 1q11-31 13-37t0-9.5-4-3.5q-9-2-9.5 7.5T656 596zm-20-460l-2 2q6 7 11 17t7 16q7 13 17 20-9-19-13-28l10-1q-24-20-30-26zM465 74q-1 1-4 1.5t-5 1.5q37 20 42 22-8-19-40-33 3 3 7 8zM419 7q-42-12-95 0h95zm241 269l-4 1 9 45h3q0-3-1-7-1-11-2-17 9 8 11 10l1-2q-1-2-17-30zM422 97l-1 2q11 6 32 17 1-2 2-3-18-17-28-25l-1 2q1 1 2 3.5t2 3.5h-8zm31 577q-22-4-27-3.5t-11 4.5q22 3 27 2.5t11-3.5zM339 411q-2 14-3 18 17-6 3-18zm-9 13q-18 2-23 2 6 7 13 6.5t10-8.5zm159-27l-10-2q0-20 15-25 6-1 27-5t25-6q16-10 36.5-1t18.5 31q-37-12-56-6 30 11 34 15t7 10l-28-16-2 2 20 16q-2 2-9.5 8t-10.5 8q-11 8-18.5 7.5T480 430q1-1 13-20-4 3-7.5 5.5T480 419q2-3 3-7 4-11 6-15zm59 2q1 17 2 27 5-6 14-15zm-34 16q-1 15 13 15 8 1 11-1.5t3-9.5q-18 11-27-4zm-7 11q0-3-.5-9t-.5-9q-13 12 1 18zm33-24q-4 8-3.5 9t5.5 6q4-7 4-8t-2.5-3-3.5-4zm-54 175q-5-1-15.5-2t-16.5-2q12-11 23.5-9t8.5 13zm-28 149q-8 0-9.5-2.5t.5-11.5q2 4 5 8t4 6z" />
                </svg>
            