
                <svg version="1.0" id="docker" xmlns="http://www.w3.org/2000/svg" width="{{width}}px" height="{{height}}px"
                    viewBox="0 0 1906.373 512">
                    <path d="M937.51,128h3.94c11.82,1.97,15.75,7.88,15.75,15.75v131.94v21.66c0,17.72-7.88,37.42-21.66,57.11 c-21.66,23.63-45.29,33.48-70.89,33.48h-5.91c-25.6,0-49.23-11.82-72.86-35.45c-13.78-19.69-19.69-39.39-19.69-59.08 c0-31.51,13.78-57.11,41.35-78.77c17.72-11.82,35.45-17.72,55.14-17.72c23.63,0,43.32,5.91,59.08,19.69v-61.05v-11.82 C925.7,133.91,931.6,128,937.51,128z M803.6,291.45v3.94c0,25.6,13.78,43.32,39.39,55.14c5.91,1.97,13.78,3.94,17.72,3.94h3.94 c23.63,0,41.35-13.79,55.14-39.39c1.97-7.88,3.94-13.79,3.94-17.72v-3.94c0-25.6-13.78-43.32-39.39-55.14 c-7.88-1.97-13.78-3.94-19.69-3.94h-3.94c-23.63,0-41.35,11.82-55.14,37.41C803.6,279.63,803.6,285.54,803.6,291.45z  M1069.45,200.86c23.63,0,47.26,9.85,66.95,27.57c19.69,19.69,27.57,41.35,27.57,66.95c0,35.45-15.75,63.02-49.23,82.71 c-13.79,7.88-29.54,11.82-43.32,11.82h-5.91c-25.6,0-49.23-11.82-70.89-35.45c-13.78-19.69-19.69-39.39-19.69-59.08 c0-31.51,13.78-57.11,41.35-76.8C1034,206.77,1051.73,200.86,1069.45,200.86z M1012.34,293.42v3.94c0,21.66,9.85,39.39,31.51,51.2 c7.88,3.94,15.75,5.91,23.63,5.91h3.94c21.66,0,39.39-11.82,51.2-35.45c1.97-7.88,3.94-13.79,3.94-21.66v-3.94 c0-17.72-7.88-33.48-25.6-45.29c-9.85-5.91-21.66-9.85-33.48-9.85c-25.6,0-43.32,13.79-55.14,39.38 C1012.34,283.57,1012.34,287.51,1012.34,293.42z M1268.34,198.89c23.63,0,47.26,9.85,66.95,27.57c1.97,3.94,3.94,7.88,3.94,9.85 v1.97c-1.97,11.82-7.88,17.72-17.72,17.72l0,0c-3.94,0-11.81-3.94-23.63-13.79c-7.88-3.94-17.72-5.91-25.6-5.91h-3.94 c-23.63,0-41.35,11.82-53.17,37.41c-1.97,7.88-3.94,15.75-3.94,21.66c0,23.63,11.81,41.35,37.42,53.17 c7.88,1.97,15.75,3.94,23.63,3.94c13.79,0,27.57-5.91,41.35-17.72l7.88-1.97h1.97c9.85,0,15.75,5.91,17.72,17.72v1.97 c0,11.82-15.75,23.63-45.29,35.45c-9.85,1.97-17.72,1.97-21.66,1.97h-5.91c-25.6,0-49.23-11.82-70.89-35.45 c-13.79-19.69-19.69-39.39-19.69-59.08c0-31.51,13.79-57.11,41.35-76.8C1232.9,204.8,1250.62,198.89,1268.34,198.89z  M1425.88,293.42l-21.66,13.79v64.98c0,9.85-5.91,15.75-17.72,17.72h-1.97c-9.85,0-15.75-5.91-17.72-15.75V145.72 c1.97-11.82,7.88-17.72,15.75-17.72h3.94c11.81,1.97,17.72,7.88,17.72,15.75v120.12c57.11-37.42,90.58-59.08,102.4-66.95h3.94 c9.85,0,15.75,5.91,17.72,19.69c0,7.88-7.88,15.75-23.63,23.63c-25.6,17.72-41.35,29.54-49.23,33.48l70.89,90.58l1.97,5.91v1.97 c-1.97,11.82-7.88,17.72-17.72,17.72l0,0c-7.88,0-15.75-7.88-27.57-23.63L1425.88,293.42z M1636.59,200.86 c37.42,0,64.98,17.72,84.68,51.2c7.88,13.78,9.85,27.57,9.85,43.32v3.94c-1.97,11.82-7.88,17.72-17.72,17.72h-131.94 c3.94,11.82,13.79,21.66,27.57,29.54c9.85,3.94,17.72,5.91,25.6,5.91c9.85,0,19.69-3.94,33.48-9.85h5.91 c11.81,1.97,15.75,7.88,15.75,17.72v1.97c0,13.79-17.72,23.63-51.2,27.57h-3.94c-33.48,0-61.05-15.75-82.71-47.26 c-7.88-15.75-11.81-31.51-11.81-47.26c0-35.45,15.75-63.01,49.23-82.71C1607.05,204.8,1622.8,200.86,1636.59,200.86z M1581.45,281.6 h114.21c0-3.94-3.94-13.79-13.79-25.6c-13.79-11.82-25.6-17.72-39.39-17.72h-7.88c-19.69,0-35.45,9.85-47.26,27.57 C1583.42,273.72,1581.45,277.66,1581.45,281.6z M1782.31,198.89c11.81,1.97,17.72,7.88,17.72,15.75v1.97 c13.79-13.79,33.48-19.69,57.11-19.69c11.81,0,25.6,3.94,41.35,9.85c5.91,5.91,7.88,9.85,7.88,15.75v1.97 c-1.97,11.82-7.88,17.72-17.72,17.72h-3.94c-11.81-3.94-21.66-5.91-25.6-5.91h-3.94c-23.63,0-41.35,11.82-51.2,37.41 c-1.97,5.91-3.94,13.79-3.94,21.66v76.8c0,9.85-5.91,15.75-17.72,17.72h-1.97c-9.85,0-15.75-5.91-17.72-17.72v-153.6 C1764.59,204.8,1770.5,198.89,1782.31,198.89z M628.34,196.92c-1.97-29.54-17.72-55.14-45.29-76.8l-9.85-7.88l-7.88,9.85 c-13.78,21.66-19.69,49.23-17.72,72.86c1.97,15.75,7.88,33.48,17.72,45.29c-7.88,5.91-33.48,17.72-66.95,17.72H2.13 C-7.72,311.14,8.03,512,238.43,512c171.32,0,311.14-76.8,376.12-238.28c21.66,0,76.8,3.94,104.37-49.23l7.88-13.79l-9.85-7.88 C699.23,192.99,657.88,189.05,628.34,196.92z M321.14,0h76.8v70.89h-76.8L321.14,0L321.14,0z M321.14,84.68h76.8v70.89h-76.8 L321.14,84.68L321.14,84.68z M230.56,84.68h76.8v70.89h-76.8V84.68z M139.97,84.68h76.8v70.89h-76.8V84.68z M49.39,167.38h76.8 v70.89h-76.8V167.38z M139.97,167.38h76.8v70.89h-76.8V167.38z M230.56,167.38h76.8v70.89h-76.8V167.38z M321.14,167.38h76.8v70.89 h-76.8L321.14,167.38L321.14,167.38z M411.73,167.38h76.8v70.89h-76.8V167.38z" />
                </svg>
            