
                <svg version="1.0" id="fa6-6" xmlns="http://www.w3.org/2000/svg" width="{{width}}px" height="{{height}}px"
                    viewBox="0 0 363 512">
                    <path d="M208.094 167.673C251.01 170.168 287.439 187.634 317.38 220.07C347.821 252.507 363.041 290.932 363.041 335.345C363.041 384.25 345.326 425.918 309.895 460.351C274.963 494.784 232.296 512 181.895 512C130.994 512 87.8285 494.784 52.3977 460.351C17.4659 425.918 0 384 0 334.596C0 307.15 6.48733 280.203 19.462 253.754C32.9357 227.306 55.1423 196.366 86.0819 160.936L200.608 25.4503C216.078 8.48344 231.298 0 246.269 0C260.242 0 271.969 4.74074 281.45 14.2222C291.431 23.2047 296.421 34.1832 296.421 47.1579C296.421 59.1345 291.431 70.6121 281.45 81.5907L208.094 167.673ZM123.509 395.228C139.478 411.197 158.94 419.181 181.895 419.181C204.85 419.181 224.062 411.197 239.532 395.228C255.501 378.76 263.485 358.799 263.485 335.345C263.485 311.891 255.501 292.179 239.532 276.211C224.062 260.242 204.85 252.257 181.895 252.257C158.94 252.257 139.478 260.242 123.509 276.211C108.039 292.179 100.304 311.891 100.304 335.345C100.304 358.799 108.039 378.76 123.509 395.228Z" />
                </svg>
            