
                <svg version="1.0" id="fantana" xmlns="http://www.w3.org/2000/svg" width="{{width}}px" height="{{height}}px"
                    viewBox="0 0 878 1008">
                    <path d="M131 290l-4-23q0-16 14-26.5t17-24.5q10-56 59-92 16-12 41-38t76-60 89-23q8 3 26 1-1 0-4.5-1.5T438 0q38 1 77 22 13 8 35 22-4-7-6-5 3 1 9 2 12 3 18 4 33 4 55 19-2 0-10.5-3.5t-11-4.5-11-3.5-11-2.5-11.5-1.5-12 .5q4 5 35.5 13t34.5 8 10.5 4.5T649 80t4.5 1.5T658 83q7 1 10.5 2.5T680 89q19 4 24.5 9t10 10 8.5 10.5 7.5 10.5 8 11l7.5 10-8-7-2 2q25 30 38 81 2-9-1-21-6-21-7-25 13 22 10.5 46t8.5 34q-6-1-10-1 2 9 7 12t9.5 5.5 6.5 3.5q7 19 4 68l2 1q11-7 17-13l-2 6-7 14 18-10 2 1q-23 29-30 37 27 5 32-23 0 3 .5 7.5t.5 6.5q3-1 14-8-1 4-11.5 12.5T831 399q3-2 29-26-7 10-20 27 4 4 6.5 3.5T859 394q-1 1-2 4-4 6-8 11 10 5 11 4.5t11-9.5v7.5l-1 9.5 6-6 1 1q1 17-3 27-8 20-7 22 6 10 .5 26t-1 23 4.5 17q-1-1-2.5-3.5T866 524q-2 27-.5 35t12.5 14l-7 1 4 43q-8 0 0 9-10-4-26.5 13T811 651v35q2 32-32.5 59t-42 38.5T725 800q-11 13-28 14-1 1-5 7-18 28-51 21-10-2-12 9-12 61-1.5 95.5T603 987q-10 2-19 11-20 18-45 1-44-30-92-56-12-6-33-2-100 22-170.5 41T105 992q-34-5-12-33 8-10 45-68.5t39.5-62 3.5-6.5q-32-4-49-42-3-9-13.5-15T98 759q-14 0-14-15 1-15 5-46-14 14-8 51-9-11-7.5-23.5T75 712q8-17-12-32v7l-2 1q0-8-1-23t-1-23q-1 0-3 1t-3 2l11-18q-1-2-21-28l4 24-2 1q-9-31-9-33t3-39q-31 6-36-18 0-1-1-3t-1.5-4-.5-4q0-5 8-6-2-3-5-6l16 2q-8-10-11-14l1-2q1 0 4.5 1t6.5 2q-2-4-3-8-2-7-3-11 4 3 15 10L7 461l3-2 15 17h1l-10-23 2-1q10 11 16 17-1-4-2-9-1-9-1.5-14.5t2-8.5 3.5-19q3 3 9 10 4-8-2-21t-4-20l1.5 1 2.5 1q1-10 1-13 3 3 9 10l3-1q-2-16 3-36 2-8 8-4 0 1 10-8 1 2 4 6 6 9 10 14 10 12 26 6-3-1-7-3-17-7-23-17 1 1 4 2.5l5 2.5q-4-12-4-13l2 3 2.5 4 2.5 3 3.5 3 3.5 2q4 3 10 3-1 0-3.5-3t-3.5-4l-3.5-3.5-3-4-2-4-1.5-4-.5-4-.5-5.5q2-6 4-10 1 2 3 5l4 6v-12l6-3 12 9 2-2q-1-3-4.5-9.5T119 294q2 0 5 1t5 1l-5-10q1 1 3.5 2t3.5 2zm361 472l2 4q-2 0-18.5 4t-25.5 6q-39 8-29 43 3 11 22 51 8 16 29 11t35 8q2 2 11 3 31 3 60-22 11-10 16-13 37-26 50-66 9-30 12.5-59t5-35 3.5-15q4-16 10-25 36-49 16-207-6-46-9-91t-4-51q-3-50-25-91-12-21-29-24.5t-50-11-56-11.5-38.5-1-84.5 20q-20 6-26 39-20 134-21 146t5 16 16.5 7 19.5 5.5 11.5 3.5 9.5 3.5 10 4.5q11 7 16 13.5t20 12 14 22.5q0 5-2 15-6 28-5 46.5t3 40 2.5 27T470 601q3 15 20 19 6 1 7 6t-5 9 0 7 18.5 2 25.5 16q3 4 27 18t34 22q33 24 11 61-3 5-11 10.5t-11 7.5q-2-9-4-23t-15-17q-36-9-47.5-11t-36-2H457q-21 0-23 13.5t19 18.5q14 4 39 4zM338 481q0 1 2 6 6 13-10 30-5 5-15 5t-13 5q-9 12 31 63 6 8 13 6.5t11-11 8.5-30.5 18-30.5T397 491q0-11-11-10.5t-48 .5zm258 415q-6-15-8.5-16t-9 4-11 8.5-8.5 6.5q-17 15-25 19-27 19-13 37 7 11 26 28 10 9 17-4 14-28 22-52.5t10-30.5zm216-290v27q1 9 7.5 11t10-2 14.5-23q-18-7-32-13zM161 220l3 1 12-24q0 1 .5 2l.5 1q3 1 4 1 3-9 10-27t11-27q-35 32-41 73zm340 480q-15 12-20.5 5t-9-6-3.5 6 11.5 7.5T497 715q15-1 4-15zM81 651l-3-2q-1 3-4 7t-4 7q-11 19 11 26v-38zm297-213v-4q-29-9-44 7 16-1 44-3zm352 338l2 2q20-6 29-26-16 7-17.5 8T730 776zM94 629l-2-3q-30 13-28 36 24-27 30-33zm771-26q0-2 1-9 1-14-16-28l-5-5q-1 1 2.5 8t17.5 34zm-72 66q-1 8-2.5 23.5T788 716q15-24 5-47zM147 247q-6 5-6 17t6 20v-37zm202 220q2 11 14 11.5t15-9.5q-18 9-29-2zm383 291q-5 3-15.5 8t-15.5 7q23 1 31-15zm-173-34q-4-2-9.5-5t-7.5-4q-3 15 17 9zm268-152l-4 3q5 7 14 20l5-3zM394 16l-1-3q-20 7-36 12l1 3zm390 710q17-9 17-22-3 3-9 10.5t-8 11.5zm35-364l-2-2q-8 6-24 19l3 4zM51 583h-3q-3 8 8 21-3-14-5-21zm490-111l-6-10 6-9 6-9q-14 1-15 2 5-20 21-21 63-6 107 29 1 0 4 5-53-13-66-9 4 9 6.5 10.5T616 466q22 11 33 25-14-5-33.5 2t-44.5-3q-2-1-28-7l20-18q-1-1-1-2zm33 7q0 14 16 13.5t16-12.5q-12 8-16.5 8t-15.5-9zm36 10l1 2q2-1 7.5-4t7.5-4q-7-4-11-7-5 11-5 13zm-75 140h-27q16-16 27 0z" />
                </svg>
            