
                <svg version="1.0" id="fitbit" xmlns="http://www.w3.org/2000/svg" width="{{width}}px" height="{{height}}px"
                    viewBox="0 0 1871.462 512">
                    <path d="M284.16,38.44c0,21.23-17.21,38.44-38.44,38.44s-38.44-17.21-38.44-38.44S224.49,0,245.72,0 S284.16,17.21,284.16,38.44z M245.72,107.24c-22.08,0-39.97,17.9-39.97,39.97s17.9,39.97,39.97,39.97s39.97-17.9,39.97-39.97 S267.8,107.24,245.72,107.24z M245.72,214.49c-22.93,0-41.51,18.59-41.51,41.51s18.59,41.51,41.51,41.51s41.51-18.59,41.51-41.51 S268.65,214.49,245.72,214.49z M245.72,324.81c-22.08,0-39.97,17.9-39.97,39.97s17.9,39.97,39.97,39.97s39.97-17.9,39.97-39.97 S267.8,324.81,245.72,324.81z M245.72,435.13c-21.23,0-38.44,17.21-38.44,38.44c0,21.23,17.21,38.44,38.44,38.44 s38.44-17.21,38.44-38.44C284.16,452.33,266.95,435.13,245.72,435.13z M351.57,102.11c-24.91,0-45.1,20.19-45.1,45.1 s20.19,45.1,45.1,45.1c24.91,0,45.1-20.19,45.1-45.1S376.48,102.11,351.57,102.11z M351.57,209.37c-25.76,0-46.64,20.88-46.64,46.64 c0,25.76,20.88,46.64,46.64,46.64c25.76,0,46.64-20.88,46.64-46.64C398.21,230.25,377.33,209.37,351.57,209.37z M351.57,319.69 c-24.91,0-45.1,20.19-45.1,45.1c0,24.91,20.19,45.1,45.1,45.1c24.91,0,45.1-20.19,45.1-45.1 C396.67,339.88,376.48,319.69,351.57,319.69z M460.24,204.24c-28.59,0-51.76,23.17-51.76,51.76s23.17,51.76,51.76,51.76 S512,284.59,512,256S488.83,204.24,460.24,204.24z M138.5,112.36c-19.25,0-34.85,15.6-34.85,34.85s15.6,34.85,34.85,34.85 s34.85-15.6,34.85-34.85S157.74,112.36,138.5,112.36z M138.5,219.62c-20.1,0-36.39,16.29-36.39,36.39 c0,20.1,16.29,36.39,36.39,36.39s36.39-16.29,36.39-36.39C174.88,235.91,158.59,219.62,138.5,219.62z M138.5,329.94 c-19.25,0-34.85,15.6-34.85,34.85c0,19.25,15.6,34.85,34.85,34.85s34.85-15.6,34.85-34.85C173.35,345.54,157.74,329.94,138.5,329.94 z M31.26,224.74C14,224.74,0,238.74,0,256c0,17.27,14,31.26,31.26,31.26s31.26-14,31.26-31.26 C62.52,238.74,48.53,224.74,31.26,224.74z M905.24,188.61c-3.71,0-6.75,3.04-6.75,6.75v271.45c0,3.71,3.04,6.75,6.75,6.75h32.65 c3.71,0,6.75-3.04,6.75-6.75V195.36c0-3.71-3.04-6.75-6.75-6.75H905.24z M921.56,74.55c-17.23,0-31.25,14.02-31.25,31.26 c0,17.23,14.02,31.26,31.25,31.26c17.24,0,31.26-14.02,31.26-31.26C952.82,88.57,938.8,74.55,921.56,74.55z M1602.31,188.61 c-3.71,0-6.75,3.04-6.75,6.75v271.45c0,3.71,3.04,6.75,6.75,6.75h32.65c3.71,0,6.75-3.04,6.75-6.75V195.36 c0-3.71-3.04-6.75-6.75-6.75H1602.31z M1618.62,74.55c-17.11,0-31.47,14.02-31.47,31.25c0,17.23,14.36,31.25,31.47,31.25 c17.12,0,31.04-14.02,31.04-31.25C1649.67,88.57,1635.74,74.55,1618.62,74.55z M1174.59,234.76c3.71,0,6.75-3.04,6.75-6.75v-32.65 c0-3.71-3.04-6.75-6.75-6.75h-69.61V84.01c0-3.71-3.04-6.75-6.75-6.75h-32.66c-3.71,0-6.75,3.04-6.75,6.75v104.6h-35.02 c-3.71,0-6.75,3.04-6.75,6.75v32.65c0,3.71,3.04,6.75,6.75,6.75h35.02v158.35c0,48.1,32.32,80.43,80.43,80.43h35.35 c3.71,0,6.75-3.04,6.75-6.75v-32.65c0-3.71-3.04-6.75-6.75-6.75h-31.26c-22.58,0-38.35-16.2-38.35-39.4V234.76H1174.59z  M1864.71,234.76c3.71,0,6.75-3.04,6.75-6.75v-32.65c0-3.71-3.04-6.75-6.75-6.75h-69.61V84.01c0-3.71-3.04-6.75-6.75-6.75h-32.66 c-3.71,0-6.75,3.04-6.75,6.75v104.6h-35.02c-3.71,0-6.75,3.04-6.75,6.75v32.65c0,3.71,3.04,6.75,6.75,6.75h35.02v158.35 c0,48.1,32.32,80.43,80.43,80.43h35.35c3.71,0,6.75-3.04,6.75-6.75v-32.65c0-3.71-3.04-6.75-6.75-6.75h-31.26 c-22.58,0-38.35-16.2-38.35-39.4V234.76H1864.71z M698.86,234.76v232.05c0,3.71,3.04,6.75,6.75,6.75h32.65 c3.71,0,6.75-3.04,6.75-6.75V234.76h76.8c3.71,0,6.75-3.04,6.75-6.75v-32.65c0-3.71-3.04-6.75-6.75-6.75h-76.8v-62.78 c0-23.51,16.49-41.24,38.35-41.24h38.45c3.71,0,6.75-3.04,6.75-6.75V45.18c0-3.71-3.04-6.75-6.75-6.75h-35.57 c-48.18,0-87.38,39.21-87.38,87.39v62.78h-35.03c-3.71,0-6.75,3.04-6.75,6.75v32.65c0,3.71,3.04,6.75,6.75,6.75H698.86z  M1492.14,221.64c-25.59-27.62-61.54-42.84-101.22-42.84c-35.67,0-72.99,15.83-94.53,38.89V45.19c0-3.71-3.04-6.75-6.75-6.75h-32.71 c-3.71,0-6.75,3.04-6.75,6.75v285.98c0,105.76,70.69,153.1,140.74,153.1c70.05,0,140.74-47.34,140.74-153.1 C1531.66,287.42,1517.99,249.55,1492.14,221.64z M1390.92,438.06c-69.7,0-94.54-55.22-94.54-106.9 c0-63.49,37.99-106.15,94.54-106.15c56.54,0,94.54,42.66,94.54,106.15C1485.46,382.84,1460.62,438.06,1390.92,438.06z" />
                </svg>
            