
                <svg version="1.0" id="google-pay" xmlns="http://www.w3.org/2000/svg" width="{{width}}px" height="{{height}}px"
                    viewBox="0 0 640 512">
                    <path d="M382.25,158.28a55.71,55.71,0,0,0-40.51-16.23H279.07V328.76H302.7V253.12h39c16,0,29.5-5.36,40.51-15.93C414,205,394.1,169.48,382.25,158.28Zm-16.58,62.23c-11.44,12.17-20.93,9.68-63,9.68V165c41.1,0,50.49-2.39,62.23,9.23A33.18,33.18,0,0,1,365.67,220.51Zm88.07-23.67c-22.46,0-39.34,8.34-50.5,24.86L424.09,235q11.45-17,31.26-17c1,0,32.44-.45,32.44,35.59-9.1-5.06-20.55-7.74-34.64-7.74-39.95,0-54.31,23-54.31,43.32-.75,30.94,29,43.78,48.73,43.78,28.23,0,37.3-21.89,40.07-21.89v17.72h22.61V250C510.25,206.4,475.77,196.84,453.74,196.84ZM475.9,300.32a37.29,37.29,0,0,1-26.57,11.17A28.68,28.68,0,0,1,431,305.23a19.41,19.41,0,0,1-7.77-15.63c0-7,3.22-12.81,9.54-17.42s14.53-7,24.07-7C470,265,480.3,268,487.64,274,487.64,284.09,483.68,292.87,475.9,300.32ZM640,201,561,384.89H536.67L566,320.57,514.21,201H539.9l37.42,91.72c.66,0-2.28,6.83,37-91.72ZM207.14,236.74c0,62.27-41.33,104.82-101.42,104.82a105.41,105.41,0,0,1-94.38-59v-.15a107.64,107.64,0,0,1,0-96.18C42.55,123.2,125.67,107,176.47,155l-30.24,30.67C115.33,155.6,61.2,169,46.42,214l0,0c-13.69,41.93,17.33,85.19,59.34,85.19,41.35,0,54.63-29,57.1-42.88h-57.1V215h99.66A133.76,133.76,0,0,1,207.14,236.74Z" />
                </svg>
            