
                <svg version="1.0" id="gusto" xmlns="http://www.w3.org/2000/svg" width="{{width}}px" height="{{height}}px"
                    viewBox="0 0 1971.527 512">
                    <path d="M777.1,251.99h99.05c2.18,0,3.64,2.18,3.64,3.64v5.1c0,19.66-2.18,36.42-7.28,51.71c-5.1,13.84-11.65,26.95-22.58,38.6 c-24.03,26.95-54.62,40.79-92.49,40.79c-36.42,0-67.73-13.11-93.22-40.06c-25.49-26.95-38.6-57.54-38.6-93.95 c0-37.87,13.11-69.19,40.06-95.41c26.95-26.95,58.26-40.06,96.14-40.06c19.66,0,38.6,3.64,56.81,11.65 c16.02,8.01,32.05,21.12,47.34,37.87c0.73,0.73,0.73,2.91,0,5.1l-22.58,21.85c-0.73,0.73-3.64,0.73-5.1,0 c-21.12-26.95-45.88-40.06-75.74-40.06c-27.68,0-50.25,10.2-69.19,29.13s-27.68,41.51-27.68,69.19c0,29.13,10.2,52.44,30.59,71.37 c19.66,16.75,40.79,25.49,62.63,25.49c18.94,0,36.42-7.28,51.71-19.66s24.03-29.13,25.49-46.61h-59.72c-2.18,0-3.64-2.18-3.64-3.64 v-29.86C774.19,254.18,774.92,251.99,777.1,251.99L777.1,251.99z M1002.15,128.18c2.18,0,3.64,2.18,3.64,3.64v151.49 c0,21.85,3.64,38.6,10.92,48.8c10.92,14.57,25.49,21.85,45.88,21.85c19.66,0,34.96-7.28,45.88-21.85 c7.28-10.2,10.92-25.49,10.92-48.8V130.37c0-2.18,2.19-3.64,3.64-3.64h32.05c2.18,0,3.64,2.18,3.64,3.64v162.41 c0,27.68-8.74,49.52-25.49,67.73c-18.94,19.66-42.97,29.86-70.65,29.86c-27.68,0-51.71-10.2-70.65-29.86 c-16.75-18.21-25.49-40.06-25.49-67.73V130.37c0-2.18,2.18-3.64,3.64-3.64h32.05V128.18z M1400.53,169.7l-22.58,13.84 c-2.18,0.73-3.64,0.73-5.83-0.73c-5.1-8.01-10.2-13.84-14.57-16.75c-5.83-3.64-13.11-5.1-21.85-5.1c-10.92,0-19.66,2.91-26.95,8.74 c-7.28,5.83-10.92,13.84-10.92,22.58c0,13.11,8.74,22.58,27.68,30.59l25.49,10.92c21.12,8.74,36.42,18.94,46.61,30.59 c10.2,11.65,14.57,27.68,14.57,44.43c0,24.03-8.01,43.7-24.03,59.72s-35.69,24.03-59.72,24.03c-22.58,0-40.79-7.28-55.35-19.66 c-13.11-11.65-21.85-29.13-25.49-50.25c-0.73-2.91,0.73-5.83,3.64-7.28l29.86-7.28c2.18-0.73,5.1,0.73,5.1,2.91 c2.18,13.11,5.1,21.85,8.74,26.95c8.01,10.92,19.66,16.75,35.69,16.75c11.65,0,22.58-3.64,30.59-11.65 c8.01-8.01,11.65-18.94,11.65-30.59c0-5.1-0.73-10.2-2.18-13.84c-0.73-3.64-3.64-8.01-7.28-11.65c-3.64-3.64-7.28-7.28-11.65-10.2 c-5.1-2.91-10.2-5.83-16.75-8.74l-24.76-10.2c-35.69-14.57-53.89-36.42-53.89-65.55c0-19.66,8.01-35.69,22.58-48.8 c14.57-13.11,33.5-19.66,55.35-19.66c27.68,0,50.25,13.11,66.28,38.6C1403.45,163.87,1401.99,167.51,1400.53,169.7L1400.53,169.7z  M1586.98,164.6v218.49c0,2.18-2.18,3.64-3.64,3.64h-32.05c-2.19,0-3.64-2.18-3.64-3.64V164.6h-63.36c-2.18,0-3.64-2.18-3.64-3.64 V131.1c0-2.18,2.18-3.64,3.64-3.64h166.05c2.18,0,3.64,2.18,3.64,3.64v29.86c0,2.18-2.18,3.64-3.64,3.64H1586.98z M1699.87,256.36 c0-36.42,13.11-67.73,40.06-93.95c26.95-25.49,58.26-40.06,96.14-40.06c36.42,0,68.46,13.11,95.41,40.06 c26.95,26.95,40.06,58.26,40.06,95.41c0,37.87-13.11,68.46-40.06,95.41c-26.95,25.49-59.72,38.6-97.59,38.6 c-33.5,0-63.36-11.65-90.31-34.96C1713.71,331.38,1699.87,297.88,1699.87,256.36L1699.87,256.36z M1738.47,257.09 c0,29.13,10.2,52.44,29.13,70.65c18.94,18.94,41.51,27.68,66.28,27.68c26.95,0,50.25-8.74,68.46-27.68 c18.94-18.94,27.68-41.51,27.68-69.19c0-27.68-8.74-50.25-27.68-69.19c-18.94-18.94-40.79-27.68-68.46-27.68 c-26.95,0-49.52,8.74-68.46,27.68C1748.67,206.11,1738.47,229.42,1738.47,257.09z M262.92,366.34 c-63.36,0-115.07-51.71-115.07-115.07s51.71-114.34,115.07-114.34c40.06,0,76.47,19.66,97.59,53.89c3.64,7.28,2.18,16.02-5.1,21.12 c-7.28,3.64-16.02,2.18-21.12-5.1c-16.02-24.76-42.97-40.06-71.37-40.06c-46.61,0-84.48,37.87-84.48,84.48s37.87,84.48,84.48,84.48 c25.49,0,40.79-16.02,60.45-37.87c7.28-8.01,14.57-16.02,22.58-24.03c5.83-5.83,16.02-5.83,21.12,0.73 c5.83,5.83,5.83,16.02-0.73,21.12c-8.01,7.28-14.57,14.57-21.85,22.58C323.37,343.03,301.52,366.34,262.92,366.34z M361.97,361.97 c-8.01,0-14.57-7.28-14.57-14.57v-64.82h-59.72c-8.01,0-14.57-7.28-14.57-14.57c0-7.28,7.28-14.57,14.57-14.57h74.29 c8.01,0,14.57,7.28,14.57,14.57v79.39C377.99,355.41,371.44,361.97,361.97,361.97z M286.95,512C155.86,512,48.8,404.94,48.8,273.84 S155.86,35.69,286.95,35.69s238.16,107.06,238.16,238.16S418.05,512,286.95,512z M286.95,52.44 c-122.36,0-221.41,99.05-221.41,221.41s99.05,221.41,221.41,221.41s221.41-99.05,221.41-221.41S408.58,52.44,286.95,52.44z  M238.16,512C107.06,512,0,404.94,0,273.84S107.06,35.69,238.16,35.69s238.16,107.06,238.16,238.16S369.25,512,238.16,512z  M238.16,52.44c-122.36,0-221.41,99.05-221.41,221.41s99.05,221.41,221.41,221.41s221.41-99.05,221.41-221.41 S360.51,52.44,238.16,52.44z M263.65,476.31c-131.1,0-238.16-107.06-238.16-238.16S132.55,0,263.65,0S501.8,107.06,501.8,238.16 S394.74,476.31,263.65,476.31z M263.65,16.75c-122.36,0-221.41,99.05-221.41,221.41s99.05,221.41,221.41,221.41 s221.41-99.05,221.41-221.41S386,16.75,263.65,16.75z" />
                </svg>
            