
                <svg version="1.0" id="inc" xmlns="http://www.w3.org/2000/svg" width="{{width}}px" height="{{height}}px"
                    viewBox="0 0 1482.929 512">
                    <path d="M666.07,502.26c0-36.53,0-72.79,0-109.47c16.73,0,33.33,0,50.18,0c0.12-1.44,0.28-2.5,0.28-3.55 c0.01-37.4,0.07-74.8-0.05-112.2c-0.05-15.37-5.09-28.63-17.81-38.14c-7.96-5.95-17.13-8.9-26.88-10.12 c-20.54-2.57-39.61,1.14-56.2,14.09c-16.59,12.95-25.25,30.37-25.63,51.18c-0.58,32.12-0.16,64.25-0.15,96.38 c0,0.59,0.08,1.18,0.14,2.05c17.13,0,34.13,0,51.46,0c0,36.73,0,73.17,0,109.87c-90.9,0-181.81,0-273.01,0c0-36.45,0-72.81,0-109.5 c16.21,0,32.46,0,49.02,0c0-55.07,0-109.8,0-165c-16.26,0-32.61,0-49.12,0c0-36.73,0-73,0-109.57c71.79,0,143.54,0,215.67,0 c0,24.83,0,49.52,0,74.2c0.27,0.14,0.55,0.28,0.82,0.42c2.44-2.64,4.98-5.19,7.31-7.93c16.63-19.59,35.97-35.7,59.38-46.66 c17.03-7.98,34.98-12.73,53.59-14.89c28.82-3.33,57.53-2.74,85.94,3.55c23.32,5.17,44.79,14.27,62.66,30.66 c18.36,16.84,28.68,38,32.65,62.28c1.52,9.27,2.26,18.76,2.3,28.16c0.23,46.6,0.1,93.19,0.1,139.79c0,1.45,0,2.9,0,4.58 c14.51,0,28.67,0,43.18,0c-0.27-0.89-0.46-1.78-0.79-2.6c-12.8-31.36-16.14-63.96-12.57-97.42c2.8-26.2,10.68-50.73,24.53-73.25 c14.13-22.97,32.92-41.34,55.39-56.02c29.16-19.05,61.29-30.64,95.38-36.82c41.33-7.49,82.86-9.1,124.33-1.32 c36.61,6.87,70.28,20.45,98.37,45.79c20.31,18.32,34.65,40.65,42.75,66.67c3.84,12.34,5.84,25.25,8.62,37.92 c0.31,1.39,0.27,2.86,0.43,4.68c-49.22,5.41-98.14,10.79-147.43,16.21c-0.41-4.98-0.76-9.69-1.19-14.4 c-1.18-12.99-3.32-25.76-8.51-37.85c-7.48-17.41-20.14-28.39-39.2-31.18c-14.46-2.12-28.66-0.97-42.22,4.73 c-14.69,6.17-23.87,17.58-29.37,32.18c-5.82,15.46-7.53,31.65-7.93,48.01c-0.54,22.19-1.31,44.44,3.07,66.35 c1.69,8.45,4.35,16.88,7.83,24.76c6.08,13.78,16.71,23.29,31.22,27.65c20.85,6.27,41.47,5.87,60.97-4.77 c16.55-9.03,24.92-23.69,27.1-42.14c0.17-1.46,0.33-2.92,0.47-4.39c0.12-1.32,0.21-2.64,0.32-4.15c48.89,0,97.63,0,147.01,0 c-0.74,5.68-1.04,11.18-2.2,16.48c-5.47,24.85-15.15,47.82-31.07,67.92c-17.57,22.2-40.09,37.58-66.17,48.04 c-22.12,8.87-45.17,13.71-68.81,16.2c-33.71,3.54-67.33,3.13-100.8-2.4c-38.28-6.32-74.36-18.6-106.63-40.69 c-26.33-18.02-47.02-40.98-60.63-70.04c-0.08-0.16-0.34-0.24-0.89-0.59c0,35.47,0,70.71,0,106.27 C844.1,502.26,755.29,502.26,666.07,502.26z M349.54,0C232.82,0,116.4,0,0.01,0c0,39.38,0,78.45,0,117.96c21.8,0,43.43,0,65.2,0 c0,91.73,0,183.01,0,274.7c-21.81,0-43.44,0-65.22,0c0,36.77,0,73.13,0,109.56c116.67,0,233.17,0,349.54,0c0-36.71,0-73.05,0-109.8 c-21.93,0-43.56,0-65.17,0c0-91.83,0-183.26,0-275.1c21.83,0,43.45,0,65.17,0C349.54,77.91,349.54,38.9,349.54,0z M1420.93,379.58 c-34.56-0.06-62.62,27.79-62.72,62.25c-0.1,34.17,27.97,62.34,62.2,62.42c34.45,0.08,62.43-27.87,62.52-62.45 C1483.02,407.87,1454.89,379.63,1420.93,379.58z" />
                </svg>
            