
                <svg version="1.0" id="js-bin" xmlns="http://www.w3.org/2000/svg" width="{{width}}px" height="{{height}}px"
                    viewBox="0 0 384 512">
                    <path d="M191.9 273.8c123.7 0 147.3-46.1 147.3-46.1V152c-4.9 2.5-10.3 4.9-16.1 7.2C288 173 241.5 180.6 192 180.6S96 173 60.8 159.2c-5.8-2.3-11.1-4.7-16.1-7.2v75.7c.1 0 23.6 46.1 147.2 46.1zm73.1-78.9c12.3 0 22.2 10 22.2 22.2 0 12.3-10 22.2-22.2 22.2-12.3 0-22.2-10-22.2-22.2-.1-12.2 9.9-22.2 22.2-22.2zm-146.3 0c12.3 0 22.2 10 22.2 22.2 0 12.3-10 22.2-22.2 22.2-12.3 0-22.2-10-22.2-22.2-.1-12.2 9.9-22.2 22.2-22.2zM265 221c4 0 7.3-3.2 7.3-7.3 0-4-3.2-7.3-7.3-7.3-4 0-7.3 3.2-7.3 7.3s3.3 7.3 7.3 7.3zm-146.6 0c4 0 7.3-3.2 7.3-7.3 0-4-3.2-7.3-7.3-7.3-4 0-7.3 3.2-7.3 7.3.1 4.1 3.3 7.3 7.3 7.3zm73.6-83.2c98.4 0 178.6-30.6 182.4-68.9C370 24 269.7 0 192 0 93.1 0 13.4 30.8 9.6 68.9c3.8 38.3 84 68.9 182.4 68.9zm109-68.1c1.1 4.5-8 8.2-20.3 8.2s-22.7-3.7-23.4-8.2c-.6-4.4 8.5-7.9 20.3-7.9 11.9 0 22.4 3.5 23.4 7.9zM191.6 24.2c27 0 51.8 3.7 70.7 9.8l27-9.8 6.5 27.8h-81.6l-1-.2 29-10.5c-13.3-4.5-31.1-7.2-50.5-7.2-15.5 0-30.1 1.8-42.2 4.8l-26.8-5.4c18.8-5.9 43.1-9.3 68.9-9.3zM86.1 49.8c.9-4.1 10.8-7.3 22.2-7.3 11.4 0 20.2 3.2 19.6 7.3-.5 4.1-10.5 7.5-22.3 7.5-11.6.1-20.4-3.3-19.5-7.5zm-1.8 17.6h85.4l.4.1-33 12c13.6 5.4 33.1 8.7 54.9 8.7 17.9 0 34.1-2.3 46.8-6l31.2 6.7c-19 7.5-46.4 12.4-77.9 12.4-31.8 0-60-5.1-79.4-13l-35.8 13 7.4-33.9zm236.4 55.7c-34.8 13.2-80.5 20.5-128.7 20.5-48.2 0-93.9-7.3-128.7-20.5C36.6 113 18.1 100 9.4 85.5v17.6c0 39.6 81.7 71.8 182.6 71.8 100.8 0 182.6-32.1 182.6-71.8V85.5c-8.7 14.5-27.2 27.5-53.9 37.6zm-99.6 213.4h-.4c-12.2 1-19.9 1.4-27.7 1.4-7.7 0-15.5-.4-27.6-1.4h-.4c-2.2 0-3.7 1.5-3.7 3.6v114.1c0 2.7 2.3 5.3 5 5.5 11.5 1 18.8 1.4 26 1.4h.7c7.4 0 14.9-.4 26.7-1.4 2.7-.2 5-2.8 5-5.5V340.1c.1-2.2-1.4-3.6-3.6-3.6zM362 227.7c0-11.1-5.6-21.6-15.7-31v32.7c-2.8 5.5-29.7 51.5-154.4 51.5-124.8 0-151.5-46.1-154.3-51.5v-32.7c-10 9.4-15.7 19.9-15.7 31v210.4c0 40.8 76.1 73.9 170 73.9s170-33.1 170-73.9l.1-210.4zM230.5 454.2c0 5.7-4.6 10.7-10.2 11.2-12 1-19.6 1.4-27.2 1.4-7.6 0-15.2-.4-27.2-1.4-5.6-.5-10.2-5.5-10.2-11.2V340.1c0-5.3 4-9.3 9.4-9.3h.9c12 1 19.6 1.4 27.1 1.4 7.6 0 15.2-.4 27.1-1.4h.9c5.3 0 9.4 4 9.4 9.3v114.1zm29.4 2.2c-9.5-50.2-9.5-50.2-16.7-88.4 50.2-11.3 75.4-27.6 88.9-36.4 4.6 34.9 7.3 56.7 10.6 84.8-29.3 24.1-65.4 34.9-82.8 40zm62.4-62.4c-3 .2-4.8-.4-5.4-1.8-.7-1.6 0-3.8 1.8-5.4 2-1.8 5.4-.3 5.4-.3l5.1-6.1s-2.8-3.6-7.9-2.7c-5.1.9-12.7 7.5-11.7 16.2 1.1 9.7 7.3 9 12.3 8.5 4.9-.6 6.4 1.1 4.8 6-.9 2.8-3.6 4.3-5.8 4.7-2.7.4-4.6-1.7-4.6-1.7l-5.1 6.2s3.1 4.2 8.7 3.3c13.2-2 16.7-15.8 13.3-22.6-3-6.2-7.9-4.5-10.9-4.3zm-21.4-5.4l-7.6 3.2 4.8 23.1s1.6 8.4-.9 10.1c-5.4 3.6-8.6-.6-8.6-.6l-5.8 5.6s6.8 7.9 16.7 2.5c8.2-4.5 7.5-9.5 6.6-14.5-.6-2.7-5.2-29.4-5.2-29.4z" />
                </svg>
            