
                <svg version="1.0" id="license-blank" xmlns="http://www.w3.org/2000/svg" width="{{width}}px" height="{{height}}px"
                    viewBox="0 0 576 512">
                    <path d="M480,96l32,32v256l-32,32H96l-32-32V128l32-32H480z M576,80v352c0,26.5-21.5,48-48,48H48c-26.5,0-48-21.5-48-48V80  c0-26.5,21.5-48,48-48h480C554.5,32,576,53.5,576,80z M544,112c0-26.5-21.5-48-48-48H80c-26.5,0-48,21.5-48,48v288  c0,26.5,21.5,48,48,48h416c26.5,0,48-21.5,48-48V112z" />
                </svg>
            