
                <svg version="1.0" id="mcdonalds" xmlns="http://www.w3.org/2000/svg" width="{{width}}px" height="{{height}}px"
                    viewBox="0 0 2915.149 512">
                    <path d="M1263.36,283.67c-0.44-18.25-16.95-31.17-35.15-31.17c-40.22,0-46.56,33.67-46.56,63.55c0,27.84,12.26,56.48,42.75,56.48 c24.98,0,37.68-14.1,41.09-36.95h69.84c-6.35,57.72-52.06,90.93-110.51,90.93c-66.05,0-115.18-44.42-115.18-110.46 c0-68.51,44.48-117.53,115.18-117.53c54.64,0,103.32,28.26,108.36,85.15H1263.36z M1852.53,204.67h69v29.97h0.88 c12.94-22.29,34.6-36.11,65.4-36.11c72.38,0,81.01,51.52,81.01,82.22v136.26h-71.11V314.3c0-29.05,1.32-58.53-35.58-58.53 c-24.82,0-38.49,19.99-38.49,50.98v110.26h-71.11V204.67z M2186.14,382.91c33.12,0,44.17-19.09,42.55-63.54 c-9.81,6.27-27.79,7.48-42.94,11.62c-15.53,3.73-28.62,10.4-28.62,27.43C2157.12,375.84,2170.62,382.91,2186.14,382.91z  M2096.21,271.21c1.19-28.23,14.31-46.52,33.09-57.69c18.82-10.82,43.34-14.99,67.47-14.99c50.27,0,98.95,11.23,98.95,72.24v94.29 c0,18.27,0,38.21,8.18,55.25h-69.93c-2.45-6.67-3.24-13.31-4.08-20.36c-17.96,19.09-44.56,26.56-69.93,26.56 c-40.46,0-72.34-20.74-72.34-65.21c0-70.16,75.22-64.79,123.46-74.74c11.85-2.49,18.4-6.62,18.4-19.93 c0-16.22-19.19-22.39-33.52-22.39c-19.21,0-31.45,8.71-34.73,26.97H2096.21z M2322.72,417.01h65.83V151.02h-65.83V417.01z  M2487.93,307.78c0,30.1,10.87,63.59,43.54,63.59c34.76,0,42.3-33.49,42.3-61.47c0-31.8-11.32-61.08-42.3-61.08 C2498.8,248.83,2487.93,279.81,2487.93,307.78z M2642.44,420.17h-67.87v-25.46h-0.8c-13.81,20.78-34.74,31.79-59.88,31.79 c-68.23,0-97.13-59.36-97.13-121.27c0-57.24,30.12-111.51,91.68-111.51c26.8,0,47.33,10.19,61.97,30.11h0.87v-72.81h71.17V420.17z  M2694.18,217.52h-32.93v-66.5h65.83L2694.18,217.52z M1461.95,355.36h-31.99V212.69h31.99c41.35,0,59.89,27.68,59.89,70.02 C1521.84,329.32,1506.89,355.36,1461.95,355.36 M1468.39,151.02h-114.25v265.98h114.25c80.76,0,130.24-46.94,130.24-134.08 C1598.63,200.57,1549.87,151.02,1468.39,151.02 M975.36,417.01l29.01-106.47c3.29-12.43,6.54-26.99,7.79-34.34h0.83 c0.71,5.65,2.94,21.59,5.62,35.18l20.59,105.63h79.85l-55.93-265.98h-84.65l-33.9,133.6c-2.86,10.35-6.37,27.1-8.47,35.86h-0.81 h0.81h-0.81c-2.14-8.76-5.63-25.52-8.46-35.86l-33.93-133.6h-84.65L752.3,417.01h79.88l20.6-105.63 c2.67-13.59,4.87-29.53,5.61-35.18h0.8c1.27,7.35,4.52,21.92,7.79,34.34L896,417.01H975.36z M1720.9,372.63 c-30.4,0-42.58-25.65-42.58-60.13c0-34.44,12.18-60.1,42.58-60.1c30.36,0,42.55,25.65,42.55,60.1 C1763.45,346.98,1751.26,372.63,1720.9,372.63 M1720.9,198.52c-69.27,0-112.86,49.34-112.86,113.98c0,64.67,43.6,114,112.86,114 c69.25,0,112.82-49.34,112.82-114C1833.72,247.86,1790.15,198.52,1720.9,198.52 M2768.87,349.27c0,10.78,4.69,18.67,11.95,24.07 c6.8,4.99,15.64,7.49,25.86,7.49c14.08,0,34.1-5.81,34.1-22.85c0-16.62-22.59-19.93-35.37-22.85 c-45.59-11.22-104.62-12.44-104.62-70.59c0-51.93,59.46-66.02,102.93-66.02c48.59,0,99.29,13.69,101.85,69.75h-67.85 c0-9.13-3.43-14.93-9.38-18.68c-5.99-3.72-13.12-5.4-22.07-5.4c-11.93,0-31.11,1.24-31.11,16.21c0,20.35,50.49,24.08,83.74,31.13 c44.77,8.72,56.25,40.29,56.25,58.14c0,57.69-58.16,76.83-108.02,76.83c-52.43,0-106.14-17.02-108.26-77.24H2768.87z  M2888.77,164.33h2.67c2.23,0,4.31-0.1,4.31-2.75c0-2.21-1.87-2.55-3.63-2.55h-3.35V164.33z M2886.21,156.94h6.37 c3.87,0,5.73,1.58,5.73,4.78c0,2.99-1.89,4.25-4.31,4.52l4.68,7.35h-2.73l-4.46-7.15h-2.7v7.15h-2.57V156.94z M2891.69,177.42 c6.49,0,11.51-5.25,11.51-12.22c0-6.8-5.02-12.07-11.51-12.07c-6.57,0-11.59,5.27-11.59,12.07 C2880.1,172.17,2885.12,177.42,2891.69,177.42z M2891.69,151.02c7.64,0,14.05,6.17,14.05,14.18c0,8.18-6.42,14.32-14.05,14.32 c-7.69,0-14.16-6.14-14.16-14.32C2877.53,157.2,2884,151.02,2891.69,151.02z M412.27,36.57c49.49,0,89.62,212.86,89.62,475.43h71.69 c0-282.77-72.23-512-161.31-512c-50.69,0-95.89,68.89-125.47,176.62C257.23,68.89,212,0,161.33,0C72.24,0,0,229.23,0,512h71.71 c0-262.57,40.13-475.43,89.61-475.43c49.5,0,89.63,196.49,89.63,438.86h71.68C322.64,233.06,362.77,36.57,412.27,36.57  M607.4,491.74h3.56c2.99,0,5.73-0.15,5.73-3.67c0-2.95-2.49-3.4-4.8-3.4h-4.49V491.74z M603.99,481.88h8.46 c5.2,0,7.64,2.08,7.64,6.34c0,4.03-2.5,5.7-5.73,6.05l6.23,9.81h-3.65l-5.94-9.55h-3.61v9.55h-3.4V481.88z M611.3,509.21 c8.63,0,15.34-7.01,15.34-16.3c0-9.11-6.71-16.12-15.34-16.12c-8.76,0-15.44,7.01-15.44,16.12 C595.86,502.2,602.54,509.21,611.3,509.21z M611.3,474c10.2,0,18.75,8.17,18.75,18.91c0,10.9-8.55,19.08-18.75,19.08 c-10.25,0-18.87-8.18-18.87-19.08C592.43,482.18,601.05,474,611.3,474z" />
                </svg>
            