
                <svg version="1.0" id="merriam-webster" xmlns="http://www.w3.org/2000/svg" width="{{width}}px" height="{{height}}px"
                    viewBox="0 0 511.268 512">
                    <path d="M0,256.01C0,114.63,114.86,0.02,256.54,0l0,0c141.69,0.28,254.48,114.63,254.73,256.01l0,0 C511.02,397.39,398.23,511.75,256.54,512l0,0C114.86,512,0,397.39,0,256.01L0,256.01z M2.21,256.01 c0.25,140.14,113.87,253.52,254.32,253.77l0,0c140.48,0,252.52-113.62,252.52-253.77l0,0c0-140.17-112.04-253.78-252.52-253.78l0,0 C116.08,2.49,2.47,115.84,2.21,256.01L2.21,256.01L2.21,256.01z M16.95,256c0-131.83,106.86-238.67,238.69-238.69l0,0 C387.44,17.33,494.31,124.18,494.31,256l0,0c0,131.83-106.87,238.69-238.67,238.69l0,0C123.81,494.7,16.95,387.84,16.95,256 L16.95,256z M32.54,256c0.22,123.21,99.87,222.86,223.09,223.09l0,0c123.2-0.23,222.84-99.88,223.07-223.09l0,0 c-0.23-123.2-99.88-222.86-223.07-223.09l0,0C132.41,33.15,32.76,132.8,32.54,256L32.54,256L32.54,256z M310.09,310.83h7.72v33.54 c0,10.72,7.1,14.24,13.21,13.95c8.36-0.4,14.23-8.82,14.23-8.82l-0.57-3.29c-2.46,2.46-6.24,6.31-9.45,6.31 c-6.22-0.11-8.53-4.7-8.31-12.62v-29.07h16.08v-5.2h-16.08v-14.07h-2.57c-2.04,7.7-8.25,12.35-14.25,16.69L310.09,310.83  M306.22,306.63c-4.27-3.8-9.04-4.85-14.53-4.85c-8.43,0-16.27,5.8-16.27,15.63c0,20.43,26.71,11.48,26.71,25.88 c0,6.7-4.28,11.48-10.89,11.34c-8.12-0.16-13.16-6.87-13.36-15.45h-3.97l1.43,15.4c4.67,2.57,9.96,3.29,15.14,3.29 c9.85,0,19.59-5.4,19.59-17.25c0-19.65-27.81-13.72-27.81-26c0-6.15,4.47-10,9.65-10c7.1,0,10.56,5.53,10.56,12.67h3.56 L306.22,306.63z M230.24,354.21c3.44,2.12,7.86,3.78,11.85,3.78c19.61,0,28.08-14.04,28.08-29.34c0-17.3-7.73-26.36-20.98-26.36 c-1.72,0-3.34,0.34-5.06,0.56l-8.72,5.59l1.08,0.89c2.26-0.79,4.74-1.23,7.11-1.23c12.82,0,18.49,11.94,18.49,23.88 c0,12.39-5.45,23.06-16.77,23.06c-7.43,0-11.91-5.2-11.91-12.57v-72.45l-2.09-0.79c-4.42,2.02-9.97,3.79-15.14,4.46l0.07,1.84 c3.12,0,5.55,0.56,8.46,2.01l-0.07,57.99c0,7.26,0.15,14.29-0.39,21.88l1.94,0.89L230.24,354.21z M115.97,279.17v2.89l7.65,1.57 l1.58,2.71c-1.05,4.12-18.01,52.21-18.01,52.21l-17.33-54.02l8.99-2.48l0.23-2.89l-29.54-0.06l-0.05,2.7l10,2.28l23.64,74.27h3.37 l21.38-59.41l20.04,59.19l3.6,0.04l25.69-74.08l9.19-2.54v-2.63h-26.2v2.63l10.17,2.54l-18.93,54.21c0,0-16.21-48.74-17.25-52.64 l1.35-2.25l8.78-1.39v-2.89L115.97,279.17z M369.33,210.35c3.75-2.87,8.06-6.38,12.71-6.38c10.28,0,10.02,10.95,10.02,19.66v21.93 l-8.4,2.06v2.28h25.19v-2.28l-8.4-2.06v-35.21c3.75-2.87,8.68-5.71,13.33-5.71c10.27,0,9.4,10.28,9.4,18.99v21.93l-8.4,2.06v2.28 h24.81v-2.28l-8.01-2.06v-30.43c0-10.52-5.2-16.34-16.38-16.68c-1.28-0.04-3.45,0.43-6.62,2.87l-8.08,6.92 c-2.77-5.42-8.15-9.68-14.47-9.68c-4.15,0-5.53,0.53-8.8,3.08l-7.9,5.1v-7.55l-2.27-0.74c-4.06,1.91-9.98,3.61-14.72,4.25 l-0.05,1.83c2.86,0,5.92,0.53,8.59,1.91l0.05,39.12l-8.4,1.81v2.54h25.19v-2.28l-8.4-2.06L369.33,210.35 M350.38,247.16l-1.43-2.23 l-7.43-0.68l-0.19-32.73c0-9.35-3.97-13.45-10.43-13.45c-1.21,0-2.52-0.11-3.63,0.53l-11.91,7.12c-1.21,0.74-5.45,3.19-5.55,4.99 l-0.41,5.91l0.71,0.43l6.05-1.27c0.91-0.21,1.81-0.11,1.72-1.38c-0.3-5.53-0.67-10.2,8.58-11.47c4.5-0.62,7.07,3.61,7.07,11.79v8.01 c-5.15,1.59-10.8,3.82-16.86,5.84c-4.54,1.49-11.39,3.57-11.39,12.39c0,4.14,4.9,9.77,11.26,9.61c6.56-0.17,11.84-2.7,16.88-6.74 l-0.3,7.06C333.13,250.87,345.24,248.11,350.38,247.16z M322.13,245.51c-4.04,0-8.29-2.84-8.29-6.66c0-7.44,7.88-9.45,19.7-13.52 v15.5h0C330.3,242.86,325.25,245.51,322.13,245.51z M295.17,180.39c0-2.69-2-5.09-4.64-5.09c-2.55,0-4.46,2.59-4.46,5.09 c0,2.4,2.18,4.51,4.46,4.51C292.9,184.89,295.17,182.97,295.17,180.39z M304.9,250.29v-2.41l-9.5-1.81V199.2l-1.92-0.74 c-4.14,1.91-10.2,3.61-15.04,4.25v2.41c2.93,0,6.05,0.53,8.78,1.91v39.05l-9.89,1.81v2.41H304.9z M216.74,198.46 c-4.22,1.91-10.41,3.61-15.35,4.25v2.41c2.98,0,6.18,0.53,8.97,1.91v38.66l-9.48,1.81v2.8h27.24v-2.8l-9.26-1.81v-26.31 c0-1.91,4.84-14.07,10.81-14.07c1.34,0,3.15,0.95,4.28,1.8l2.7,0.23l1.8-6.98c-1.64-1.27-5.94-1.58-8.1-1.58 c-5.46,0-7.11,6.36-9.37,10.71l-1.85,2.97V199.2L216.74,198.46z M158.19,178.76l-0.13-2.61h-22.05l-22.26,54.5l-22.77-54.5H68.53 l-0.13,2.61l10.92,1.81l-6.05,65.09l-8.76,1.81v2.83h24.31v-2.83l-9.58-1.81l5.25-58.99l0.72-2.05l26.41,63.7h1.23l25.43-62.92 l0.94,1.7l5.05,58.57l-10.62,1.81v2.83h29.78v-2.83l-8.94-1.81l-6.71-65.09L158.19,178.76z M186.3,245.48 c-0.29,0-0.57-0.02-0.86-0.02c-16.51-0.98-18.89-13.67-18.62-27.78h28.66v0c3.12-0.08,3.83-0.04,3.9-4.04 c0-8.77-7.49-14.96-18.13-14.96c-12.56,0-22.65,9.32-22.67,26.12c0.02,17.11,10,26.41,22.67,26.43c5.21,0,8.95-0.77,9.52-1.1 l7.7-7.67l4.33-4.51l-2.68-0.31C196.26,241.82,192.23,245.48,186.3,245.48z M179.7,201.26c8.34,0,11.75,6.37,11.34,14.24h-24.01 C167.54,208.48,172.18,201.26,179.7,201.26z M202.98,237.76l-1.1-0.09l0.99,0.2L202.98,237.76z M167.03,217.89h0.87H167.03 C167.03,217.89,167.03,217.89,167.03,217.89z M185.47,245.23c6.28,0.37,10.48-3.38,14.49-7.73l1.93,0.16l-1.92-0.39 c-4.01,4.23-7.95,7.76-13.67,7.76c-0.27,0-0.57,0-0.82-0.02c-16.19-0.98-18.4-13.17-18.44-27.12h-0.21 C166.82,231.81,169.12,244.25,185.47,245.23z M202.88,237.87l-0.09,0.09l0.17,0.02l-4.5,4.49l-7.53,7.83 c-0.72,0.43-4.44,1.17-9.69,1.17c-12.77,0-22.88-9.45-22.88-26.66c0-16.89,10.2-26.34,22.88-26.34c10.72,0,18.37,6.27,18.37,15.19 c0,4.04-1.03,4.25-4.12,4.25v0h-27.58l27.57,0.23v0c3.07-0.02,4.35-0.41,4.35-4.48c-0.02-9.07-7.79-15.39-18.58-15.41 c-12.8,0.02-23.09,9.6-23.11,26.57c0.02,17.29,10.21,26.84,23.11,26.89c5.29-0.02,8.97-0.72,9.79-1.19l12.1-12.58L202.88,237.87z  M406.1,301.67c-4.44,2.02-10.94,3.8-16.14,4.46v2.53c3.14,0,6.5,0.56,9.43,2.02v40.63l-9.97,1.9v2.94h28.64v-2.94l-9.74-1.9v-27.65 c0-2.01,5.08-14.78,11.37-14.78c1.41,0,3.3,1,4.49,1.89l2.84,0.24l1.89-7.32c-1.73-1.35-6.24-1.67-8.51-1.67 c-5.74,0-7.47,6.68-9.85,11.27l-1.94,3.13v-13.96L406.1,301.67 M389.19,356.15l0.18-3.16l9.78-1.68l0.12-40.42 c-2.88-1.42-6.2-2-9.53-2.21l0,0l0.19-2.76c5.17-0.67,11.65-2.45,16.08-4.45l0,0l0.09,0.21l0.06-0.23l2.64,0.99l-0.41,13.85 l1.94-3.12c2.37-4.5,4.09-11.34,10.06-11.37l0,0c2.3,0.02,6.8,0.3,8.73,1.94l0,0l-2.13,7.5l-2.95-0.28 c-1.15-0.88-3.06-1.86-4.35-1.86l0,0c-6,0.03-11.14,12.69-11.16,14.57l0,0l-0.18,27.43l9.93,2.12l-0.24,3.18L389.19,356.15 L389.19,356.15z M390.19,306.14l-0.23,2.29c3.16,0,6.56,0.57,9.65,2.25l0,0l-0.17,40.84l-9.79,1.68l-0.22,2.73l28.41,0.22l0.17-2.73 l-9.91-2.12v-27.64c0.05-2.15,5.02-14.89,11.59-15.02l0,0c1.51,0.02,3.39,1.04,4.51,1.9l0,0l2.58,0.41l1.97-7.1 c-1.6-1.27-6.13-1.61-8.36-1.61l0,0c-5.53-0.04-7.26,6.51-9.66,11.16l0,0l-2.38,2.99l0.16-13.74l-2.4-0.76 C401.65,303.9,395.19,305.69,390.19,306.14L390.19,306.14z M180.62,320.15c0.55-7.4,5.44-15.03,13.39-15.03 c8.81,0,12.4,6.73,11.97,15.03H180.62 M210.67,322.68c3.27,0,4.36-0.22,4.36-4.48c0-9.42-8.08-16.04-19.4-16.04 c-13.38,0-24.15,9.98-24.15,27.81c0,18.16,10.67,28.15,24.15,28.15c5.55,0,9.47-0.79,10.23-1.23l12.73-13.24l-3.19-0.27 c-4.25,4.61-8.68,8.56-15.3,8.17c-17.26-1.03-19.7-14.17-19.7-28.87H210.67z M355.13,319.78c0.54-7.4,5.44-15.03,13.39-15.03 c8.81,0,12.4,6.73,11.97,15.03H355.13 M385.18,322.32c3.26,0,4.36-0.23,4.36-4.48c0-9.43-8.08-16.04-19.4-16.04 c-13.38,0-24.15,9.99-24.15,27.81c0,18.17,10.67,28.16,24.15,28.16c5.55,0,9.47-0.79,10.23-1.24l12.73-13.23l-3.2-0.27 c-4.24,4.6-8.67,8.56-15.29,8.16c-17.26-1.03-19.69-14.16-19.69-28.86L385.18,322.32L385.18,322.32z M439.49,221.36h20v7.35h-20 V221.36z M255.09,198.46c-4.22,1.91-10.41,3.61-15.35,4.25v2.41c2.98,0,6.18,0.53,8.97,1.91v38.66l-9.48,1.81v2.8h27.24v-2.8 l-9.26-1.81v-26.31c0-1.91,4.84-14.07,10.81-14.07c1.34,0,3.15,0.95,4.28,1.8l2.7,0.23l1.8-6.98c-1.64-1.27-5.94-1.58-8.1-1.58 c-5.46,0-7.11,6.36-9.37,10.71l-1.85,2.97V199.2L255.09,198.46z" />
                </svg>
            