
                <svg version="1.0" id="nbc-news" xmlns="http://www.w3.org/2000/svg" width="{{width}}px" height="{{height}}px"
                    viewBox="0 0 3660.489 512">
                    <path d="M4.15,360.07c22.02-57.57,82.97-77.9,137.17-43.17l234.52,163.4H91.38c-59.27,0-105.83-54.18-87.23-120.21V360.07z  M751.73,480.3h-288.7l234.5-163.4c57.59-38.1,118.52-3.39,134.63,46.56c16.94,55.86-21.18,116.82-80.43,116.82V480.3z  M725.48,277.96L475.72,449.83L593.4,176.36c35.57-86.38,118.55-69.44,148.16-36.41C773.73,172.13,783.05,237.32,725.48,277.96z  M598.5,123.03L474.04,418.51l-39.8-266.68c-3.37-40.62,22.02-41.49,31.32-49.11l-14.4-5.94h-23.72 c-2.53-69.42,51.65-99.9,95.69-96.53C570.54,1.93,623.86,56.98,598.48,123L598.5,123.03z M408.01,108.61l-44.03,309.88 l-125.3-294.64C211.58,50.18,272.54,1.93,313.19,1.09C359.74-3.98,418.18,31.57,408.01,108.61z M241.04,173.82l121.07,276.85 L112.35,279.65c-62.66-41.49-49.95-112.61-15.24-143.93c49.11-41.49,118.5-27.09,143.91,38.1H241.04z M3537.38,35.96 c8.17,0,50.77,2.33,91.61,26.85v86.94c-23.92-15.17-55.44-35.59-85.76-35.59c-36.77,0-60.09,27.42-60.09,52.5 c0,63.59,177.35,57.77,177.35,198.35c0,46.67-33.27,142.93-150.53,142.93c-2.33,0-38.5,3.5-101.51-29.17v-96.84 c35.02,37.92,78.76,47.82,95.69,47.82c37.92,0,65.34-29.73,65.34-65.9c0-69.44-172.68-56.59-172.68-197.2 C3396.8,90.22,3462.14,35.96,3537.38,35.96z M2914.33,48.2l117.86,261.37l42-93.92l-78.76-167.43h92.76l29.17,69.42l28-69.42h91.01 l-75.27,166.85l42.02,94.51l112.59-261.37h99.76l-204.2,463.2l-91.59-196.6L3028.67,512l-210-463.8H2914.33z M2658.23,125.8v103.84 h145.26v78.76h-145.26v106.76h145.26v78.74h-236.27V48.2h236.27v77.59H2658.23z M2155.34,31.28l279.42,266.02V48.18h90.44v461.47 l-278.87-271.29v256.12h-91.01V31.26L2155.34,31.28z M2036.71,140.39c-95.69-63.59-225.2,1.17-233.35,119.01 c-3.5,142.93,137.68,201.85,233.35,140.01V491c-169.18,63.02-324.38-56.02-324.94-228.67c0.58-146.45,162.18-275.94,324.94-211.2 V140.39z M1619.6,257.03c0,0,54.84-30.92,52.5-97.42c-2.92-89.26-85.76-111.44-114.94-111.44h-190.75v445.7v0.02h217.02 c51.32,0,111.41-50.17,111.41-118.44C1694.85,305.45,1649.35,271.03,1619.6,257.03z M1458,122.89v-0.02h67.67 c22.77,1.75,50.17,19.27,50.17,50.77c0,29.75-21,50.77-48.42,54.27H1458V122.89z M1539.09,422.14h-80.51V304.3h82.84 c18.67,0.58,53.09,19.25,53.09,58.34C1594.51,402.89,1559.51,420.39,1539.09,422.14z M942.86,31.28L1222.3,297.3V48.18h90.42v461.47 l-278.87-271.29v256.12h-90.99V31.26V31.28z" />
                </svg>
            