
                <svg version="1.0" id="new-relic" xmlns="http://www.w3.org/2000/svg" width="{{width}}px" height="{{height}}px"
                    viewBox="0 0 630.709 512">
                    <path d="M243.53,235.59l-18.51-38.8c-4.42-9.17-8.96-19.58-10.5-24.47l-0.36,0.36c0.6,6.92,0.71,15.64,0.83,22.92l0.48,39.99h-13.48 v-82.6h15.53l20.06,40.33c3.36,6.86,6.2,13.96,8.48,21.25l0.36-0.36c-0.36-4.18-1.19-15.99-1.19-23.52l-0.24-37.72h13.02v82.62 H243.53z M282.59,208.97v0.92c0,8.36,3.11,17.19,14.92,17.19c5.61,0,10.5-2.03,15.04-5.97l5.13,8c-6.02,5.23-13.75,8.08-21.72,8 c-17.07,0-27.82-12.29-27.82-31.63c0-10.62,2.27-17.66,7.53-23.64c4.89-5.61,10.86-8.12,18.51-8.12c6.13-0.19,12.09,2.04,16.59,6.21 c5.25,4.78,7.88,12.17,7.88,26.26v2.75L282.59,208.97z M294.17,183.66c-7.4,0-11.46,5.85-11.46,15.64h22.32 C305.03,189.51,300.73,183.66,294.17,183.66 M388.43,235.83h-12.29l-7.39-27.82c-1.91-7.16-3.94-16.5-3.94-16.5h-0.24 c0,0-0.92,5.97-3.94,17.07l-7.28,27.21h-12.31l-16.5-59.81l13.02-1.83l6.56,29.25c1.67,7.53,3.11,15.88,3.11,15.88h0.36 c0.88-5.47,2.04-10.88,3.46-16.23l7.76-27.94h12.9l6.81,27.31c2.51,9.79,3.82,17.19,3.82,17.19h0.36c0,0,1.43-9.17,2.99-16.23 l6.21-28.18h13.61L388.43,235.83z M233.16,341.91L226,329.14c-5.74-10.15-9.56-15.88-14.1-20.4c-1.33-1.59-3.3-2.51-5.37-2.51v35.69 h-13.48v-82.6h25.19c18.5,0,26.86,10.74,26.86,23.64c0,11.82-7.64,22.68-20.53,22.68c2.99,1.55,8.48,9.55,12.77,16.5l12.18,19.82 L233.16,341.91z M214.06,270.42h-7.54v26.14h7.04c7.16,0,11-0.92,13.48-3.46c2.27-2.26,3.67-5.73,3.67-10.03 c0-8.36-4.54-12.66-16.71-12.66 M267.53,315.29v0.92c0,8.36,3.11,17.19,14.92,17.19c5.61,0,10.5-2.03,15.04-5.97l5.13,7.99 c-6.02,5.23-13.75,8.08-21.72,8c-17.07,0-27.82-12.29-27.82-31.63c0-10.62,2.27-17.66,7.53-23.64c4.89-5.61,10.86-8.12,18.51-8.12 c6.13-0.19,12.09,2.04,16.59,6.21c5.25,4.78,7.88,12.17,7.88,26.26v2.75L267.53,315.29z M279.11,289.98 c-7.4,0-11.46,5.85-11.46,15.64h22.32C289.97,295.83,285.67,289.98,279.11,289.98 M328.17,343.22c-13.25,0-13.25-11.92-13.25-17.07 V274.7c0.15-5.91-0.24-11.82-1.15-17.66l13.49-2.99c0.92,3.67,1.07,8.72,1.07,16.59v51.21c0,8.11,0.36,9.43,1.31,10.86 c1.07,1.23,2.82,1.6,4.3,0.92l2.14,8.12c-2.51,0.99-5.18,1.47-7.87,1.43 M350.97,272.55c-4.73-0.04-8.52-3.91-8.48-8.64 c0-0.03,0-0.05,0-0.08c0.04-4.78,3.94-8.62,8.72-8.59c4.78,0.04,8.62,3.94,8.59,8.72c-0.04,4.78-3.94,8.62-8.72,8.59 C351.04,272.56,351.01,272.55,350.97,272.55 M344.41,341.91v-59.45l13.25-2.38v61.83H344.41z M395.25,343.46 c-16.5,0-25.67-11.58-25.67-31.04c0-22,13.14-32.47,26.58-32.47c6.56,0,11.34,1.55,16.71,6.56l-6.54,8.72 c-3.58-3.23-6.68-4.66-10.15-4.66c-4.12-0.07-7.88,2.33-9.55,6.09c-1.83,3.67-2.5,9.31-2.5,16.83c0,8.25,1.31,13.49,4.06,16.5 c2.06,2.27,4.99,3.54,8.06,3.48c4.18,0,8.25-2.03,12.17-5.97l6.21,7.99c-5.5,5.5-11.22,8-19.34,8 M284.9,512 c-67.35,0-132.09-18.26-182.32-51.4c-25.25-16.66-46.44-36.66-62.95-59.44C22.71,378,10.81,351.57,4.69,323.55 c-14.37-66.07,4.58-135.19,53.26-194.62C106.52,69.71,178.83,27.19,261.68,9.17c27.64-6.05,55.84-9.12,84.14-9.17 c67.34,0,132.08,18.26,182.31,51.4c25.25,16.66,46.44,36.66,62.96,59.44c16.92,23.15,28.82,49.58,34.94,77.59 c14.36,66.07-4.58,135.19-53.26,194.62c-48.58,59.22-120.89,101.74-203.73,119.77C341.4,508.88,313.2,511.95,284.9,512 M345.84,6.44 c-27.83,0.04-55.58,3.06-82.77,9C181.63,33.15,110.55,74.91,62.93,133.01c-47.44,57.88-65.9,125.08-51.94,189.2 c11.66,53.65,44.57,99.65,95.16,133.05c49.19,32.47,112.68,50.34,178.74,50.34c27.83-0.04,55.58-3.06,82.77-9 c81.44-17.71,152.51-59.46,200.13-117.56c47.44-57.88,65.9-125.08,51.95-189.19c-11.65-53.66-44.57-99.66-95.16-133.06 C475.39,24.32,411.9,6.43,345.84,6.44 M346.76,482.23c-123.08,0.01-222.86-99.76-222.87-222.84 c-0.01-123.08,99.76-222.86,222.84-222.87c123.08-0.01,222.86,99.76,222.87,222.84c0,59.11-23.48,115.8-65.27,157.6 C462.62,458.88,405.89,482.39,346.76,482.23 M346.76,42.97c-119.54,0.02-216.43,96.93-216.41,216.47 c0.02,119.54,96.93,216.43,216.47,216.41c119.54-0.02,216.43-96.93,216.41-216.47c-0.01-57.39-22.81-112.43-63.39-153.02 C459.32,65.63,404.2,42.8,346.76,42.97 M303.97,420.28c-92.58,0-167.84-75.3-167.84-167.86S211.42,84.6,303.97,84.6 S471.8,159.88,471.8,252.43S396.51,420.28,303.97,420.28 M303.97,90.86c-89.09,0-161.58,72.48-161.58,161.56 s72.49,161.6,161.58,161.6s161.57-72.49,161.57-161.6S393.05,90.86,303.97,90.86" />
                </svg>
            