
                <svg version="1.0" id="pencilbrush" xmlns="http://www.w3.org/2000/svg" width="{{width}}px" height="{{height}}px"
                    viewBox="0 0 448 512">
                    <path d="M107.6,419.5L0,448l28.4-107.6L107.6,419.5z M174.7,246.2l55.1,51.1L119.1,408.4l-79.6-79.6l92.4-92 C147.1,241.7,162.2,244.8,174.7,246.2z M200,236.4l56.4-56.5L448,385.3L405.8,428L200,236.4z M8.4,54.6c0,0-8.4-2.7-8.4-11.1 c0-8.9,11.6-11.1,11.6-11.1s238.7-16.4,231.1,133.4l-57.3,56.9c-28,0-107.1-15.1-117.3-93.4C68,129.2,56,66.1,8.4,54.6z M440.9,85.7 l-22.2,23.1l-79.6-79.6L361.8,7c14.7-14.7,40-4.9,62.2,16.9C445.8,46.1,455.1,71.4,440.9,85.7z M407.1,120.3l-89.8,89.8l-51.1-54.7 c0-16-2.7-31.1-8.4-44.5l69.8-70.2L407.1,120.3z" />
                </svg>
            