
                <svg version="1.0" id="pied-piper" xmlns="http://www.w3.org/2000/svg" width="{{width}}px" height="{{height}}px"
                    viewBox="0 0 2088.572 512">
                    <path d="M36.6,442.32L0,511.12V136.27C0,60.86,60.86,0,136.27,0h374.41C404.4,33.07,293.71,107.6,220.5,192.72 C139.8,285.77,94.37,349.71,36.6,442.32 M511.56,0c0,0-163.17,76.29-213,190.95c-26.46,61.3-33.07,134.95-81.14,181.25 c-33.07,31.75-79.38,43.66-119.95,64.39C71,450.26,21.61,482.89,0.44,512h374.85c75.41,0,136.27-60.86,136.27-136.27 C511.56,375.73,511.56,0,511.56,0z M700.75,267.69v-97.02c0-2.21,1.76-3.97,3.97-3.97h61.3c11.47,0,21.17,4.85,21.17,21.17v76.73 c0,11.91-9.7,21.17-21.17,21.17h-48.07C708.69,284.44,701.19,276.95,700.75,267.69 M680.9,137.15c-6.61,0-11.47,4.85-11.47,11.02 v254.02h26.9c2.21,0,3.97-1.76,3.97-3.97v-94.37c4.41,5.73,13.23,11.47,24.25,11.47h41.01c28.66,0,52.04-20.29,52.04-50.27v-77.62 c0-35.28-23.37-50.27-52.04-50.27C765.57,137.15,680.9,137.15,680.9,137.15z M861.71,137.15v174.19c0,2.21,1.76,3.97,3.97,3.97h26.9 V140.68c0-2.21-1.76-3.53-3.97-3.53H861.71z M861.71,57.33v29.11c0,2.21,1.76,3.97,3.97,3.97h26.9V61.3c0-2.2-1.76-3.97-3.97-3.97 H861.71z M968.43,206.83v-19.4c0-14.11,9.26-21.17,21.17-21.17h48.95c14.11,0,20.73,6.61,20.73,21.17v19.4 c0,2.21-1.76,3.97-3.97,3.97H972.4C969.76,210.36,968.43,208.59,968.43,206.83 M989.6,137.15c-28.66,0-52.04,17.64-52.04,50.71 v75.41c0,28.66,22.93,52.04,52.04,52.04h92.17v-25.58c0-2.2-1.76-3.97-3.97-3.97h-88.2c-11.91,0-21.17-9.26-21.17-21.17v-31.75 c3.09,4.41,8.38,6.61,14.11,6.61h97.46c8.38,0,9.26-4.85,9.26-11.02v-41.01c0-33.07-22.93-50.71-52.04-50.71H989.6V137.15z  M1160.71,264.6v-76.73c0-11.91,9.26-21.17,21.17-21.17h48.07c8.82,0.88,16.32,8.38,17.2,18.08v97.02c0,2.2-1.76,3.53-3.97,3.53 h-61.3C1169.97,285.77,1160.71,276.51,1160.71,264.6 M1250.67,48.07c-2.21,0-3.97,1.76-3.97,3.97v96.58 c-4.41-6.17-13.23-11.47-24.7-11.47h-41.45c-28.66,0-51.16,22.93-51.16,52.04v74.09c0,28.66,22.93,52.04,52.04,52.04h84.67 c6.61,0,11.47-4.85,11.47-11.47V48.07C1277.57,48.07,1250.67,48.07,1250.67,48.07z M1368.42,267.69v-97.02 c0-2.21,1.76-3.97,3.97-3.97h60.86c11.47,0,21.17,4.85,21.17,21.17v76.73c0,11.91-9.7,21.17-21.17,21.17h-48.07 C1375.92,284.44,1368.86,276.95,1368.42,267.69 M1348.58,137.15c-6.61,0-11.47,4.85-11.47,11.02v254.02h26.9 c2.21,0,3.97-1.76,3.97-3.97v-94.37c4.41,5.73,13.23,11.47,24.26,11.47h41.01c28.66,0,52.04-20.29,52.04-50.27v-77.62 c0-35.28-23.37-50.27-52.04-50.27L1348.58,137.15L1348.58,137.15z M1529.39,137.15v174.19c0,2.21,1.76,3.97,3.97,3.97h26.9V140.68 c0-2.21-1.76-3.53-3.97-3.53H1529.39z M1529.39,57.33v29.11c0,2.21,1.76,3.97,3.97,3.97h26.9V61.3c0-2.2-1.76-3.97-3.97-3.97 H1529.39z M1636.99,267.69v-97.02c0-2.21,1.76-3.97,3.97-3.97h61.3c11.47,0,21.17,4.85,21.17,21.17v76.73 c0,11.91-9.7,21.17-21.17,21.17h-48.07C1644.93,284.44,1637.87,276.95,1636.99,267.69 M1617.59,137.15 c-6.61,0-11.47,4.85-11.47,11.02v254.02h26.9c2.2,0,3.97-1.76,3.97-3.97v-94.37c4.41,5.73,13.23,11.47,24.25,11.47h41.01 c28.66,0,52.04-20.29,52.04-50.27v-77.62c0-35.28-23.37-50.27-52.04-50.27L1617.59,137.15L1617.59,137.15z M1827.94,206.83v-19.4 c0-14.11,9.26-21.17,21.17-21.17h48.95c13.67,0,20.73,6.61,20.73,21.17v19.4c0,2.21-1.76,3.97-3.97,3.97h-82.91 C1829.26,210.36,1827.94,208.59,1827.94,206.83 M1849.11,137.15c-28.66,0-52.04,17.64-52.04,50.71v75.41 c0,28.66,22.93,52.04,52.04,52.04h92.17v-25.58c0-2.2-1.76-3.97-3.97-3.97h-88.2c-11.91,0-21.17-9.26-21.17-21.17v-31.75 c3.09,4.41,8.38,6.61,13.67,6.61h97.46c8.38,0,9.26-4.85,9.26-11.02v-41.01c0-33.07-22.93-50.71-52.04-50.71h-47.19L1849.11,137.15z  M2047.12,137.15c-11.02,0-19.84,5.29-24.25,11.47v-7.94c0-2.21-1.76-3.53-3.97-3.53h-26.9v174.19c0,2.21,1.76,3.97,3.97,3.97h26.9 v-132.3c0.88-8.38,7.5-15.88,17.2-15.88h44.54c2.21,0,3.97-1.76,3.97-3.97v-25.58h-41.45V137.15z" />
                </svg>
            