
                <svg version="1.0" id="stanford" xmlns="http://www.w3.org/2000/svg" width="{{width}}px" height="{{height}}px"
                    viewBox="0 0 2147.686 512">
                    <path d="M103.283,343.872c-1.241,0.65-2.448,1.453-3.622,2.389H0.154v102.358L63.043,512h211.686l61.659-61.59V259.153 l-63.894-61.747h-79.853c-0.268-5.858,0.962-11.029,0.962-11.029c8.537-4.202,17.254,6.39,17.254,6.39 c4.078-0.345,9.231,2.602,9.231,2.602c6.056-1.989,24.227,2.705,25.053,1.376c0.694-10.849-3.733-17.466-7.362-21.008h98.633V71.881 L266.148,0H73.279L0,72.776V260l63.649,63.649h57.894c-1.329,3.399-2.705,6.21-2.705,6.21L103.283,343.872z M210.13,158.505 c-2.088-0.962-4.848-0.984-4.848-0.984l-3.821-4.125c0-8.581-9.341-6.247-9.341-6.247l0.782-4.669c2.558,0,9.656,1.013,17.254,2.066 v13.954h-0.026V158.505z M202.944,357.081l12.86,0.514v31.02h-30.573l-0.022-5.252l0.334-28.161 c0.525-6.794,5.586-2.749,5.586-2.749C195.416,356.769,202.944,357.081,202.944,357.081z M210.13,128.108 c-0.367-0.132-0.738-0.323-1.105-0.481h1.105V128.108z M67.077,315.358L8.405,256.69V76.549L76.601,8.654h185.914l66.254,67.939 v90.812H227.472c-0.727-1.171-1.207-2.088-1.207-2.088c-1.787-3.252-4.929-4.459-7.766-4.87v-14.762 c8.012,1.05,14.927,1.787,15.745,0.962c3.755-3.777-5.924-9.844-15.745-14.673v-12.581h-27.413 c-6.816-4.584-7.876-8.537-7.876-8.537c-2.334-14.806,14.013-8.761,14.013-8.761c8.647,0.661,10.434-4.257,10.434-4.257 c-3.34-9.667-15.543-12.772-17.488-13.602c-2.312-0.962-2.679-1.835-1.787-3.608c0.613-1.219,7.186,1.754,9.319-0.345 c4.87-4.896-12.09-15.723-12.09-15.723c11.04-0.613-1.141-11.899-1.141-11.899c-7.34-5.81-4.782-10.919-4.782-10.919 c7.755,0.782,7.733-7.34,6.526-7.645c-11.422-2.613-9.476-7.072-9.476-7.072c0-3.89-1.901-7.92-1.901-7.92 c1.553-6.995-1.608-5.597-1.608-5.597c-4.661,0-1.967,4.169-1.967,4.169c-1.685,7.039-6.537,11.91-6.537,11.91 c-10.537-0.202-5.039,9.689-5.039,9.689l6.548-0.591l-1.53,6.401c-15.198,6.639-11.04,17.577-2.378,18.582 c0.771,1.967-0.459,3.733-0.459,3.733c-9.018,0.389-7.219,3.846-14.839,7.557c-5.902,2.925-5.766,5.942-5.307,8.078 c0.87,4.257,6.57,0.202,6.57,0.202l-5.608,7.619c-18.762,8.346-2.213,13.8-2.213,13.8c14.762-8.827,20.527-5.454,20.527-5.454 c2.334,9.275-2.294,15.844-7.689,20.146h-29.02c0,2.65,0,7.252,0,13.04c-9.087,6.291-12.402,14.714-12.402,14.714 c-6.225,6.247-3.12,9.344-3.12,9.344c3.094,1.553,9.653-0.962,15.499-3.857c0,5.821,0,11.888,0,17.745 c-0.481,0.224-0.804,0.389-0.804,0.389c-3.89,7.777-18.692,14.024-18.692,14.024c-17.9,7.751-9.341,17.922-9.341,17.922 c2.859,0.481,17.734-2.595,28.84-4.995c0,3.575,0,6.46,0,8.357c3.52,0,13.319,0,26.205,0c-3.296,5.597-9.084,11.418-9.084,11.418 c-2.36,7.777-11.679,10.919-11.679,10.919c-24.921,6.214-23.387,14.773-23.387,14.773l18.692-1.553c5.454-4.661,9.363,0,9.363,0 l6.225,1.553c3.142,4.672-1.486,18.505-1.486,18.505h-12.449c-0.782,4.694-9.341,4.65-9.341,4.65 c-3.89-1.519-8.581,3.149-8.581,3.149c-1.552,3.109-8.559,6.236-8.559,6.236c-6.225,1.519-1.552,4.65-1.552,4.65 c5.465-3.89,5.465,4.65,5.465,4.65c-1.552,3.909-14.226,3.733-14.024,7.017c0.393,5.81,42.842-11.712,42.842-11.712 c5.439-4.602,9.33-2.279,9.33-2.279c3.898,6.214-7.777,13.991-7.777,13.991c-4.668,5.45-12.269,8.449-12.269,8.449 c-17.98,2.907-20.003,13.319-20.182,14.861C81.651,315.358,67.077,315.358,67.077,315.358z M135.254,146.382 c8.581-8.585,14.806,0,14.806,0c14.806,5.461,4.694,10.882,4.694,10.882c-1.945,0-13.385,5.153-21.878,9.065v-18.461 C134.359,146.995,135.254,146.382,135.254,146.382z M132.872,128.068v-0.437h1.252C133.687,127.767,133.283,127.932,132.872,128.068 z M136.715,194.865c14.024-5.421,14.806,2.378,14.806,2.378c0.044,0.048,0.07,0.07,0.114,0.136h-18.762v-1.6 C135.254,195.232,136.715,194.865,136.715,194.865z M162.898,356.545c2.536,5.226,3.017,19.485,3.017,19.485v2.907l-0.279,9.722 h-28.07v-25.523c6.181-4.492,10.335-12.941,10.335-12.941C155.826,346.892,160.347,351.315,162.898,356.545z M103.004,315.358 l19.085-3.912c1.53,0.206,1.92,1.747,1.743,3.912C116.503,315.358,109.486,315.358,103.004,315.358z M121.975,369.571 c2.334-3.953,6.225-3.887,6.225-3.887c0.279,0.044,0.525,0.022,0.782,0.066c0,10.192,0,24.851,0,31.578c5.509,0,20.483,0,37.043,0 l-0.661,14.728c-0.18,6.617-0.613,20.737-1.152,24.759c-1.575,11.957-4.301,13.635-5.99,14.732 c-2.378,1.497-5.876,2.121-11.007,4.312c-12.618,5.318-11.532,18.615-17.621,22.484c-7.443,4.738-5.399,3.219-12.013,4.691 c-6.639,1.475-10.214,8.827-10.214,8.827h135.228c-0.525-4.18,0.389-7.957-15.452-13.209c-15.444-5.12-7.645-7.887-27.545-18.01 c-7.164-3.622-10.941-16.494-12.908-26.128c-1.486-7.329-0.606-10.68-0.606-10.68l-0.771-22.194l-0.022-4.312 c17.298,0,33.157,0,38.853,0c0-6.192,0.022-22.572,0.022-39.289c9.253,1.589,24.719,13.837,24.719,13.837 c16.358,9.366,13.253-0.807,13.253-0.807c-4.672-33.432-24.15-36.559-24.15-36.559c-11.668-3.134-3.89-10.152-3.89-10.152 c14.035-10.882-2.536-13.877-2.536-13.877c-10.893,1.497-22.451-5.854-22.451-5.854c-19.478-14.817-12.358-24.315-12.358-24.315 c1.552-10.126,24.697,4.892,24.697,4.892c6.225,5.454,12.449,0.738,12.449,0.738c0.771-3.105,8.034-8.761,8.034-8.761 c13.242-10.126-18.707-12.427-18.707-12.427c-15.198-9.499-24.528-12.717-29.042-24.627c-1.274-3.344-1.34-5.568-1.34-5.568 s23.933,2.224,25.266,2.525c1.34,0.29,9.968,1.252,9.744-1.765c-0.154-2.213-4.368-8.739-14.145-13.139 c-8.559-3.824-15.881-11.341-18.828-16.204c36.775,0,73.896,0,73.896,0l60.008,57.589v182.431l-58.631,58.664H67.392L8.537,445.133 v-90.199h83.046c-9.565,13.165-15.286,31.6-15.286,31.6c-0.782,9.344,12.269,1.567,12.269,1.567s1.307-2.349,1.732-3.131 c4.628-7.803,17.166-8.563,17.166-8.563C113.662,377.909,121.975,369.571,121.975,369.571z M180.35,26.528 c0.481,0.411,2.088,1.652,6.962,2.749c2.705,0.613,4.459,3.131,4.503,6.111c0,0.437-0.044,0.918-0.088,1.376 c-0.503,3.017-2.793,7.645-6.749,8.783c0.257,0.18,2.055,1.578,2.055,1.578c6.76,5.263,12.269,15.173,6.614,17.052 c7.667,5.241,10.214,10.662,10.302,12.772c0.224,4.76-2.591,5.876-3.094,6.57c4.47,2.169,9.388,6.471,11.543,12.739l0.569,1.699 l-0.606,1.663c-1.116,3.142-5.663,8.295-15.532,7.557l-0.591-0.088l-0.58-0.158c-2.973-0.936-6.012-1.307-7.23-0.231 c-0.312,0.301-0.701,0.76-0.701,1.765c0,0.389,0.437,0.984,0.481,1.417c0.154,0.305,0.525,0.874,1.141,1.622h37.689v19.272 c6.827,3.956,11.946,8.236,12.86,12.405c0.11,0.503,0.191,1.028,0.213,1.553c0,2.011-0.782,3.956-2.312,5.498 c-1.677,1.688-3.509,2.257-10.761,1.6v6.907c0.305,0.257,0.569,0.503,0.874,0.804h92.412v-78.81L259.057,17.73h-79.408 c-0.048,0.224-0.088,0.426-0.114,0.591C180.376,19.599,181.59,26.37,180.35,26.528z M130.604,288.804l0.459-0.514l0.547-0.404 c1.351-0.892,2.536-1.942,3.597-2.991c-0.213,0.088-0.415,0.158-0.415,0.158c-39.983,16.428-45.022,13.249-46.92,12.068 c-1.71-1.006-2.716-2.749-2.859-4.694c0-0.154-0.022-0.29-0.022-0.422c-0.044-5.454,6.001-7.039,10.045-8.067 c-1.644-1.318-3.083-3.373-3.131-5.81c-0.022-0.382,0.022-0.782,0.066-1.185c0.349-1.967,1.787-4.558,6.338-5.898 c2.547-1.16,5.219-2.613,5.766-3.461c0.07-0.11,0.694-1.028,0.694-1.028l0.503-0.517c0.705-0.712,6.727-7.083,12.651-4.646 c1.677,0,3.072-0.517,3.821-1.028c0.147-0.76,0.624-3.711,0.624-3.711h12.952c0.87-3.377,1.376-6.738,1.351-8.875 c0-0.154-0.044-0.202-0.066-0.389c-1.721-0.437-3.465-0.84-3.465-0.84l-1.53-0.536l-1.006-1.028 c-0.345-0.338-0.782-0.818-2.312,0.481l-1.23,1.061l-24.862,2.077l-0.815-4.492c-0.547-3.087-0.257-13.657,26.726-20.472 c1.967-0.716,7.164-3.351,8.438-7.597l0.279-0.962h-20.986v-10.416c-9.653,1.967-18.472,3.432-21.21,2.995l-1.831-0.323l-1.196-1.42 c-0.393-0.448-3.208-3.912-3.252-8.871c0-1.006,0.099-2.088,0.371-3.208c1.307-5.608,6.045-10.178,14.123-13.708 c3.656-1.553,9.308-4.639,12.996-7.887v-10.919c-3.564,0.848-6.838,0.918-9.319-0.323l-0.705-0.367l-0.595-0.569 c-0.165-0.088-2.22-2.213-2.268-5.788c-0.022-2.558,1.094-5.88,4.624-9.722c0.84-1.813,3.34-6.683,8.258-11.587v-21.467h38.35 c1.472-2.103,2.411-4.573,2.356-7.41c0-0.088,0-0.191-0.022-0.305c-2.36,0.213-6.617,1.197-13.499,5.307l-1.809,1.108l-2.055-0.536 c-2.404-0.613-10.368-3.219-10.893-9.719c-0.022-0.18-0.044-0.371-0.044-0.547c-0.044-5.241,4.914-9.498,9.565-11.811 c0,0-0.044-0.022-0.044-0.048c-0.738-0.87-1.853-4.503-1.721-5.083c0.213-6.316,7.854-11.121,14.648-16.314 c0.305-0.29,0.613-0.639,0.918-0.94c-0.896-0.591-1.699-1.307-2.268-2.36c-0.547-1.006-0.815-1.989-0.815-3.017 c-0.059-3.912-0.437-9.634,8.368-15.609c-0.415-0.569-1.376-1.945-1.376-1.945c-0.503-0.727-2.448-5.487-2.47-8.93 c-0.022-1.274,0.257-2.58,0.918-3.887c1.072-2.077,1.967-4.507,7.553-4.65c-0.044,0,1.42,0,1.42,0 c0.154-0.022,2.033-4.048,3.384-6.661c-0.044-0.136-0.044-0.268-0.088-0.382H80.051L16.938,80.766V253.79l53.702,53.75h27.398 c2.191-4.136,7.869-10.416,22.517-12.875C120.735,294.618,127.106,292.94,130.604,288.804z M94.658,387.632l-2.334,4.155 l-1.174,0.694c-3.083,1.853-10.849,5.788-16.112,2.503c-1.442-0.94-3.744-3.061-3.824-7.461c0-0.426,0.022-0.851,0.055-1.318 l0.044-0.517l0.158-0.536c0.569-1.875,3.619-11.172,8.717-21.096H17.03v78.201l53.805,54.642h28.561l3.432-7.127 c0.481-0.94,4.87-9.564,13.609-11.488l3.868-0.738c1.809-0.29,1.809-0.29,6.548-3.307c1.442-0.892,2.951-3.373,4.191-6.412 c2.448-5.968,4.984-12.585,14.145-16.468c2.859-1.208,3.722-1.747,6.122-2.371c1.541-0.4,3.553-1.226,4.144-1.563 c0.672-0.422,2.426-1.519,3.711-11.128c0.323-2.507,0.804-8.427,0.94-15.646c0,0,0.154-8.625,0.154-8.717 c0,0,0.022-0.466,0.022-0.492c-0.044,0.048-0.481,0.628-0.481,0.628l0.165-5.586h-39.407v-29.123 c-3.454,2.437-8.188,4.808-12.926,4.224C104.769,381.708,97.238,383.205,94.658,387.632z M247.496,490.364l0.76,6.526h18.435 l53.647-53.768V267.686l-55.13-52.539h-54.117c1.486,0.962,2.995,1.875,4.65,2.602c10.636,4.738,16.773,12.471,17.107,17.356 c0,0.11,0,0.224,0,0.356c0.022,2.022-0.962,4.514-3.89,5.887c-2.011,0.962-9.476,2.169-13.253,0.547 c-3.454-0.367-9.399-0.962-15.833-1.53c3.186,6.427,8.493,9.788,17.599,15.165c0,0,5.722,3.443,7.351,4.423 c10.504,0.896,22.884,3.443,25.005,10.574c0.18,0.646,0.323,1.406,0.323,2.165c0.044,2.415-1.083,5.454-5.149,8.563 c-2.819,2.254-5.832,5.208-6.313,6.28c-0.125,0.356-0.503,1.564-0.503,1.564l-1.263,0.987c-3.23,2.411-11.077,5.274-18.303-0.606 c-6.46-4.221-14.123-7.553-17.074-7.572c-0.07,0.312-0.169,0.668-0.169,0.668l-0.481,0.716c-0.268,0.47-0.426,1.119-0.426,1.92 c0.044,3.039,2.47,8.405,11.532,15.374c1.028,0.58,10.46,6.195,18.85,5.006l0.782-0.132l0.804,0.154 c1.732,0.312,10.383,2.213,12.057,8.985c1.072,4.445-1.307,9.051-7.006,13.561c-0.202,0.228-0.415,0.448-0.569,0.716 c0.437,0.224,1.16,0.492,2.29,0.829c3.252,0.69,23.042,6.327,27.89,40.651c0.694,2.771,0.415,6.526-2.536,8.893 c-4.826,3.868-12.247,0.496-18.145-2.903l-0.323-0.18l-0.312-0.268c-4.012-3.193-8.772-6.368-13.095-8.849v39.378H190.52 l0.613,17.569v0.264c0,0.07-0.804,2.797,0.503,9.344c2.36,11.488,6.115,20.56,10.28,22.686c10.886,5.52,14.303,8.291,17.019,11.484 c2.18,2.573,3.465,4.114,9.843,6.195C243.653,478.924,246.769,483.416,247.496,490.364z M200.745,283.464l0.132-0.176v-0.044 L200.745,283.464z M896.604,314.708c-37.924,13.947-42.339,42.798-42.339,59.09c0,13.855,4.569,59.068,64.118,59.068 c27.622,0,45.29-12.607,54.976-22.686c4.044,13.947,16.178,22.216,33.634,22.216c20.157,0,31.468-10.122,43.367-24.451l2.404-3.105 l-7.23-8.247l-3.542,3.039c-1.787,1.519-3.967,2.191-7.186,2.191c-12.882,0-15.363-12.02-15.363-27.556 c0-6.17,0.235-16.292,0.503-27.956c0.389-16.942,0.848-38.038,0.848-56.925c0-21.518-0.705-42.093-9.935-56.965 c-12.38-18.762-32.305-27.49-62.933-27.49c-47.166,0-68.677,29.042-74.076,46.138l-1.094,3.384l11.007,6.595l2.378-4.492 c0.088-0.228,12.28-22.873,41.972-22.873c20.182,0,35.076,9.744,40.295,25.266c2.595,8.111,2.595,11.238,2.595,24.337v6.973 C944.107,298.662,935.739,300.318,896.604,314.708z M971.05,391.764c-11.767,8.427-25.222,10.148-34.628,10.148 c-28.539,0-32.797-19.958-32.797-31.824c0-15.198,6.617-28.136,19.188-34.529c9.062-4.533,18.986-9.429,48.241-18.212v74.417H971.05 z M482.257,421.893c22.282,7.241,43.958,10.365,72.475,10.365c31.89,0,106.065-8.581,106.065-88.184 c0-47.001-26.686-64.83-55.035-83.739l-33.274-22.032c-28.998-19.151-42.251-27.938-42.251-53.794 c0-18.817,5.674-43.925,54.44-43.925c20.74,0,40.35,4.191,49.21,13.051c6.427,6.493,9.836,14.897,10.636,26.561l0.268,4.312h11.154 l-0.345-6.871c-0.371-9.22-0.202-18.171-0.202-28.451c0-12.996,0.312-24.987,0.312-25.097l0.147-3.92l-3.967-0.705 c-1.208-0.154-30.316-5.127-68.13-5.127c-92.063,0-99.183,61.839-99.183,80.744c0,38.695,18.582,58.107,55.09,82.242l26.271,17.544 l3.975,2.727c24.884,16.758,42.908,28.917,42.908,58.019c0,34.056-19.489,49.882-61.369,49.882c-19.959,0-41.466-6.305-50.81-16.876 c-6.093-6.86-9.388-16.604-9.957-26.506l-0.224-4.602l-12.974-0.026l0.639,10.996c0.459,6.794,0.918,15.107,0.918,36.405v15.936 L482.257,421.893z M832.801,238.511v-27.189h-74.769v-49.412h-9.587l-4.94,8.405c-0.257,0.382-14.861,28.048-35.983,44.417 c-5.968,4.617-11.117,8.416-24.605,14.002l-2.859,1.171v8.607h29.02l-0.18,15.319c-0.371,32.632-0.683,60.786-0.683,95.877 c0,12.739,0,33.92,3.476,44.736c8.302,27.134,27.163,39.227,61.123,39.227c39.913,0,56.844-22.084,57.626-22.953l1.901-2.121 l-3.843-8.963l-4.536,2.327c-0.088,0.132-11.734,5.986-26.884,5.986c-32.643,0-39.044-19.621-39.044-54.124V238.537h74.769v-0.026 H832.801z M1240.112,374.111c-0.517,14.596-0.94,31.468-8.045,38.618c-3.799,3.777-9.7,6.17-18.215,7.509l-3.953,0.492v10.17 l5.072-0.47c19.599-1.875,33.634-1.875,49.86-1.875c14.215,0,27.802,0.76,43.602,1.564l10.886,0.558v-10.258l-4.338-0.316 c-6.302-0.4-13.565-2.991-16.986-6.166c-6.816-6.346-8.221-16.538-8.221-52.788v-64.093c0-10.728-0.738-30.973-2.859-39.286 c-7.355-33.579-33.19-52.051-72.813-52.051c-30.261,0-52.561,12.838-63.649,21.074v-17.386l-4.316-2.547l-2.525,1.127 c-2.679,1.277-10.188,5.766-23.108,7.799c-16.898,3.296-32.911,4.166-39.682,4.166c-1.398,0-2.47,0-3.344-0.11l-4.962-0.371v12.537 l4.133,0.459c0.547,0.022,1.171,0.11,1.809,0.136c5.307,0.367,15.239,1.05,19.724,7.531c3.942,5.854,4.346,17.456,4.346,44.45 v62.753c0,37.432-0.4,56.143-7.205,63.74c-6.496,7.304-15.793,8.761-19.467,9.073l-4.213,0.312v10.46l4.918-0.492 c19.676-1.831,34.551-1.831,50.462-1.831c13.767,0,26.994,0.716,42.193,1.475l11.712,0.624v-10.258l-4.316-0.312 c-6.368-0.426-13.521-3.017-16.982-6.192c-6.775-6.305-8.247-16.516-8.247-52.766V245.851c9.231-4.76,21.518-9.242,41.121-9.242 c28.517,0,43.312,13.22,46.615,41.602c1.787,16.784,1.787,33.814,1.787,50.219c0,12.622,0,29.879-0.382,38.078 C1240.292,369.192,1240.156,371.696,1240.112,374.111z M1436.376,117.219c5.81-5.858,15.242-7.913,22.124-7.913 c16.56,0,28.653,7.274,37.01,25.904l1.16,2.749l5.252-0.07l21.768-30.279l-0.646-4.65l-1.699-1.365 c-11.866-9.62-32.184-16.74-53.592-16.74c-49.816,0-79.449,22.986-88.144,68.317c-2.639,13.635-3.219,38.765-3.266,58.217 c-5.63,4.415-13.319,8.493-25.746,13.609l-2.859,1.241v12.292h28.606v108.847c0,37.432-0.312,55.938-7.127,63.539 c-6.482,7.329-15.756,8.783-19.507,9.007l-4.268,0.382v10.658l5.072-0.492c19.646-1.835,38.17-1.835,54.44-1.835 c13.007,0,30.973,0.58,55.156,1.835l4.87,0.29v-11.734h-4.65c-5.494,0-24.201-0.672-30.279-9.921 c-3.868-5.678-4.808-19.757-4.808-48.762V238.552h48.942v-27.185h-48.935v-42.45 C1425.248,140.858,1426.856,126.669,1436.376,117.219z M1597.975,434.584c82.444,0,111.699-63.337,111.699-117.685 c0-69.873-40.046-111.64-107.071-111.64c-82.466,0-111.651,63.37-111.651,117.7C1490.952,392.862,1530.998,434.584,1597.975,434.584 z M1569.66,240.614c7.645-6.617,18.123-9.957,31.068-9.957c54.036,0,56.763,73.815,56.763,88.613 c0,38.306-8.893,65.256-26.506,80.007c-7.777,6.617-18.278,9.968-31.112,9.968c-54.102,0-56.811-73.837-56.811-88.588 C1543.113,282.348,1552.01,255.372,1569.66,240.614z M1834.666,242.644c19.937,0,30.239,9.598,35.359,17.646l1.387,2.121h8.893 l18.505-33.836v-6.918l-1.498-1.42c-9.051-8.089-21.478-12.211-36.783-12.211c-23.533,0-40.251,10.526-50.777,20.436v-19.063 l-3.865-2.044l-2.547,1.149c-3.71,1.765-12.849,4.503-23.511,6.269c-16.898,3.318-32.874,4.169-39.69,4.169 c-1.384,0-2.793-0.022-3.593-0.114l-4.716-0.125V232l4.29,0.459c0.448,0.022,1.072,0.11,1.699,0.136 c5.34,0.367,15.239,1.05,19.731,7.531c3.912,5.854,4.224,17.456,4.224,44.45v62.753c0,37.432-0.268,55.468-7.087,63.069 c-6.412,7.333-15.8,8.805-19.489,9.054l-4.312,0.334v11.128l5.098-0.492c19.621-1.831,38.078-1.831,54.44-1.831 c12.919,0,30.951,0.58,55.112,1.831l4.87,0.29v-12.178h-4.58c-5.564,0-24.113-0.716-30.327-9.898 c-3.777-5.678-4.738-19.335-4.738-48.318V249.672C1817.684,244.912,1825.55,242.644,1834.666,242.644z M2141.715,411.389 c-5.208-0.426-14.769-1.475-19.287-8.045c-3.89-5.278-4.243-21.856-4.243-48.63V175.758c0-29.042,0.18-67.693,1.652-85.817 l0.18-2.143l-3.755-2.268l-2.191,0.848c-4.47,1.641-13.052,3.564-21.72,4.962c-20.608,4.078-45.969,6.203-47.023,6.203h-4.646 l-0.962,9.821l4.18,0.4c0.488,0.059,1.072,0.099,1.743,0.125c5.23,0.415,14.861,1.141,19.309,7.553 c3.89,5.854,4.269,20.483,4.269,47.848v46.641c-9.454-2.022-25.233-4.169-42.89-4.169c-48.182,0-86.396,22.818-104.766,62.665 c-7.803,17.184-11.983,37.612-11.983,59.068c0,64.808,38.978,106.601,99.228,106.601c28.873,0,50.462-12.559,61.37-20.605v18.549 l5.88,1.967l1.989-0.892c3.891-1.787,11.708-3.332,22.396-5.076c18.59-3.171,37.722-4.492,42.64-4.492h4.603v-11.803l-4.158-0.176 C2143.033,411.477,2142.405,411.433,2141.715,411.389z M2069.196,393.779c-12.585,7.821-27.09,8.981-34.819,8.981h-2.011 c-63.737,0-70.666-56.789-70.666-81.214c0-60.206,20.894-89.516,63.671-89.516c26.932,0,40.251,11.172,43.826,14.739V393.779z" />
                </svg>
            