
                <svg version="1.0" id="stark" xmlns="http://www.w3.org/2000/svg" width="{{width}}px" height="{{height}}px"
                    viewBox="0 0 710 1008">
                    <path d="M656 176l-4 14q3 9 11 23 13 21 13 26.5V266q1 20 19 11l7-3v3q1 22-16 46-7 10 5 56 1 5 4 12 5 10 6.5 14t2 6 2.5 4q5 5 4 12-5-1-8.5-3t-21.5 3q-4 1-4.5 11.5t4 20 5 11.5.5 3q-7 0-10-2-2 7-2 24-1 115-4 128-2 15-4 36l-9-3q-12 13-14 33t.5 27 6.5 12 0 7q-19 11-24 13t-6 3.5 0 9.5q2 13 16 13-5 11-24 3l-6-3q-1-3 1-11.5t2.5-10.5 1.5-8 3.5-12.5T618 697q2-42-4-75 0-1-7-17-7 8-8 17t-4 44q-1 7-7 7v-7q1-57-2-70.5t4-33 4-34-4-33.5q0-5 14-2 0-19-1-20-2-19-17-28t-22-7.5-13 1.5q-9 0-16 2t-20.5 7-18 6.5-5.5 2l-3 1.5-3 1q-2-2 5-13 26-42 30-60t6.5-25.5T522 331t-33-31q-3-2-10-4-8-4-18-7 1-2 2-6t2-7h-25q-18-4-54 2-2-5-10 .5t-12 .5q-9-11-22-9-6-7-14-.5t-14.5 6-13 5-11 .5-14-4-13.5 0q-8 0-16.5 6t-11.5-1q-4 1-8 0-10-1-13.5 3t-9.5 5q-26 9-34 22-1 0-2.5 4.5t-3.5 6-4.5 5-4.5 9.5q-5 17-18 25-3 1-18 12 12 4 14.5 4.5T121 402q7 0 5 5.5t-4.5 13-3 10.5-3 6-2.5 5q3-1 5-2 8-3 11-4-3 8-6.5 11.5T118 465v2q-3 14-3.5 35t-1.5 32q-5 76-3.5 86.5T111 634h-2q-8-18-13.5-22.5T88 604q-5-5-8.5-4.5t-11.5-9-7-15.5-4-12 1.5-8 5.5-6-1.5-5.5l-1-3L60 538q-4 2-5 1.5t-2.5-4.5-5.5-11q-14-27-15-38.5T31 472t-.5-3.5-.5-3.5q0-3 3.5-5t1-10-9-17-5-21-6.5-14.5-5.5-7.5.5-11q-8-30 0-56 1-9 1.5-10T9 302.5 6.5 291 0 266v-30q0-1 1-4 3-9 8-16l2-16 1.5-23.5L24 158q21-7 26.5-7t12.5-1.5 11.5-3 13-5T99 137q1-21 1.5-26t4.5-7q58-26 132-75 8-5 18-6t13-2q27-6 42 2 7 4 18 6t14 3q16-37 56-31v14q2 0 11-.5t12-.5 10 1 11 3q11 6 17 16l9-7q7 4 14 9 11-3 13.5-2t5.5 9q6-1 6-5 2-8 5-10 1 1 2 4 3 6 5 8 3-7 5-11 0 20 26 29l-2 2q3 10 14 24.5t14 18.5 15 30q3-3 9-10 6 4 3.5 9.5T601 139q1 3 6 .5t12 4.5h4q2 1 12 7t14.5 8.5T660 165t7 3l2 2q-2 3-13 6zM390 512l-1 2v8q6 2 10 .5t13.5-6.5 16.5-7.5 23.5-8T474 493q22-7 46.5 2.5t28 10.5 14.5 1q4 4 4 5.5t-3 5.5-3 5-3 24q11-3 12-7 0-3 2.5-2t3 4 1.5 12q3 14 2.5 21t.5 26q-18-5-39 8t-35 14q-40 2-45-1.5t-1.5-6T483 599h-12q-17-1-17.5-3t1.5-9q13 5 26.5 1.5T498 575q-8 2-14 6.5t-23.5 4.5-22.5-18q0-1-2-6-30 17-33 19-7 5-3 47 8-11 11.5-10t2 8 2 22.5T423 687l-9 2q2 9 3 11t6.5 0 9 3.5T448 727t19.5 32-3.5 25q2 1 8.5 4.5t9.5 5.5q9 6 13 15l1-1v-2q3-10 5-37.5t1-33-4.5-12-5.5-9-3.5-5-.5-4.5q3-3 11 0 17 8 20.5-13t4.5-30q27-8 32-13 16-16 19.5-14.5t3.5 6.5-1 15.5-1 15V684q0 47-15 81.5t-17 44-17 47.5q-2 7-8.5 8.5T514 872q2 18 4 18.5l2 .5 17-23 5-10 6-11.5 1-1.5q4 4 3.5 5.5t-1.5 13 1 13.5-11.5 18-21.5 26q-64 86-155 87-15 0-67-1-9 0-31-13.5T234 972t-17.5-20-14.5-24-15-26.5-17.5-31-19-41T140 803q-1-3-1-8 6 3 12 18 21 51 38 67 8 7 13-3l3-9q3-9 9-15 3 34 3 37 0 21 10 35 28 34 46 44 3 2 7-4 15-19 30.5-24t20.5-9l1-1q8 8 12 10t6.5-4.5 8.5-3 8 3 5.5-5.5 6.5-3.5 9-1 10 2.5q7 8 24 21 11-13 20.5-16.5t12.5-5 5-5 3.5-11 2-8.5 1.5-8q-6 2-9 8.5t-4 8-3 5.5-4 6.5-4.5 1.5-2-7-5.5-9-12 2q-10 9-14 3-12-19-28-3-8 9-11.5 5.5t-8-.5-5.5 3-3.5-2-3-2.5-4.5-2.5q-20-9-37-51l4-3q19 0 36 2t38-3.5 23-8.5q3-5 5-3t3.5 2 3-.5 3.5-2.5 3-2q-17-3-28-2-39 3-52-1-18-5-51.5-5.5t-35.5.5q-6 3-8.5 9.5t-3 6.5H247q-1-2-4-6-6-9-7-15-4-29 23-36 4 0 9-1 17-3 39-14 1 1 2 12 1-2 3-5 12-16 15-13.5t2 4.5v6q21-13 25.5-15.5t5.5 3.5q3 19 3.5 28.5T355 812q-10 4-18-6-5-6-11-1t-18 4.5-27 15.5q6-1 17-2.5t24.5-3.5 22.5 1.5 16.5 1L378 816q13-4 20-8-14-4-17-5-10-3-11-13 0-4-1-9.5t-1-8.5q-1-9-10-8-6 1-14-9t-16-9-9 1q-12 7-18-10-1-4-5-9 12-9 22 0 13 12 27.5 4t15.5-8q15-6 24.5-21t8.5-25-11.5-24-11-21.5-1.5-14-2-12.5-1.5-11.5 2-13.5-7-12.5-8-13.5 2.5-21q2-25 7-29 2 4 3.5 12.5t2.5 8.5q0 1 1 1h2q8-6 10.5-11t3.5-6q3-3 4 2zm-91 66q-16 4-35 4l1-5q5-7-4-10v3l-.5 6.5-6 9.5-13.5 4q-21 0-31-21-5 4-6.5 8t-6 3.5-7.5.5q-3 0-8-1 0-1 1-3 0-2 12-12l-3-2q-9 10-13 13t-8.5 2 1.5-10.5 14.5-13 15-6 14-5.5l12.5-5q-32-2-39-1.5t-13-4.5q-5 3-13.5 8t-11.5 6q0-12-.5-14t4-5 4.5-5q1-9 10-10 2 0 19-4t28 4q5-5 13-3 47 12 60 6 4-2 5 2 3 11 12 8.5t7-7.5v-6q12 7 15 9 5 4-10 30-1 2-4 2l-9-1v1q8 8 7 10-3 7-7 5.5t-7-3-5-2-5-1.5q-4-1-5 0 11 8 12 9t4 7zm-61 21q-9 10-9-4 2-1 5 1t4 3zm-41-7q3-8 7-5l1 4q-2 0-4.5.5t-3.5.5z" />
                </svg>
            