
                <svg version="1.0" id="t-mobile" xmlns="http://www.w3.org/2000/svg" width="{{width}}px" height="{{height}}px"
                    viewBox="0 0 3139.166 512">
                    <path d="M220.51,31.68v371.33c0,26.61,1.27,43.09,3.8,49.43c5.07,15.21,20.28,22.81,46.89,22.81h17.74v25.35H83.64v-25.35h17.74 c19.01,0,31.68-3.8,39.29-11.41c7.6-7.6,11.41-27.88,11.41-60.83V31.68h-15.21c-24.08,0-45.62,7.6-64.63,21.54 c-29.15,21.54-45.62,63.37-49.43,126.73H0L3.8,6.34h366.26l2.53,172.36h-21.54c-8.87-72.24-30.42-117.86-64.63-135.6 c-15.21-7.6-34.22-11.41-54.5-11.41H220.51z M0,224.32h103.92v103.92H0V224.32z M268.67,224.32h103.92v103.92H268.67V224.32z  M579.17,224.32h103.92v103.92H579.17V224.32z M889.66,224.32h103.92v103.92H889.66V224.32z M1278.73,501.86h-22.81l-130.53-449.9 v323.17c0,32.95,1.27,54.5,3.8,62.1c7.6,25.35,25.35,39.29,50.69,39.29h10.14v25.35h-153.35v-25.35h12.67 c19.01,0,31.68-7.6,39.29-22.81c6.34-12.67,8.87-38.02,8.87-78.57V89.98c0-16.48-1.27-27.88-2.53-34.22 c-2.53-11.41-8.87-19.01-19.01-21.54c-6.34-2.53-13.94-2.53-25.35-2.53h-13.94V6.34h143.21l105.19,362.46L1392.79,6.34h145.74v24.08 h-10.14c-19.01,0-32.95,3.8-40.55,11.41s-11.41,27.88-11.41,60.83v300.36c0,26.61,1.27,43.09,3.8,49.43 c5.07,15.21,20.28,22.81,46.89,22.81h10.14v25.35H1349.7v-25.35h6.34c19.01,0,32.95-3.8,40.55-12.67 c6.34-7.6,10.14-27.88,10.14-59.56V50.69L1278.73,501.86z M1842.69,204.04c-29.15-36.75-65.9-54.49-110.26-54.49 c-50.69-1.27-89.98,17.74-116.59,54.49c-25.35,32.95-36.75,76.04-36.75,126.73c0,51.96,12.67,93.78,38.02,126.73 c29.15,36.75,65.9,54.5,112.79,54.5c46.89,0,83.64-17.74,112.79-54.5c25.35-31.68,38.02-74.77,38.02-126.73 C1880.71,278.81,1868.04,235.72,1842.69,204.04z M1729.9,487.92c-53.23,0-78.57-53.23-78.57-158.42c0-48.16,6.34-84.91,17.74-110.26 c12.67-29.15,32.95-44.36,60.83-44.36c26.61-1.27,48.16,13.94,60.83,43.09c11.41,25.35,17.74,63.37,17.74,112.79 C1808.47,434.69,1781.86,487.92,1729.9,487.92z M2013.78,0v0.12l2.53-0.12H2013.78z M2189.94,191.37 c-22.81-25.35-51.96-38.02-88.71-38.02c-41.82,0-70.97,17.74-87.45,54.5V0.12l-103.92,4.95v24.08h5.07 c13.94,0,24.08,2.53,29.15,8.87c6.34,6.34,8.87,22.81,8.87,50.69v339.64c0,32.95-1.27,53.23-3.8,60.83c-1.27,3.8-2.53,7.6-3.8,12.67 h24.08c13.94-24.08,24.08-35.48,30.42-35.48c3.8,0,7.6,1.27,12.67,5.07c12.67,10.14,21.54,16.48,24.08,19.01 c17.74,11.41,38.02,17.74,60.83,17.74c45.62,0,79.84-20.28,105.19-60.83c21.54-34.22,31.68-74.77,31.68-122.93 C2234.3,268.67,2219.09,224.32,2189.94,191.37z M2092.35,482.85c-27.88,0-49.43-13.94-62.1-43.09 c-12.67-26.61-19.01-63.37-19.01-110.26s7.6-83.64,21.54-110.26c15.21-26.61,35.48-40.55,60.83-40.55 c48.16,0,72.24,49.43,72.24,148.28C2165.86,430.89,2141.78,482.85,2092.35,482.85z M2350.89,2.53c11.41,0,20.28,3.8,27.88,12.67 c7.6,7.6,11.41,17.74,11.41,27.88c0,11.41-3.8,20.28-11.41,29.15c-7.6,7.6-17.74,11.41-29.15,11.41s-20.28-3.8-27.88-11.41 c-7.6-7.6-11.41-17.74-11.41-29.15s3.8-20.28,12.67-29.15C2329.35,6.34,2339.48,2.53,2350.89,2.53 M2386.37,153.35v264.87 c0,27.88,2.53,44.36,8.87,50.69c5.07,6.34,15.21,8.87,27.88,8.87h11.41v22.81h-160.95v-22.81h11.41c13.94,0,22.81-3.8,29.15-10.14 c5.07-6.34,8.87-22.81,8.87-50.69V239.52c0-27.88-2.53-44.36-8.87-50.69c-5.07-6.34-15.21-8.87-29.15-8.87h-8.87v-21.54 L2386.37,153.35z M2573.94,0v418.22c0,27.88,2.53,44.36,8.87,50.69c5.07,6.34,15.21,8.87,27.88,8.87h11.41v22.81h-160.95v-22.81 h11.41c13.94,0,22.81-3.8,29.15-10.14c5.07-6.34,8.87-22.81,8.87-50.69V87.45c0-26.61-2.53-44.36-8.87-50.69 c-5.07-6.34-15.21-8.87-29.15-8.87h-8.87V5.07L2573.94,0z M2878.1,452.44c-17.74,20.28-38.02,30.42-64.63,30.42 c-32.95,0-55.76-16.48-69.7-48.16c-10.14-22.81-15.21-58.3-15.21-106.45h202.77c-1.27-40.55-8.87-74.77-22.81-102.65 c-25.35-50.69-63.37-77.31-115.33-77.31c-34.22,0-63.37,13.94-88.71,40.55c-30.42,34.22-46.89,81.11-46.89,138.14 c0,63.37,15.21,110.26,46.89,144.48c25.35,26.61,57.03,40.55,96.32,40.55c53.23,0,95.05-31.68,126.73-93.78l-21.54-11.41 C2897.11,425.82,2886.97,442.3,2878.1,452.44z M2736.16,239.52c11.41-43.09,31.68-64.63,60.83-64.63 c25.35,0,43.09,16.48,54.49,48.16c7.6,21.54,11.41,48.16,11.41,79.84h-134.34C2728.55,277.54,2731.09,257.27,2736.16,239.52z  M3035.25,224.32h103.92v103.92h-103.92V224.32z" />
                </svg>
            