
                <svg version="1.0" id="the-beatles" xmlns="http://www.w3.org/2000/svg" width="{{width}}px" height="{{height}}px"
                    viewBox="0 0 1003.717 512">
                    <path d="M210.38,202.66c0.16-10.72-2.78-24.35-9.64-30.44c15.54,0,118.44,0.06,118.29,0.06l-6.17,45.77 c-6.17-6.64-13.51-15.44-22.72-15.44c-9.48,0.02-29.18,0-29.28,0v74.78c0.1,0.15,15.12,0.15,23.11,0 c8.05,0.15,16.05-1.69,23.88-9.65v50.86c-6.49-5.42-14.5-10.37-22.34-10.37l-24.65-0.02v95.17c6.12,1.92,44.57-0.26,58.56-20.8 l-8.09,51.23H199.98c9.48-7.98,10.55-20.61,10.4-30.02V202.66z M736.29,202.66c-0.2-10.72-3.13-24.35-9.64-30.44 c15.19,0,118.12,0.06,118.26,0.06l-6.52,45.77c-6.11-6.64-13.47-15.44-22.71-15.44c-9.44,0.02-29.15,0-29.27,0v74.78 c0.12,0.15,15.16,0.15,23.11,0c8.09,0.15,16.09-1.69,24.26-9.65v50.86c-6.85-5.42-14.87-10.37-22.71-10.37l-24.65-0.02v95.17 c6.14,1.92,44.6-0.26,58.55-20.8l-8.09,51.23H725.5c9.54-7.98,10.62-20.61,10.78-30.02V202.66H736.29z M546.33,11.94 c0.1-4.14-1.3-9.43-4.62-11.94c7.46,0.16,56.49,0.16,56.63,0l-3.07,18.12c-3.03-2.79-6.52-6.13-10.79-6.13 c-4.65-0.04-14.03,0-13.86,0v28.86c-0.17,0.09,7,0.09,10.78,0c3.86,0.09,7.66-0.33,11.57-3.47v22.35 c-3.25-2.24-7.07-4.76-10.78-4.63h-11.56v35.44c2.7,0.78,21.03-0.07,27.73-8.09l-3.86,20.04h-53.19c4.59-3.09,5.11-8.3,5.01-11.94 L546.33,11.94L546.33,11.94z M617.61,202.66c0.17-10.72-2.79-24.35-9.64-30.44h69.73c-6.64,6.07-9.23,19.72-9.23,30.44v199.96 c6,2.12,44.43-0.09,58.57-20.8l-9.65,51.98H607.2c6.56-3.98,10.58-17.37,10.41-31.19L617.61,202.66L617.61,202.66z M599.13,172.21 l8.46,52.4c-4.79-9.18-21.01-22-29.66-22l-14.65,0.02c-3.49,0-4.92,6.22-4.92,12.32c-0.09,10.59,2.13,243.56,2.99,258.13 c0.54,14.82,8.38,32.83,14.27,38.91h-90.54c5.87-6.08,13.7-24.13,14.26-38.91c0.86-14.57,3.02-247.54,3.02-258.13 c0.08-6.1-1.43-12.36-4.93-12.36l-14.65,0.02c-8.63,0-24.77,12.12-29.66,21.96l8.48-52.4h137.53V172.21z M413.41,16.95 c0-2.33-0.68-4.77-2.32-4.63h-8.09c-4.06-0.15-9.7,4.62-11.94,8.49L393,0h65.48l1.93,20.81c-2.19-3.62-7.89-8.63-11.94-8.49h-8.48 c-1.77-0.15-2.44,2.3-2.32,4.63v73.59c-0.15,5.16,1.36,9.65,4.23,11.94h-32.73c2.13-1.81,4.19-6.16,4.19-11.94L413.41,16.95z  M501.27,102.49h34.27c-3.08-1.53-5-6.57-5-11.94v-78.6c0-4.14,1.3-9.41,4.63-11.94h-33.14c3.04,2.52,4.36,7.8,4.24,11.94v28.91 H492.4V11.94c-0.18-4.14,1.14-9.43,4.23-11.94h-33.14c3.26,2.52,4.57,7.8,4.57,11.94l0.05,78.6c0,5.37-1.95,10.42-5.01,11.94h33.9 c-2.88-1.53-4.78-6.57-4.63-11.94V55.08h13.87v35.46C506.39,95.92,504.49,100.95,501.27,102.49z M113.3,9.25 c45.2-0.19,76.99,22.14,76.99,99.39c0.05,45.02-13.67,80.74-41.55,95.56c26.61,14.21,52.18,47.79,52.01,104.41 c0.18,97.21-40.27,125.24-91.7,125.24L0.01,433.8c12.73-14.01,17.68-26.04,17.68-43.55l0.04-339.42c0-17.23-5-28.08-17.73-41.97 L113.3,9.25z M75.52,174.52c0,9.52,8.36,12.18,22.35,12.32c31.6-0.14,35.32-34.19,35.44-78.98c-0.12-57.84-14.94-70.59-36.22-70.51 C84.49,37.27,75.54,44.25,75.54,52C75.52,60.82,75.54,165.36,75.52,174.52L75.52,174.52L75.52,174.52z M104.8,399.92 c31.88,0,35.8-32.3,35.8-91.7c0.02-53.16-14.64-80.76-39.25-80.91c-10.57,0.15-25.8,2.14-25.8,10.02c-0.01,8.16,0,131.71,0,141.78 c-0.01,11.29,11.73,20.83,29.26,20.83L104.8,399.92L104.8,399.92z M367.18,172.21c9.41,12.19,10.75,19.84,8.1,30.44l-44.69,201.13 c-1.97,8.75-6.62,22.72-14.64,30.01h60.86c-9.24-7.01-11.58-18-9.24-30.01l6.95-30.05h48.93l6.94,28.91 c1.84,7.46,0.05,25.89-8.1,31.2h69.35c-6.17-5.31-14.2-18.02-17.73-30.45l-43.15-200.34c-2.63-10.64-1.28-18.63,8.09-30.84 L367.18,172.21L367.18,172.21z M417.66,344.83h-36.6l18.87-82.07L417.66,344.83z M991.77,177.46l-20.81,44.7 c-6.77-17.68-22.21-25.22-44.55-23.94c-14.8,0.85-32.84,13.71-32.64,34.98c0.54,18.81,10.22,27.72,57.12,52.15 c43.06,22.55,52.82,48.08,52.82,74.32c0,45.67-30.69,79.25-85.55,79.43c-42.07-0.17-66.68-23.21-66.68-51.26 c0.03-22.06,12.53-38.9,33.59-43.92c-7.61,8.78-8.75,19.63-8.88,24.68c0.12,13.96,7.95,37.74,41.99,37.74 c19.54,0,35.06-12.88,35.06-36.97c-0.15-31.89-24.36-41.84-46.61-53.16c-14.6-7.36-55.45-29.07-55.45-79.35 c-0.05-38.24,35.21-67.99,72.38-68.2C958.04,168.43,949.25,183.99,991.77,177.46z" />
                </svg>
            