
                <svg version="1.0" id="the-onion" xmlns="http://www.w3.org/2000/svg" width="{{width}}px" height="{{height}}px"
                    viewBox="0 0 3231.265 512">
                    <path d="M207.769,368.227c30.068,5.244,126.058-17.058,158.705-131.929c33.346-118.135,16.331-94.479-80.3,5.914 c-52.242,54.493-93.382,123.407-78.377,126.015H207.769z M292.045,443.07c104.455-37.435,103.172-173.925,86.214-135.891 c-16.986,37.336-28.102,67.546-64.654,88.494c-28.743,16.388-48.978,18.383-84.248,17.67c-29.413-0.712-56.175-24.938-64.696,11.828 c-9.12,40.613,88.865,31.493,127.397,17.67L292.045,443.07z M203.878,265.867c80.343-111.622,199.832-151.623,186.109-165.446 c-16.302-16.388-88.138,5.928-88.138,5.928C190.155,145.723,68.715,219.241,60.848,311.155c-2.594,26.876,5.23,77.45,39.188,98.441 c23.513,14.436,63.984-88.637,103.842-143.743V265.867z M125.502,167.398c44.404-32.833,129.963-59.751,111.665-59.082 c-62.031,1.967-188.061,53.154-193.946,131.958c-1.967,24.938,37.877-40.072,82.295-72.89L125.502,167.398z M15.775,464.046 c-7.168-10.46,21.575-16.388,26.791-28.216C68.7,385.954,22.33,406.304,2.736,292.102C-35.17,76.196,332.53,76.196,381.537,67.646 C426.568,59.737,380.824,0,416.122,0c11.828,0,0,30.866,11.828,35.455c12.398,5.273,19.665-28.216,32.063-17.67 c17.1,14.535-16.245,27.646-7.125,36.766c6.555,6.555,22.23-5.843,27.503,2.708c9.12,13.823-15.675,23.085-37.906,26.933 c-80.942,13.823,92.769,369.652-189.386,418.816c-74.386,13.823-109.015-51.871-164.591-19.665 c-13.68,7.98-23.513,38.191-31.921,25.65c-5.13-7.838,8.55-20.235,0-25.508c-5.843-3.278-14.25,11.201-20.235,5.942 c-4.56-4.589,1.995-11.828-2.565-17.713c-3.876-5.885-13.025-0.613-17.67-7.268L15.775,464.046z M650.525,486.034 c-75.241,0-89.107-57.229-89.107-113.931v-61.205l-40.585,1.496v-73.603l40.471,0.969v-95.534l92.057-9.434v105.452l59.851-1.468 v73.531l-59.994-1.995v59.709c0,26.791,7.98,36.766,27.218,36.766c9.833,0,23.228-1.995,29.213-6.555l20.235,64.126 c-9.405,6.413-25.223,21.375-79.659,21.375 M854.147,254.31c0,0,37.621-23.912,96.474-23.912c44.532,0,66.834,39.758,66.834,84.077 v166.158h-92.057V368.199c0-40.813,0-68.686-33.203-68.686c-17.328,0-38.12,12.968-38.12,12.968v168.153h-92.484V93.468l92.57-7.453 v168.581 M1241.598,324.849c-5.13-23.94-25.551-39.331-50.446-39.331c-44.318,0-59.281,36.338-55.291,46.598h104.169 c2.565,0,2.138-4.988,1.61-7.268H1241.598z M1189.299,491.863c-89.634,0-139.011-58.141-139.011-142.218 c0-75.099,58.996-123.835,142.075-123.835c73.104,0,124.262,48.166,124.262,125.26v31.921l-181.691-0.143 c0,28.786,32.633,43.748,57.429,43.748c25.223,0,38.048-7.41,51.444-18.383l54.293,37.906c-10.83,11.4-43.891,45.743-108.787,45.743 H1189.299z M1605.864,359.62c36.125,0,69.313-31.351,69.313-75.669c0-35.911-33.203-66.264-69.313-66.264 c-36.623,0-69.798,30.353-69.798,66.121c0,44.204,33.146,75.555,69.826,75.555L1605.864,359.62z M1605.864,492.86 c-111.865,0-196.511-87.069-196.511-209.052c0-114.43,96.047-196.084,196.511-196.084c100.037,0,196.511,81.554,196.511,195.97 c0,121.868-84.647,208.938-196.511,208.938V492.86z M2085.101,258.016V101.918l125.759-8.436v396.015l-243.466-168.624v158.705 h-126.186V82.566l244.036,175.606 M2263.428,479.565h126.713V101.932h-126.713 M2626.24,359.663 c36.139,0,69.299-31.351,69.299-75.626c0-35.811-33.16-66.164-69.299-66.164c-36.623,0-69.769,30.353-69.769,66.164 C2556.471,328.312,2589.603,359.663,2626.24,359.663z M2626.24,492.988c-111.865,0-196.511-87.069-196.511-208.952 c0-114.43,96.047-196.027,196.511-196.027c100.009,0,196.54,81.512,196.54,195.941c0,121.84-84.647,208.909-196.54,208.909V492.988z M3105.435,101.961l125.83-8.465v396.015l-243.537-168.666v158.72H2861.47V82.552l243.965,175.62" />
                </svg>
            