
                <svg version="1.0" id="tv-guide" xmlns="http://www.w3.org/2000/svg" width="{{width}}px" height="{{height}}px"
                    viewBox="0 0 691.2 512">
                    <path d="M0,0v512h691.2V0H0z M193.3,428.19c-9.66,4.1-24.82,6.72-38.31,6.72c-44.64,0-61.13-22.47-61.13-63.78 c0-41.82,18.49-63.64,62.3-63.64c11.99,0,25.49,1.97,35.48,5.42l-3.33,28.54c-8.83-3.12-20.32-4.92-30.15-4.92 c-22.66,0-27.65,7.54-27.65,34.28c0,28.04,5.33,34.76,23.48,34.76c2.83,0,5.66-0.16,8.33-0.66v-38.86h30.98V428.19z M312.21,389.57 c0,30.33-17.15,46.24-51.97,46.24c-34.65,0-52.3-15.74-52.3-46.24v-79.05h34.81v78.72c0,11.47,5,16.72,17.66,16.72 c12.49,0,17.16-4.92,17.16-16.72v-78.72h34.65V389.57z M277.51,136.69v142.96h-69.07V136.69h-51.37l1.09-59.89h160.77h1.53h72.76 l32.69,124.68l5.23,21.11h0.82l4.95-21.11L470.42,76.8h70.72l-68.13,202.85H386.8L321.66,84.93l7.59,51.76H277.51z M366.91,433.52 h-35.64V310.53h35.64V433.52z M436.24,433.52h-49.47V310.53h48.97c40.81,0,57.64,18.86,57.64,60.84 C493.37,415.97,473.71,433.52,436.24,433.52z M596.67,433.52h-88.11V310.53h85.95l0.5,29.03h-51.63v18.04h42.64v26.24h-42.64v20.99 h53.97L596.67,433.52z M456.73,371.21c0,28.53-5.17,33.12-21.16,33.12h-13.99v-64.28h13.99 C451.73,340.05,456.73,345.3,456.73,371.21z" />
                </svg>
            