
                <svg version="1.0" id="washington-post" xmlns="http://www.w3.org/2000/svg" width="{{width}}px" height="{{height}}px"
                    viewBox="0 0 3341.428 512">
                    <path d="M186.008,157.625v181.111c24.47-13.215,41.605-36.224,49.923-62.169l1.96,0.984 c-5.389,64.614-49.439,129.221-117.966,129.221C50.907,406.772,0,355.38,0,273.139c0-61.67,40.137-100.346,91.536-135.101 c-7.342-1.96-15.175-2.937-23.009-2.937c-35.247,0-55.804,23.985-55.804,48.462H9.786c-0.492-3.429-0.492-6.85-0.492-10.278 c0-43.565,23.009-96.433,78.813-96.433c35.732,0,63.146,32.795,104.751,32.795c16.644,0,37.2-7.834,45.518-25.945h1.468 C239.36,115.528,229.574,148.323,186.008,157.625z M212.438,343.142c-24.477,25.938-50.907,47.97-85.171,47.97 c-63.63,0-112.577-49.931-112.577-122.378c0-42.582,17.62-65.583,37.2-92.512h-1.96C37.692,188.46,5.389,219.295,5.389,271.671 c0,80.281,50.415,129.72,116.497,129.72c46.01,0,77.337-31.811,91.536-57.757L212.438,343.142z M232.011,105.742 c-8.318,15.66-25.938,35.725-61.67,35.725s-68.527-24.477-97.409-24.477c-26.437,0-44.542,17.627-51.399,30.842l0.492,0.984 c9.302-9.302,23.493-18.604,46.502-18.604c38.177,0,62.654,23.501,101.322,23.501c41.121,0,59.717-26.929,63.146-47.479 L232.011,105.742z M95.934,139.513c-24.962,25.945-47.97,54.336-47.97,109.648c0,30.343,10.278,61.67,33.287,81.25l14.191-7.349 V191.889l-13.215,6.85l-2.445-4.897l68.527-37.207C129.712,152.728,113.069,144.41,95.934,139.513z M180.62,158.602 c-3.429,0.485-6.85,0.485-10.77,0.485c-6.85,0-13.215-0.485-19.58-1.96v142.927l-64.122,34.77 c13.215,9.786,29.367,15.66,49.923,15.66c16.644,0,31.327-3.429,44.542-9.302v-182.58H180.62z M110.132,183.571l-9.302,5.381V320.14 l9.302-4.897V183.571z M391.589,202.167v169.365c0,46.987-41.605,78.813-88.107,88.107l-0.976-1.96 c23.009-11.262,36.224-34.264,36.224-58.741V223.7l-26.43-23.978l-10.278,11.255v136.57l14.683,13.215v0.984l-39.645,43.074 l-45.518-41.605v-1.96l17.62-18.604V126.298l51.884-55.305l0.976,0.485v131.181l42.589-46.01l44.542,40.144l8.318-8.817l3.92,3.436 L391.589,202.167z M254.535,362.23v-0.976l10.278-10.286V117.973l-10.278,10.777v217.328l-15.667,15.667v0.976l38.177,34.264 l6.85-7.834L254.535,362.23z M354.389,215.867L322.57,188.46l-6.85,7.342l28.39,25.461v176.215c0,11.747-2.445,23.978-6.85,30.835 l0.492,0.492c12.239-8.817,16.644-22.032,16.644-39.16V215.867H354.389z M469.418,300.553v24.962l47.479,37.2l27.414-29.367 l3.92,3.913l-63.63,68.035l-64.614-51.884l-9.786,10.278l-3.92-3.913l11.262-11.747V224.192l92.512-67.551l48.462,78.321 L469.418,300.553z M433.195,343.633V219.295l-10.278,7.349V348.53l60.701,49.439l7.834-8.318L433.195,343.633z M470.402,192.865 l-0.984,0.492v100.346l43.565-31.819L470.402,192.865z M483.125,183.079l-8.81,6.358l43.081,69.019l8.81-6.365L483.125,183.079z M877.579,404.812l-68.042-58.741l-51.883,58.741l-70.487-60.701v-95.934h-13.707c-12.239,0-18.596,7.834-21.54,17.128h-1.468 c-0.976-3.913-2.445-10.763-2.445-18.596c0-12.73,3.429-46.01,39.16-46.01v-84.194c0-16.152-19.088-22.517-19.088-44.057 c0-27.891,26.43-55.305,74.892-72.447l1.96,1.468c-17.62,10.286-26.922,20.072-26.922,41.121c0,32.311,31.327,23.985,31.327,74.892 v19.58l57.272-60.209l60.209,59.225l56.78-59.225l54.82,53.844v181.111L877.579,404.812z M702.833,336.285V233.009h-27.414 c-14.199,0-20.557,9.295-21.54,17.62l0.485,0.492c4.897-5.381,9.794-8.318,21.049-8.318h17.128v98.877l64.614,55.804l7.342-8.817 L702.833,336.285z M702.833,111.608c0-20.065-17.62-26.922-17.62-39.645c0-17.627,6.85-32.303,17.62-46.01l-0.977-0.485 c-14.683,11.262-28.39,29.374-28.39,46.987c0,17.627,19.088,25.945,19.088,41.612v86.639h10.278 C702.833,200.706,702.833,111.608,702.833,111.608z M806.115,160.562l-37.2-36.224l-19.58,20.065v173.278l44.542,37.692 l12.239-13.707V160.562z M821.775,335.308V153.712l-41.605-41.121l-7.834,7.834l39.16,37.685v182.58l66.082,57.272l7.833-7.349 L821.775,335.308z M916.739,154.197l-30.835-29.374l-17.62,18.112v174.262l47.97,42.09l0.485-0.485V154.197z M932.399,147.347 l-35.732-34.755l-7.342,7.834l32.795,31.327v204.605l10.278-9.794V147.347z M1140.389,404.812l-46.502-42.097l-41.605,42.097 l-50.907-45.034l-6.857,7.342l-3.913-3.913l8.81-9.302V222.731l92.028-66.574l52.867,41.121l9.302-9.794l3.92,3.92l-10.77,11.255 v135.593l25.938,23.978l8.325-8.81l3.913,3.429L1140.389,404.812z M1015.082,350.483V218.319l-10.278,7.342v129.72l46.994,42.097 l7.833-7.834L1015.082,350.483z M1093.887,221.747l-40.137-31.327l-1.468,0.984V333.84l33.287,28.875l8.318-8.318V221.747z M1109.554,354.888V214.406l-41.605-33.779l-9.786,6.85l41.113,32.311v139.991l41.121,37.2l7.342-7.834L1109.554,354.888z M1282.832,245.241h50.415v104.751l-77.829,54.82c-10.278-11.747-24.969-20.065-43.073-20.065c-14.683,0-26.437,4.897-42.097,18.112 l-2.445-0.984l66.574-96.917h-41.12v-91.044l81.749-56.78c9.786,7.834,17.128,12.231,29.859,12.231 c9.794,0,23.985-1.96,34.755-10.763l1.96,0.976L1282.832,245.241z M1228.012,370.548c-14.199,0-25.453,4.897-35.247,11.747v0.984 c7.833-3.429,15.667-4.405,23.009-4.405c11.255,0,28.882,5.389,40.629,19.096l11.262-8.318 C1258.355,378.874,1247.1,370.548,1228.012,370.548z M1280.38,288.314h-27.414l-57.272,82.733l0.492,0.976 c14.192-10.278,27.898-17.128,44.542-17.128c14.683,0,29.859,6.85,39.16,18.596l0.492-0.485V288.314z M1208.916,288.314v-78.798 l-10.278,7.342v82.234h39.645l7.833-10.77h-37.2V288.314z M1311.222,192.373c-10.278,7.349-16.152,11.262-33.287,11.262 c-9.794,0-21.54-4.405-30.835-14.199l-0.976,0.492v71.464h18.596l46.994-68.534L1311.222,192.373z M1287.729,187.968 c-8.81,0-20.065-4.398-27.414-14.191l-12.239,8.318c9.302,11.262,18.112,16.152,31.811,16.152c8.81,0,21.54-2.452,34.755-13.714 l0.485-1.461C1306.817,186.507,1296.539,187.968,1287.729,187.968z M1296.047,272.17h-31.819l-7.342,10.278h28.882v94.957 l10.278-7.342V272.17z M1502.12,202.167v169.365c0,46.987-41.605,78.813-88.107,88.107l-0.976-1.96 c23.009-11.262,36.224-34.264,36.224-58.741V223.7l-26.43-23.978l-10.278,11.255v136.57l14.683,13.215v0.984l-39.645,43.074 l-45.518-41.605v-1.96l17.62-18.604V126.298l51.884-55.305l0.976,0.485v131.181l42.589-46.01l44.542,40.144l8.318-8.817l3.92,3.436 L1502.12,202.167z M1365.066,362.23v-0.976l10.278-10.286V117.973l-10.278,10.77v217.328l-15.667,15.667v0.976l38.177,34.264 l6.85-7.834L1365.066,362.23z M1464.92,215.867l-31.819-27.406l-6.85,7.342l28.39,25.461v176.215c0,11.747-2.445,23.978-6.85,30.835 l0.492,0.492c12.239-8.817,16.643-22.032,16.643-39.16V215.867H1464.92z M1591.211,404.812l-42.097-38.669l-9.794,10.278l-3.92-3.92 l11.262-12.231V218.811l-20.557-19.58l-7.833,8.817l-3.921-3.92l44.05-47.97l39.16,35.247l9.794-10.77l4.405,3.429l-12.239,13.215 v142.935l23.5,22.025l10.77-11.262l3.913,3.92L1591.211,404.812z M1562.329,356.849V210.977l-25.453-23.493l-6.85,7.834 l22.025,21.049v145.38l39.16,35.24l7.342-7.834L1562.329,356.849z M1577.012,152.244l-40.137-36.708l36.716-39.16l40.137,36.708 L1577.012,152.244z M1552.05,107.695l-7.342,7.342l31.812,29.859l7.342-8.318L1552.05,107.695z M1798.188,404.812l-42.589-38.669 V223.216l-25.945-23.493l-13.707,14.683v132.157l15.175,14.191v1.96l-40.137,42.097l-45.526-41.605v-1.468l17.627-18.596V219.787 l-23.009-21.049l-9.302,10.278l-3.913-3.913l44.542-48.462l44.542,39.652v9.786l46.502-49.439l43.558,39.16l9.794-10.278 l4.405,3.913l-11.747,12.239v139.991l22.025,20.557l10.77-11.747l3.913,3.913L1798.188,404.812z M1668.96,362.23v-0.976 c0,0.976,9.794-9.794,9.794-9.794V212.438l-27.906-25.454l-6.857,7.342l24.477,22.517v129.221l-15.175,15.667v0.976l37.692,34.264 l7.826-8.318L1668.96,362.23z M1771.259,358.317V214.898l-30.343-27.414l-7.833,8.318l27.898,24.962v142.443l36.708,34.264 l7.833-8.325L1771.259,358.317z M1936.219,492.919c-16.144-17.62-27.406-24.962-42.582-24.962c-16.152,0-34.755,6.365-53.844,16.644 l-1.468-1.461l67.55-78.321l-47.97-38.177l-9.302,9.794l-3.913-3.429l10.763-11.747v-138.53l93.004-66.574l51.884,41.121 l8.817-9.794l3.913,3.92l-10.278,11.255v167.412c0,25.454,14.192,24.477,14.192,43.558 C2016.984,435.654,1985.166,456.211,1936.219,492.919z M1871.12,357.333V218.811l-10.278,7.349v135.586l48.455,39.16l7.349-8.817 L1871.12,357.333z M1905.384,455.234c-16.152,0-30.842,4.897-44.542,14.191v0.984c8.81-3.429,18.597-7.834,35.24-7.834 c15.175,0,27.898,8.318,40.629,23.009l9.794-7.834C1934.258,463.559,1919.575,455.234,1905.384,455.234z M1965.101,408.24 c-12.231-7.834-15.175-16.152-15.175-37.2v-8.817l-81.258,93.981l0.492,0.485c15.66-9.295,29.859-16.144,52.867-16.144 c19.58,0,32.795,7.826,47.97,20.557c9.302-7.834,15.66-15.66,15.66-27.898C1985.657,423.415,1977.332,416.074,1965.101,408.24z M1949.926,221.747l-40.629-31.811l-0.984,0.976v150.269l31.334,24.477l10.278-11.747V221.747z M1979.784,401.39 c-12.73-9.794-14.199-18.112-14.199-39.16V213.429l-41.121-33.287l-9.295,6.365l40.137,31.811V369.08 c0,21.049,0.984,26.929,14.199,35.732c11.747,7.834,21.041,16.152,21.041,27.414c0,2.929-0.484,7.826-0.484,7.826l0.484,0.492 c2.452-2.452,5.389-6.365,5.389-12.73C1995.943,417.05,1990.554,409.708,1979.784,401.39z M2097.265,404.812l-45.034-35.24 l-9.302,10.278l-3.913-3.92l10.763-11.747V192.865h-28.39l-0.984-0.976l17.135-25.461h12.231V133.64l51.891-55.312l0.977,0.984 v87.124h39.16l0.984,0.984l-17.135,25.454h-23.009v148.316l26.929,20.564l10.278-11.262l3.913,3.913L2097.265,404.812z M2065.447,125.315l-10.278,11.262v29.859h10.278V125.315z M2065.447,359.293V192.865h-10.278v172.301l41.605,32.311l7.342-7.834 L2065.447,359.293z M2303.823,207.064v137.054l-82.726,61.185l-62.169-46.987l-7.342,8.318l-3.913-3.92l8.81-9.786V218.811 l86.646-62.169l57.757,45.041l9.295-9.794l3.92,3.913L2303.823,207.064z M2172.157,348.038V214.406l-10.286,7.342V353.42 l58.741,45.034l9.302-6.85L2172.157,348.038z M2250.963,223.216l-41.121-32.311l-0.485,0.492v145.864l41.605,31.327 L2250.963,223.216L2250.963,223.216z M2266.63,214.406l-45.526-35.247l-9.295,6.85l44.542,34.264v152.237l10.278-7.826 L2266.63,214.406L2266.63,214.406z M2490.815,404.812l-42.589-38.669V223.216l-25.945-23.493l-13.707,14.683v132.157l15.175,14.191 v1.96l-40.137,42.097l-45.526-41.605v-1.468l17.627-18.596V219.787l-23.009-21.049l-9.302,10.278l-3.913-3.913l44.542-48.462 l44.542,39.652v9.786l46.502-49.439l43.565,39.16l9.786-10.278l4.405,3.913l-11.747,12.239v139.991l22.025,20.557l10.77-11.747 l3.913,3.913L2490.815,404.812z M2361.58,362.23v-0.976c0,0.976,9.794-9.794,9.794-9.794V212.438l-27.898-25.454l-6.85,7.342 l24.477,22.517v129.221l-15.175,15.667v0.976l37.692,34.264l7.833-8.318L2361.58,362.23z M2463.886,358.317V214.898l-30.343-27.414 l-7.833,8.318l27.898,24.962v142.443l36.708,34.264l7.833-8.325L2463.886,358.317z M2793.205,404.812 c-13.707-14.683-18.597-19.58-34.755-23.985v10.77v85.171l-0.984,0.485l-19.58-17.627L2681.105,512l-0.984-0.485V379.85 c-17.128,3.913-35.24,12.73-52.867,30.343l-0.977-0.485c3.428-37.692,22.025-65.59,53.836-76.361v-95.449h-10.278 c-14.191,0-22.025,7.342-28.875,20.557h-1.469c-1.468-4.398-2.452-11.262-2.452-22.51c0-20.564,15.175-42.097,40.144-42.097h2.929 v-52.867l-20.065-18.112l-9.794,9.794l-3.429-3.429l49.439-52.375l46.01,42.097v44.542l10.77-11.747V95.456h5.381v51.399 l65.099-70.003l55.312,50.422v212.93L2793.205,404.812z M2680.136,361.738c-20.065,3.913-34.256,16.152-43.558,32.303l0.485,0.984 c13.714-11.747,26.43-17.128,43.073-21.049L2680.136,361.738L2680.136,361.738z M2695.803,221.263h-26.922 c-18.604,0-25.946,11.747-26.43,25.454l0.484,0.485c5.874-9.794,11.747-13.215,23.493-14.676h19.096v266.767l10.278-9.794V221.263z M2695.803,133.148l-24.477-22.51l-7.833,8.318l22.032,19.573v55.312h10.278L2695.803,133.148L2695.803,133.148z M2753.075,161.047 l-10.77,11.262v283.417l10.77,9.794V161.047z M2817.197,149.792l-28.882-26.43l-29.858,32.311v172.294 c25.454,2.452,43.073,9.794,58.249,26.43l0.492-0.485V149.792z M2758.457,361.738v12.73c16.643,3.913,23.493,8.81,35.24,22.51 l11.262-8.81C2793.205,373.485,2781.458,364.682,2758.457,361.738z M2832.857,141.965l-33.287-30.842l-7.834,8.318l30.842,28.39 v227.613l10.278-7.834V141.965z M3049.7,207.064v137.054l-82.733,61.185l-62.162-46.987l-7.349,8.318l-3.913-3.92l8.81-9.786 V218.811L2989,156.642l57.757,45.041l9.295-9.794l3.92,3.913L3049.7,207.064z M2918.028,348.038V214.406l-10.285,7.342V353.42 l58.74,45.034l9.302-6.85L2918.028,348.038z M2996.833,223.216l-41.113-32.311l-0.492,0.492v145.864l41.605,31.327L2996.833,223.216 L2996.833,223.216z M3012.5,214.406l-45.526-35.247l-9.295,6.85l44.542,34.264v152.237l10.278-7.826L3012.5,214.406L3012.5,214.406z M3163.254,245.241h50.422v104.751l-77.829,54.82c-10.278-11.747-24.962-20.065-43.073-20.065c-14.683,0-26.43,4.897-42.097,18.112 l-2.445-0.984l66.567-96.917h-41.121v-91.044l81.749-56.78c9.794,7.834,17.128,12.231,29.858,12.231 c9.794,0,23.978-1.96,34.755-10.763l1.96,0.976L3163.254,245.241z M3108.434,370.548c-14.192,0-25.454,4.897-35.24,11.747v0.984 c7.834-3.429,15.66-4.405,23.009-4.405c11.262,0,28.875,5.389,40.622,19.096l11.262-8.318 C3138.791,378.874,3127.529,370.548,3108.434,370.548z M3160.816,288.314h-27.414l-57.265,82.733l0.485,0.976 c14.191-10.278,27.898-17.128,44.542-17.128c14.683,0,29.858,6.85,39.16,18.596l0.484-0.485v-84.693H3160.816z M3089.352,288.314 v-78.798l-10.285,7.342v82.234h39.645l7.834-10.77h-37.193V288.314z M3191.651,192.373c-10.285,7.349-16.152,11.262-33.294,11.262 c-9.794,0-21.54-4.405-30.835-14.199l-0.984,0.492v71.464h18.596l46.994-68.534L3191.651,192.373z M3168.151,187.968 c-8.81,0-20.065-4.398-27.406-14.191l-12.238,8.318c9.302,11.262,18.112,16.152,31.819,16.152c8.81,0,21.54-2.452,34.755-13.714 l0.485-1.461C3187.246,186.507,3176.968,187.968,3168.151,187.968z M3176.476,272.17h-31.812l-7.342,10.278h28.875v94.957 l10.278-7.342L3176.476,272.17L3176.476,272.17z M3294.934,404.812l-45.034-35.24l-9.302,10.278l-3.913-3.92l10.763-11.747V192.865 h-28.39l-0.977-0.976l17.128-25.461h12.231V133.64l51.891-55.312l0.984,0.984v87.124h39.153l0.984,0.984l-17.135,25.454h-23.001 v148.316l26.922,20.564l10.278-11.262l3.913,3.913L3294.934,404.812z M3263.115,125.315l-10.278,11.262v29.859h10.278V125.315z M3263.115,359.293V192.865h-10.278v172.301l41.605,32.311l7.342-7.834L3263.115,359.293z" />
                </svg>
            