
                <svg version="1.0" id="white-house" xmlns="http://www.w3.org/2000/svg" width="{{width}}px" height="{{height}}px"
                    viewBox="0 0 7446.082 512">
                    <path d="M179.103,392.358c0,67.437-4.3,72.508-36.96,77.579l-32.693,3.66c-5.777,4.333-5.777,21.024,0,25.357 c50.811-1.411,88.542-2.15,123.352-2.15c32.627,0,68.914,0.739,115.999,2.15c5.104-4.333,5.104-21.024,0-25.357l-28.983-3.66 c-32.66-5.071-37.025-10.126-37.025-77.579V72.557c0-18.874,2.216-21.089,19.579-21.089h43.524c54.389,0,64.532,34.17,76.906,80.517 c3.594,5.826,23.239,4.431,26.801-2.183c-1.411-41.358,3.66-100.047,10.93-124.763C459.057,2.888,453.936,0,449.604,0 c-4.366,0-6.499,0.706-9.388,2.216c-6.532,15.23-17.413,15.903-65.303,15.903H105.135c-55.095,0-57.31-2.888-60.904-15.23 C41.309,0.706,37.665,0,34.071,0c-3.66,0-7.205,1.477-10.192,3.627C18.841,31.938,15.23,76.906,0,126.913 c4.333,9.486,18.119,10.897,26.866,6.499c21.697-52.928,36.927-81.961,89.855-81.961h44.936c17.429,0,17.429,3.66,17.429,21.089 v319.818H179.103z M836.793,266.906c30.444,0,30.444,0.739,30.444,20.991v104.494c0,67.403-3.627,72.475-36.992,79.007l-16.002,2.15 c-5.777,4.365-5.777,21.089,0,25.422c34.842-1.444,70.423-2.183,106.677-2.183c33.333,0,68.881,0.739,105.102,2.183 c5.859-4.333,5.859-21.056,0-25.422l-17.348-2.888c-33.365-5.81-37.764-10.864-37.764-78.284V122.547 c0-67.437,4.398-72.475,37.764-79.007l14.524-2.183c5.81-4.365,5.81-21.024,0-25.422c-33.398,1.444-66.731,2.183-102.279,2.183 c-34.777,0-70.358-0.739-110.238-2.183c-5.81,4.398-5.81,21.056,0,25.422l19.546,2.888c33.365,5.826,36.992,10.864,36.992,78.301 v84.111c0,21.089,0,21.762-30.444,21.762H685.935c-29.722,0-30.428-0.673-30.428-21.762v-84.111c0-67.437,4.3-72.475,35.482-79.007 l15.23-2.183c5.826-4.365,5.826-21.024,0-25.422c-31.855,1.444-68.175,2.183-100.785,2.183c-34.842,0-72.508-0.739-108.056-2.183 c-5.859,4.398-5.859,21.056,0,25.422l17.413,2.183c32.627,6.532,36.959,11.57,36.959,79.007v269.828 c0,67.403-4.333,72.475-36.959,79.007l-17.413,2.15c-5.859,4.365-5.859,21.089,0,25.422c36.992-1.444,73.213-2.183,108.056-2.183 c32.594,0,68.914,0.739,110.271,2.183c5.744-4.333,5.744-21.056,0-25.422l-23.239-2.888c-32.66-5.81-36.96-10.864-36.96-78.284 V287.864c0-20.252,0.706-20.991,30.428-20.991h150.858V266.906z M1276.352,79.761c0-26.834,0-28.278,23.912-28.278h58.016 c35.581,0,57.278,8.747,71.096,22.468c9.42,10.159,19.579,31.921,27.539,57.343c7.205,6.499,23.912,5.039,26.899-2.921 c-3.693-48.629-8.748-100.851-9.519-112.454c-9.388,1.444-50.713,2.183-97.125,2.183h-153.763c-34.842,0-70.325-0.739-104.429-2.183 c-7.205,4.398-7.943,21.056-1.477,25.422l18.135,3.627c32.627,5.81,37.025,10.864,37.025,76.873v270.5 c0,66.698-4.399,71.769-37.025,76.167l-34.038,5.071c-5.859,3.627-5.859,21.024,0,25.357c54.356-1.411,89.937-2.15,124.698-2.15 h94.303c59.46,0,129.079,0.739,167.516,2.15c10.126-19.514,27.572-78.284,30.444-115.966c-2.888-8.747-21.024-11.669-26.866-3.66 c-39.881,81.895-64.532,84.111-127.635,84.111c-52.896,0-66.649-5.777-76.135-18.874c-8.715-12.276-11.57-35.548-11.57-68.88 v-86.261c0-21.762,0.706-22.501,20.252-22.501h50.073c37.698,0,45.707,5.777,53.667,40.619l3.693,18.119 c5.039,6.532,23.141,5.81,26.768-0.739c-1.411-23.173-2.15-49.301-2.15-76.873c0-27.539,0.739-53.634,2.15-76.84 c-3.627-6.532-21.729-6.532-26.768-0.771l-3.693,18.135c-7.943,34.81-15.969,39.881-53.667,39.881h-50.073 c-19.547,0-20.252-1.411-20.252-21.762V79.761z M2597.031,41.374c5.104-5.81,4.365-21.762-2.183-25.422 c-20.318,1.444-41.358,2.183-66.731,2.183c-21.696,0-50.746-0.739-73.952-2.183c-6.482,3.66-7.976,18.874-2.183,25.422l15.903,4.3 c9.486,2.248,13.819,5.121,13.819,10.192c0,8.009-14.492,49.301-19.547,61.643c-34.81,88.509-68.914,178.413-103.723,262.557 c-4.399-10.159-14.557-30.444-31.921-71.063l-34.071-73.279c-5.071-11.603-5.81-15.969-5.81-18.135 c0-3.627,9.453-24.618,16.002-37.698c9.387-18.874,27.539-52.223,44.903-81.994c25.389-43.491,30.477-46.38,55.095-51.451 l20.318-4.398c6.532-5.039,5.071-22.435-0.673-26.095c-18.906,1.444-45.707,2.183-74.018,2.183c-23.912,0-49.974-0.739-71.063-2.183 c-6.532,3.66-7.271,20.318-2.183,25.422l21.762,5.071c11.669,2.888,14.492,5.071,14.492,10.159c0,4.365-6.532,26.128-19.579,53.667 l-6.532,14.525c-7.205,15.969-14.492,30.428-21.729,45.642c-6.499-13.048-13.786-28.951-20.318-44.23l-21.762-50.073 c-2.856-7.943-6.499-15.87-6.499-21.729c0-5.071,10.832-8.715,19.579-10.126l12.342-2.888c5.104-3.66,5.81-23.239-2.888-25.422 c-18.874,1.444-46.413,2.183-83.471,2.183c-31.856,0-60.1-0.739-91.316-2.183c-7.976,2.921-9.453,19.612-2.183,25.422l7.205,0.673 c27.605,3.627,32.659,8.009,49.367,44.23l69.652,153.057c2.823,7.205,4.333,15.296,4.333,19.612c0,4.316-4.333,20.252-9.453,31.921 l-9.421,20.991c-14.491,32.627-26.062,54.389-34.81,70.325c-8.682-17.38-15.936-32.594-36.254-77.612l-71.802-160.311 c-23.239-50.713-37.731-84.817-37.731-89.921c0-5.071,5.121-8.715,18.119-10.832l13.08-2.183c7.238-4.365,4.399-22.501-1.411-25.422 c-27.605,1.444-55.899,2.183-87.771,2.183c-36.992,0-67.404-0.739-94.303-2.183c-7.943,3.66-8.682,18.135-2.888,25.422l18.119,3.627 c23.912,3.594,29.049,7.943,47.89,51.484l118.953,259.603c24.683,54.422,53.634,119.692,65.204,150.136 c6.532,3.627,10.897,5.81,18.874,5.81c10.93,0,20.318-2.183,23.912-5.81c11.636-23.912,18.906-45.001,30.51-68.175l34.071-73.952 c9.42-20.318,18.135-37.731,24.651-50.04c6.532,10.832,15.969,32.594,26.16,55.833l30.428,68.914 c9.387,20.252,19.547,46.38,27.572,63.826c5.071,3.594,11.636,5.81,19.514,5.81c9.453,0,19.612-2.216,23.978-5.81 c35.515-94.27,116.738-274.899,152.991-359.748c18.874-45.74,31.921-68.914,39.881-80.484c5.186-6.532,13.08-11.603,29.804-15.969 L2597.031,41.374z M2928.059,266.906c30.428,0,30.428,0.739,30.428,20.991v104.494c0,67.403-3.562,72.475-36.96,79.007l-15.969,2.15 c-5.81,4.365-5.81,21.089,0,25.422c34.81-1.444,70.357-2.183,106.612-2.183c33.365,0,68.914,0.739,105.167,2.183 c5.777-4.333,5.777-21.056,0-25.422l-17.413-2.888c-33.333-5.81-37.698-10.864-37.698-78.284V122.547 c0-67.437,4.365-72.475,37.698-79.007l14.557-2.183c5.81-4.365,5.81-21.024,0-25.422c-33.398,1.444-66.731,2.183-102.312,2.183 c-34.81,0-70.325-0.739-110.206-2.183c-5.826,4.398-5.826,21.056,0,25.422l19.547,2.888c33.398,5.826,36.96,10.864,36.96,78.301 v84.111c0,21.089,0,21.762-30.428,21.762h-150.842c-29.722,0-30.444-0.673-30.444-21.762v-84.111 c0-67.437,4.333-72.475,35.515-79.007l15.23-2.183c5.81-4.365,5.81-21.024,0-25.422c-31.921,1.444-68.24,2.183-100.818,2.183 c-34.777,0-72.508-0.739-108.023-2.183c-5.826,4.398-5.826,21.056,0,25.422l17.38,2.183c32.692,6.532,36.992,11.57,36.992,79.007 v269.828c0,67.403-4.3,72.475-36.992,79.007l-17.38,2.15c-5.826,4.365-5.826,21.089,0,25.422 c36.927-1.444,73.246-2.183,108.023-2.183c32.561,0,68.881,0.739,110.239,2.183c5.81-4.333,5.81-21.056,0-25.422l-23.173-2.888 c-32.659-5.81-36.992-10.864-36.992-78.284V287.864c0-20.252,0.739-20.991,30.444-20.991h150.858V266.906z M3367.585,124.041 c0-68.208,4.365-73.246,37.731-79.04l20.318-3.627c5.777-4.398,5.777-21.024,0-25.422c-39.175,1.51-75.429,2.183-109.565,2.183 c-34.777,0-70.998-0.673-110.206-2.183c-5.81,4.398-5.81,21.024,0,25.422l20.285,3.627c33.398,5.81,37.764,10.832,37.764,79.04 v266.857c0,68.24-4.365,73.213-37.764,79.04l-20.285,3.66c-5.81,4.333-5.81,21.024,0,25.357c39.208-1.411,75.429-2.15,110.206-2.15 c34.136,0,69.685,0.739,108.794,2.15c5.826-4.333,6.532-21.024,0.771-25.357l-20.318-3.66c-33.365-5.826-37.731-10.799-37.731-79.04 V124.041z M3671.435,392.358c0,67.437-4.333,72.508-36.96,77.579l-32.627,3.66c-5.826,4.333-5.826,21.024,0,25.357 c50.778-1.411,88.476-2.15,123.286-2.15c32.692,0,68.913,0.739,115.966,2.15c5.153-4.333,5.153-21.024,0-25.357l-29.016-3.66 c-32.627-5.071-36.992-10.126-36.992-77.579V72.557c0-18.874,2.216-21.089,19.645-21.089h43.524c54.34,0,64.532,34.17,76.807,80.517 c3.66,5.826,23.272,4.431,26.866-2.183c-1.379-41.358,3.66-100.047,10.897-124.763C3951.387,2.888,3946.3,0,3941.934,0 c-4.333,0-6.532,0.706-9.42,2.216c-6.532,15.23-17.43,15.903-65.27,15.903h-269.778c-55.094,0-57.31-2.888-60.904-15.23 C3533.607,0.706,3530.062,0,3526.403,0c-3.66,0-7.205,1.477-10.159,3.627c-5.104,28.311-8.715,73.279-23.945,123.286 c4.398,9.486,18.135,10.897,26.899,6.499c21.664-52.928,36.894-81.961,89.888-81.961h44.968c17.38,0,17.38,3.66,17.38,21.089 L3671.435,392.358L3671.435,392.358z M4176.822,79.761c0-26.834,0-28.278,23.945-28.278h58.016c35.482,0,57.245,8.747,71.031,22.468 c9.486,10.159,19.547,31.921,27.605,57.343c7.238,6.499,23.978,5.039,26.833-2.921c-3.594-48.629-8.715-100.851-9.453-112.454 c-9.355,1.444-50.712,2.183-97.125,2.183h-153.762c-34.777,0-70.325-0.739-104.495-2.183c-7.205,4.398-7.91,21.056-1.379,25.422 l18.119,3.627c32.594,5.81,36.992,10.864,36.992,76.873v270.5c0,66.698-4.398,71.769-36.992,76.167l-34.104,5.071 c-5.826,3.627-5.826,21.024,0,25.357c54.422-1.411,89.97-2.15,124.763-2.15h94.303c59.46,0,129.046,0.739,167.483,2.15 c10.126-19.514,27.604-78.284,30.444-115.966c-2.855-8.747-21.023-11.669-26.833-3.66c-39.848,81.895-64.531,84.111-127.602,84.111 c-52.928,0-66.698-5.777-76.201-18.874c-8.616-12.276-11.57-35.548-11.57-68.88v-86.261c0-21.762,0.739-22.501,20.318-22.501h50.007 c37.731,0,45.74,5.777,53.667,40.619l3.627,18.119c5.071,6.532,23.239,5.81,26.833-0.739c-1.444-23.173-2.084-49.301-2.084-76.873 c0-27.539,0.64-53.634,2.084-76.84c-3.594-6.532-21.762-6.532-26.833-0.771l-3.627,18.135c-7.911,34.81-15.936,39.881-53.667,39.881 h-50.007c-19.579,0-20.318-1.411-20.318-21.762V79.761H4176.822z M5194.391,266.906c30.444,0,30.444,0.739,30.444,20.991v104.494 c0,67.403-3.594,72.475-36.992,79.007l-15.903,2.15c-5.859,4.365-5.859,21.089,0,25.422c34.776-1.444,70.325-2.183,106.611-2.183 c33.333,0,68.88,0.739,105.135,2.183c5.776-4.333,5.776-21.056,0-25.422l-17.38-2.888c-33.431-5.81-37.829-10.864-37.829-78.284 V122.547c0-67.437,4.398-72.475,37.829-79.007l14.394-2.183c5.859-4.365,5.859-21.024,0-25.422 c-33.267,1.444-66.665,2.183-102.164,2.183c-34.842,0-70.325-0.739-110.206-2.183c-5.859,4.398-5.859,21.056,0,25.422l19.497,2.888 c33.398,5.826,36.992,10.864,36.992,78.301v84.111c0,21.089,0,21.762-30.444,21.762h-150.842c-29.722,0-30.444-0.673-30.444-21.762 v-84.111c0-67.437,4.366-72.475,35.548-79.007l15.23-2.183c5.826-4.365,5.826-21.024,0-25.422 c-31.954,1.444-68.142,2.183-100.851,2.183c-34.777,0-72.541-0.739-108.023-2.183c-5.81,4.398-5.81,21.056,0,25.422l17.38,2.183 c32.725,6.532,37.058,11.57,37.058,79.007v269.828c0,67.403-4.333,72.475-37.058,79.007l-17.38,2.15 c-5.81,4.365-5.81,21.089,0,25.422c36.992-1.444,73.246-2.183,108.023-2.183c32.692,0,68.88,0.739,110.206,2.183 c5.859-4.333,5.859-21.056,0-25.422l-23.141-2.888c-32.626-5.81-36.992-10.864-36.992-78.284V287.864 c0-20.252,0.739-20.991,30.444-20.991h150.857V266.906z M5721.048,6.515c-151.646,0-258.93,110.944-258.93,254.548 c0,151.58,105.84,247.327,251.626,247.327c155.946,0,261.819-95.008,261.819-253.104C5975.563,108.072,5871.84,6.515,5721.048,6.515 M5859.499,264.691c0,117.476-37.058,210.335-131.968,210.335c-118.28,0-149.414-142.159-149.414-230.603 c0-121.136,47.856-204.574,137.006-204.574C5805.125,39.864,5859.499,140.698,5859.499,264.691 M6119.971,303.898 c0,79.072,15.969,132.706,53.667,163.856c39.143,31.921,88.509,40.685,143.571,40.685c58.82,0,111.749-18.168,143.67-52.288 c39.848-44.23,46.347-106.546,46.347-174.786v-81.157c0-58.722,2.987-113.915,10.897-132.772 c6.532-15.23,20.351-19.547,39.142-23.912l13.081-2.888c5.81-5.81,4.365-20.285,0-24.683c-27.572,1.444-54.39,2.183-81.222,2.183 c-29.689,0-57.983-0.739-97.158-2.183c-4.432,4.398-5.81,18.874,0,24.683l19.546,3.627c19.612,3.627,35.548,7.943,42.081,23.173 c7.977,18.841,10.931,74.05,10.931,132.772v87.705c0,99.374-28.31,180.629-121.169,180.629 c-110.304,0-119.659-93.597-119.659-178.413V122.646c0-67.502,4.3-72.573,36.993-79.105l17.381-2.888 c5.81-4.365,5.81-20.285,0-24.683c-34.809,1.444-70.259,2.183-105.807,2.183c-34.842,0-71.097-0.739-105.938-2.183 c-7.976,4.398-7.238,20.318-1.445,24.683l18.119,3.627c32.627,5.81,36.992,10.864,36.992,78.367v181.252H6119.971z M6959.98,361.208 c0-79.844-57.245-121.874-102.279-145.787l-47.824-25.389c-36.287-18.841-65.992-49.301-65.992-82.699 c0-36.254,26.062-67.437,74.018-67.437c52.19,0,83.34,52.961,95.747,89.921c6.483,7.27,24.651,6.532,28.245-2.15 c0-48.629-7.303-87.771-13.08-103.723c-8.682-1.444-15.165-2.888-24.618-5.81c-29.049-8.682-58.754-11.57-82.699-11.57 c-105.135,0-168.255,56.572-168.255,138.483c0.707,71.835,57.277,115.326,109.533,141.421 c43.492,21.795,98.603,56.572,98.603,115.293c0,36.287-24.585,73.279-78.301,73.279c-61.676,0-110.238-66.665-124.763-113.833 c-5.81-8.009-22.468-7.27-27.572,2.15c0,49.301,9.453,101.524,23.207,117.476c15.229,8.682,56.572,27.605,123.318,27.605 C6886.75,508.423,6959.98,450.374,6959.98,361.208 M7203.729,79.761c0-26.834,0-28.278,23.945-28.278h58.016 c35.613,0,57.375,8.747,71.096,22.468c9.42,10.159,19.546,31.921,27.572,57.343c7.271,6.499,23.945,5.039,26.833-2.921 c-3.627-48.629-8.715-100.851-9.42-112.454c-9.42,1.444-50.778,2.183-97.191,2.183h-153.763c-34.777,0-70.325-0.739-104.396-2.183 c-7.303,4.398-8.008,21.056-1.444,25.422l18.119,3.627c32.626,5.81,36.993,10.864,36.993,76.873v270.5 c0,66.698-4.366,71.769-36.993,76.167l-34.038,5.071c-5.859,3.627-5.859,21.024,0,25.357c54.339-1.411,89.888-2.15,124.763-2.15 h94.204c59.526,0,129.046,0.739,167.548,2.15c10.126-19.514,27.539-78.284,30.51-115.966c-2.987-8.747-21.155-11.669-26.932-3.66 c-39.914,81.895-64.564,84.111-127.569,84.111c-52.994,0-66.73-5.777-76.201-18.874c-8.682-12.276-11.636-35.548-11.636-68.88 v-86.261c0-21.762,0.771-22.501,20.384-22.501h50.007c37.698,0,45.674,5.777,53.667,40.619l3.594,18.119 c5.154,6.532,23.207,5.81,26.867-0.739c-1.444-23.173-2.15-49.301-2.15-76.873c0-27.539,0.707-53.634,2.15-76.84 c-3.66-6.532-21.697-6.532-26.867-0.771l-3.594,18.135c-7.977,34.81-15.969,39.881-53.667,39.881h-50.007 c-19.612,0-20.384-1.411-20.384-21.762V79.761H7203.729z" />
                </svg>
            