
                <svg version="1.0" id="yale" xmlns="http://www.w3.org/2000/svg" width="{{width}}px" height="{{height}}px"
                    viewBox="0 0 1184.906 512">
                    <path d="M394.24,107.52L273.55,310.86v136.78c13.89,32.91,49,37.3,82.65,38.76v19.02H119.95V486.4 c33.65-1.47,74.61-6.58,85.58-28.52V316.71L82.65,108.98C61.44,73.87,40.96,62.18,0,59.25V40.23h205.53v19.02 c-38.77,2.19-51.2,9.51-62.17,18.29l114.1,197.48L369.37,78.26c-11.7-8.77-27.06-16.82-65.83-19.02V40.23h175.54v19.02 C439.58,60.72,414.72,73.87,394.24,107.52z M634.14,512c-39.49,0-58.51-27.07-59.97-46.08C549.3,492.25,517.12,512,486.4,512 c-39.5,0-73.15-24.14-73.15-65.82c0-20.48,5.12-41.7,15.36-58.52l145.55-52.67v-54.13c0-32.91-15.36-64.36-48.28-64.36 c-19.75,0-38.77,24.13-40.22,61.44l-65.83,10.97v-7.31c21.94-65.84,94.36-91.43,129.46-91.43c66.56,0,90.7,35.1,89.97,89.23 l-2.19,153.6c-0.73,29.99,15.36,37.3,29.99,37.3c11.7,0,23.4-7.31,37.3-21.21v21.21C688.27,489.33,659.75,512,634.14,512z  M487.86,392.78c-2.93,11.7-5.12,21.94-5.12,38.03c0,21.94,12.43,43.88,36.57,43.88c21.94,0,34.38-7.31,54.13-22.67l0.73-98.75 C555.15,362.05,508.34,382.54,487.86,392.78z M710.94,505.42v-16.82c32.91-2.19,42.42-9.51,48.27-21.95V87.77 c0-24.87-3.66-35.1-54.13-39.49V33.65L838.94,0l4.38,12.44l-21.21,26.33v427.88c7.31,14.63,21.21,19.75,51.2,21.95v16.82H710.94z  M1048.86,511.27c-76.8,0-136.04-60.71-136.04-145.56c0-103.86,63.64-174.81,153.61-174.81c72.41,0,112.64,40.97,112.64,106.06 v13.16l-197.48-1.46c-1.46,8.04-2.2,21.21-2.2,37.3c0,74.6,46.81,123.61,108.99,123.61c37.3,0,56.32-13.16,85.57-38.03l10.97,16.82 C1143.21,486.4,1108.83,511.27,1048.86,511.27z M1055.44,213.58c-36.58,0-62.17,29.25-70.95,75.33l128.74-1.46 C1113.23,248.69,1089.09,213.58,1055.44,213.58z" />
                </svg>
            