
                <svg version="1.0" id="zombie" xmlns="http://www.w3.org/2000/svg" width="{{width}}px" height="{{height}}px"
                    viewBox="0 0 320 512">
                    <path d="M80,96A48,48,0,1,0,32,48,48,48,0,0,0,80,96Zm225.74,53.38-24-16A32,32,0,0,0,264,128H96a48,48,0,0,0-48,48V318.49L32.17,476.81a32,32,0,1,0,63.68,6.38L109,352h15.26L160,423.55V480a32,32,0,1,0,64,0V423.55a64.15,64.15,0,0,0-6.75-28.61L176,312.44l0-91.21V192H254.3l15.94,10.62a32,32,0,0,0,35.5-53.24Z" />
                </svg>
            