
                <svg version="1.0" id="calendar-days" xmlns="http://www.w3.org/2000/svg" width="{{width}}px" height="{{height}}px"
                    viewBox="0 0 448 512">
                    <path d="M384 64H352V16C352 7 345 0 336 0S320 7 320 16V64H128V16C128 7 121 0 112 0S96 7 96 16V64H64C29 64 0 93 0 128V448C0 483 29 512 64 512H384C419 512 448 483 448 448V128C448 93 419 64 384 64ZM32 224H128V288H32V224ZM160 288V224H288V288H160ZM288 320V384H160V320H288ZM32 320H128V384H32V320ZM64 480C46 480 32 466 32 448V416H128V480H64ZM160 480V416H288V480H160ZM416 448C416 466 402 480 384 480H320V416H416V448ZM416 384H320V320H416V384ZM416 288H320V224H416V288ZM416 192H32V128C32 110 46 96 64 96H384C402 96 416 110 416 128V192Z" />
                </svg>
            