
                <svg version="1.0" id="gem" xmlns="http://www.w3.org/2000/svg" width="{{width}}px" height="{{height}}px"
                    viewBox="0 0 512 512">
                    <path d="M509 199L397 39C394 35 389 32 384 32H128C123 32 118 35 115 39L3 199C-1 205 -1 213 4 219L244 475C247 478 252 480 256 480S265 478 268 475L508 219C513 213 513 205 509 199ZM383 75L465 192H294L383 75ZM256 190L160 64H352L256 190ZM129 75L218 192H47L129 75ZM256 441L53 224H459L256 441Z" />
                </svg>
            