
                <svg version="1.0" id="triangle" xmlns="http://www.w3.org/2000/svg" width="{{width}}px" height="{{height}}px"
                    viewBox="0 0 512 512">
                    <path d="M506 417L293 53C285 39 270 32 256 32S227 39 219 53L6 417C-11 445 10 480 43 480H469C502 480 523 445 506 417ZM479 443C478 445 475 448 469 448H43C37 448 35 445 33 443C32 441 31 437 33 433L247 69C249 65 254 64 256 64C258 64 263 65 265 69L479 433C481 437 480 441 479 443Z" />
                </svg>
            