
                <svg version="1.0" id="font-awesome-flag" xmlns="http://www.w3.org/2000/svg" width="{{width}}px" height="{{height}}px"
                    viewBox="0 0 448 512">
                    <path d="M328.4,79.7c-62.8,0-86.8-32-149.2-32c-50.8,0-74.8,20.8-115.2,28.8v64c40.4-8,64.4-28.8,115.2-28.8 c62.8,0,86.4,32,149.2,32c20.4,0,35.6-2.8,55.6-9.2v192c-20,6.4-35.2,9.2-55.6,9.2c-62.8,0-86.8-32-149.2-32 c-20.4,0-36.4,3.6-51.2,8v64c14.8-4.8,30.8-8,51.2-8c62.8,0,86.4,32,149.2,32c37.2,0,56.4-9.6,119.6-32v-320 C384.8,70.1,365.6,79.7,328.4,79.7z" />
                </svg>
            